<svg width="281" height="80" viewBox="0 0 281 80" fill="none" xmlns="http://www.w3.org/2000/svg">
<path d="M40.1269 34.7931C-3.64819 28.5086 -41.8576 34.7931 -41.8576 34.7931H-52V90H221C221 90 183.277 82.6911 171.978 76.4492C133.897 55.4117 90.6836 42.0512 40.1269 34.7931Z" fill="#D2E9B6" fill-opacity="0.51"/>
<path d="M80.9133 43.7931C32.4881 37.5086 -9.78019 43.7931 -9.78019 43.7931H-21V99H281C281 99 239.27 91.6911 226.771 85.4492C184.644 64.4117 136.84 51.0512 80.9133 43.7931Z" fill="#D2E9B6" fill-opacity="0.51"/>
<g clip-path="url(#clip0_84_2)">
<path d="M259.546 7.26701C259.431 7.19082 259.316 7.11857 259.201 7.04501C255.887 4.93213 252.336 3.21566 248.619 1.93104L247.757 13.7826H242.295V0.200986C241.951 0.130049 241.604 0.0630543 241.258 0V13.7826H234.766C231.192 13.7826 227.765 12.3672 225.238 9.84775C222.71 7.32829 221.291 3.91118 221.291 0.348127C220.943 0.423004 220.598 0.503122 220.252 0.588509V13.7826H214.965L214.144 2.48145C210.325 3.94172 206.699 5.86205 203.348 8.19969C203.29 8.2391 203.232 8.27982 203.175 8.31923C202.884 8.52284 202.597 8.7304 202.311 8.94058V54.1545H217.894L217.619 50.3515L216.103 29.4713H246.618L245.103 50.3515L244.827 54.1545H260.238V7.72416C260.009 7.56915 259.778 7.41677 259.546 7.26701ZM220.252 26.023H215.853L215.04 14.8178H220.252V26.023ZM241.258 26.023H233.869V25.801C233.869 25.6943 233.848 25.5886 233.807 25.4901C233.766 25.3915 233.705 25.3019 233.63 25.2265C233.554 25.1511 233.464 25.0913 233.365 25.0506C233.266 25.0099 233.16 24.989 233.053 24.9892H229.841C229.734 24.9892 229.628 25.0101 229.529 25.0509C229.43 25.0917 229.34 25.1515 229.265 25.2269C229.189 25.3023 229.129 25.3918 229.088 25.4903C229.047 25.5888 229.026 25.6944 229.026 25.801V26.023H221.291V14.8178H241.258V26.023ZM242.295 26.023V14.8178H247.682L246.869 26.023H242.295Z" fill="#F2F2F2"/>
<path d="M276.47 82.1742L276.573 79.8653C277.647 79.2931 278.844 78.9909 280.062 78.9849C278.386 80.3506 278.595 82.9833 277.459 84.8199C277.101 85.39 276.618 85.8723 276.047 86.2311C275.476 86.59 274.831 86.816 274.16 86.8926L272.758 87.7485C272.566 86.6792 272.608 85.5809 272.882 84.5295C273.157 83.4781 273.656 82.4984 274.347 81.6581C274.739 81.1904 275.189 80.7739 275.685 80.4183C276.021 81.3011 276.47 82.1742 276.47 82.1742Z" fill="#F2F2F2"/>
<path d="M201.241 79.644L197.857 78.6227C197.414 76.8252 197.417 74.9469 197.866 73.1509C199.26 76.134 203.241 76.8171 205.536 79.1825C206.246 79.9258 206.779 80.8188 207.095 81.7954C207.412 82.772 207.505 83.8071 207.365 84.8241L208.106 87.2124C206.449 87.0931 204.837 86.617 203.381 85.8168C201.926 85.0166 200.662 83.9114 199.677 82.5773C199.131 81.8234 198.683 81.004 198.343 80.1385C199.778 79.9762 201.241 79.644 201.241 79.644Z" fill="#F2F2F2"/>
<path d="M273.837 87.371C273.836 87.4409 273.808 87.5079 273.759 87.5576C273.735 87.5818 273.706 87.601 273.674 87.6141C273.642 87.6272 273.608 87.6339 273.573 87.6338H272.514C272.479 87.6339 272.445 87.6272 272.413 87.614C272.381 87.6008 272.352 87.5815 272.327 87.5571C272.303 87.5326 272.283 87.5036 272.27 87.4717C272.257 87.4398 272.25 87.4056 272.25 87.371V55.4314C272.25 54.7273 272.013 54.1558 271.722 54.1545H192.338C192.045 54.1558 191.809 54.7273 191.808 55.4314V87.1753C191.808 87.2406 191.783 87.3035 191.739 87.3518C191.695 87.4 191.635 87.4303 191.569 87.4367C191.356 87.4577 191.143 87.4761 190.93 87.4932C190.925 87.4932 190.92 87.4945 190.915 87.4945C190.799 87.505 190.683 87.5129 190.567 87.5221H190.565C190.505 87.4131 190.447 87.3014 190.388 87.1897C190.369 87.1518 190.359 87.11 190.359 87.0676V53.7749C190.359 53.5805 190.367 53.3847 190.38 53.1916C190.399 52.9265 190.431 52.6625 190.479 52.4008C190.701 51.1805 191.205 50.3542 191.776 50.3516H272.282C272.366 50.3521 272.448 50.3695 272.525 50.4028C272.637 50.4524 272.738 50.5233 272.824 50.6117C272.939 50.7314 273.038 50.8662 273.117 51.0123C273.399 51.5076 273.601 52.2458 273.672 53.1049C273.672 53.1128 273.673 53.1207 273.673 53.1286C273.692 53.3414 273.701 53.5581 273.7 53.7749L273.718 56.59L273.73 58.2688L273.766 63.5365L273.779 65.4071L273.837 87.371Z" fill="#E6E6E6"/>
<path d="M235.745 41.0197H229.31C229.219 41.0198 229.132 41.056 229.068 41.1202C229.003 41.1845 228.967 41.2716 228.967 41.3623V51.497H236.089V41.3623C236.089 41.3173 236.08 41.2727 236.063 41.2312C236.045 41.1896 236.02 41.1518 235.988 41.12C235.956 41.0881 235.918 41.0629 235.877 41.0457C235.835 41.0285 235.79 41.0196 235.745 41.0197ZM232.549 46.778C232.348 46.7771 232.155 46.697 232.013 46.5551C231.871 46.4133 231.79 46.2211 231.789 46.0205V44.8515C231.789 44.6506 231.869 44.4579 232.012 44.3159C232.154 44.1738 232.348 44.094 232.549 44.094C232.751 44.094 232.944 44.1738 233.087 44.3159C233.229 44.4579 233.309 44.6506 233.309 44.8515V46.0205C233.308 46.2211 233.228 46.4133 233.086 46.5551C232.943 46.697 232.75 46.7771 232.549 46.778Z" fill="#2F2E41"/>
<path d="M246.401 25.2034H218.894C218.658 25.2037 218.431 25.2975 218.264 25.4641C218.097 25.6307 218.003 25.8566 218.002 26.0922V44.598C218.003 44.8336 218.097 45.0596 218.264 45.2262C218.431 45.3929 218.658 45.4866 218.894 45.4868H246.401C246.637 45.4866 246.864 45.3929 247.031 45.2262C247.198 45.0596 247.292 44.8336 247.292 44.598V26.0922C247.292 25.8566 247.198 25.6307 247.031 25.4641C246.864 25.2975 246.637 25.2037 246.401 25.2034Z" fill="#3F3D56"/>
<path d="M246.171 25.8451H219.123C218.997 25.8454 218.875 25.8957 218.786 25.985C218.697 26.0743 218.646 26.1953 218.646 26.3214V44.3685C218.647 44.4945 218.697 44.6153 218.786 44.7044C218.876 44.7935 218.997 44.8436 219.123 44.8439H246.171C246.297 44.8436 246.418 44.7935 246.508 44.7044C246.597 44.6153 246.647 44.4945 246.647 44.3685V26.3214C246.647 26.1953 246.597 26.0743 246.508 25.985C246.419 25.8957 246.297 25.8454 246.171 25.8451Z" fill="white"/>
<path d="M228.945 51.1729V52.1506C228.945 52.2013 228.966 52.2499 229.001 52.2857C229.037 52.3215 229.086 52.3417 229.137 52.3418H235.919C235.97 52.3415 236.019 52.3213 236.054 52.2855C236.09 52.2497 236.111 52.2013 236.111 52.1506V51.1729H228.945Z" fill="#3F3D56"/>
<path d="M240.903 52.682H224.811C224.767 52.682 224.723 52.6722 224.684 52.6533C224.644 52.6344 224.609 52.6069 224.581 52.5728C224.553 52.5387 224.534 52.4989 224.523 52.4562C224.513 52.4135 224.512 52.369 224.521 52.3261L224.771 51.1437C224.785 51.0776 224.822 51.0183 224.874 50.9757C224.927 50.933 224.993 50.9097 225.061 50.9094H240.653C240.721 50.9097 240.787 50.933 240.839 50.9757C240.892 51.0183 240.929 51.0776 240.943 51.1437L241.192 52.3261C241.202 52.369 241.201 52.4135 241.191 52.4562C241.18 52.4989 241.16 52.5387 241.133 52.5728C241.105 52.6069 241.07 52.6344 241.03 52.6533C240.99 52.6722 240.947 52.682 240.903 52.682Z" fill="#2F2E41"/>
<path d="M225.606 51.1223H225.239C225.204 51.1223 225.175 51.151 225.175 51.1864V51.3547C225.175 51.3901 225.204 51.4188 225.239 51.4188H225.606C225.642 51.4188 225.671 51.3901 225.671 51.3547V51.1864C225.671 51.151 225.642 51.1223 225.606 51.1223Z" fill="#3F3D56"/>
<path d="M226.597 51.1223H226.23C226.195 51.1223 226.166 51.151 226.166 51.1864V51.3547C226.166 51.3901 226.195 51.4188 226.23 51.4188H226.597C226.633 51.4188 226.662 51.3901 226.662 51.3547V51.1864C226.662 51.151 226.633 51.1223 226.597 51.1223Z" fill="#3F3D56"/>
<path d="M227.589 51.1223H227.222C227.186 51.1223 227.157 51.151 227.157 51.1864V51.3547C227.157 51.3901 227.186 51.4188 227.222 51.4188H227.589C227.624 51.4188 227.653 51.3901 227.653 51.3547V51.1864C227.653 51.151 227.624 51.1223 227.589 51.1223Z" fill="#3F3D56"/>
<path d="M228.58 51.1223H228.213C228.177 51.1223 228.149 51.151 228.149 51.1864V51.3547C228.149 51.3901 228.177 51.4188 228.213 51.4188H228.58C228.615 51.4188 228.644 51.3901 228.644 51.3547V51.1864C228.644 51.151 228.615 51.1223 228.58 51.1223Z" fill="#3F3D56"/>
<path d="M229.571 51.1223H229.204C229.169 51.1223 229.14 51.151 229.14 51.1864V51.3547C229.14 51.3901 229.169 51.4188 229.204 51.4188H229.571C229.607 51.4188 229.635 51.3901 229.635 51.3547V51.1864C229.635 51.151 229.607 51.1223 229.571 51.1223Z" fill="#3F3D56"/>
<path d="M230.562 51.1223H230.195C230.16 51.1223 230.131 51.151 230.131 51.1864V51.3547C230.131 51.3901 230.16 51.4188 230.195 51.4188H230.562C230.598 51.4188 230.627 51.3901 230.627 51.3547V51.1864C230.627 51.151 230.598 51.1223 230.562 51.1223Z" fill="#3F3D56"/>
<path d="M231.554 51.1223H231.187C231.151 51.1223 231.122 51.151 231.122 51.1864V51.3547C231.122 51.3901 231.151 51.4188 231.187 51.4188H231.554C231.589 51.4188 231.618 51.3901 231.618 51.3547V51.1864C231.618 51.151 231.589 51.1223 231.554 51.1223Z" fill="#3F3D56"/>
<path d="M232.545 51.1223H232.178C232.142 51.1223 232.113 51.151 232.113 51.1864V51.3547C232.113 51.3901 232.142 51.4188 232.178 51.4188H232.545C232.58 51.4188 232.609 51.3901 232.609 51.3547V51.1864C232.609 51.151 232.58 51.1223 232.545 51.1223Z" fill="#3F3D56"/>
<path d="M233.536 51.1223H233.169C233.134 51.1223 233.105 51.151 233.105 51.1864V51.3547C233.105 51.3901 233.134 51.4188 233.169 51.4188H233.536C233.572 51.4188 233.6 51.3901 233.6 51.3547V51.1864C233.6 51.151 233.572 51.1223 233.536 51.1223Z" fill="#3F3D56"/>
<path d="M234.527 51.1223H234.16C234.125 51.1223 234.096 51.151 234.096 51.1864V51.3547C234.096 51.3901 234.125 51.4188 234.16 51.4188H234.527C234.563 51.4188 234.592 51.3901 234.592 51.3547V51.1864C234.592 51.151 234.563 51.1223 234.527 51.1223Z" fill="#3F3D56"/>
<path d="M235.518 51.1223H235.151C235.116 51.1223 235.087 51.151 235.087 51.1864V51.3547C235.087 51.3901 235.116 51.4188 235.151 51.4188H235.518C235.554 51.4188 235.583 51.3901 235.583 51.3547V51.1864C235.583 51.151 235.554 51.1223 235.518 51.1223Z" fill="#3F3D56"/>
<path d="M236.51 51.1223H236.143C236.107 51.1223 236.078 51.151 236.078 51.1864V51.3547C236.078 51.3901 236.107 51.4188 236.143 51.4188H236.51C236.545 51.4188 236.574 51.3901 236.574 51.3547V51.1864C236.574 51.151 236.545 51.1223 236.51 51.1223Z" fill="#3F3D56"/>
<path d="M237.501 51.1223H237.134C237.098 51.1223 237.07 51.151 237.07 51.1864V51.3547C237.07 51.3901 237.098 51.4188 237.134 51.4188H237.501C237.536 51.4188 237.565 51.3901 237.565 51.3547V51.1864C237.565 51.151 237.536 51.1223 237.501 51.1223Z" fill="#3F3D56"/>
<path d="M238.492 51.1223H238.125C238.09 51.1223 238.061 51.151 238.061 51.1864V51.3547C238.061 51.3901 238.09 51.4188 238.125 51.4188H238.492C238.528 51.4188 238.556 51.3901 238.556 51.3547V51.1864C238.556 51.151 238.528 51.1223 238.492 51.1223Z" fill="#3F3D56"/>
<path d="M239.483 51.1223H239.116C239.081 51.1223 239.052 51.151 239.052 51.1864V51.3547C239.052 51.3901 239.081 51.4188 239.116 51.4188H239.483C239.519 51.4188 239.548 51.3901 239.548 51.3547V51.1864C239.548 51.151 239.519 51.1223 239.483 51.1223Z" fill="#3F3D56"/>
<path d="M240.475 51.1223H240.108C240.072 51.1223 240.043 51.151 240.043 51.1864V51.3547C240.043 51.3901 240.072 51.4188 240.108 51.4188H240.475C240.51 51.4188 240.539 51.3901 240.539 51.3547V51.1864C240.539 51.151 240.51 51.1223 240.475 51.1223Z" fill="#3F3D56"/>
<path d="M225.595 51.6165H225.228C225.192 51.6165 225.163 51.6452 225.163 51.6806V51.8488C225.163 51.8842 225.192 51.9129 225.228 51.9129H225.595C225.63 51.9129 225.659 51.8842 225.659 51.8488V51.6806C225.659 51.6452 225.63 51.6165 225.595 51.6165Z" fill="#3F3D56"/>
<path d="M226.586 51.6165H226.219C226.183 51.6165 226.154 51.6452 226.154 51.6806V51.8488C226.154 51.8842 226.183 51.9129 226.219 51.9129H226.586C226.621 51.9129 226.65 51.8842 226.65 51.8488V51.6806C226.65 51.6452 226.621 51.6165 226.586 51.6165Z" fill="#3F3D56"/>
<path d="M227.577 51.6165H227.21C227.174 51.6165 227.146 51.6452 227.146 51.6806V51.8488C227.146 51.8842 227.174 51.9129 227.21 51.9129H227.577C227.612 51.9129 227.641 51.8842 227.641 51.8488V51.6806C227.641 51.6452 227.612 51.6165 227.577 51.6165Z" fill="#3F3D56"/>
<path d="M228.568 51.6165H228.201C228.166 51.6165 228.137 51.6452 228.137 51.6806V51.8488C228.137 51.8842 228.166 51.9129 228.201 51.9129H228.568C228.604 51.9129 228.632 51.8842 228.632 51.8488V51.6806C228.632 51.6452 228.604 51.6165 228.568 51.6165Z" fill="#3F3D56"/>
<path d="M229.559 51.6165H229.192C229.157 51.6165 229.128 51.6452 229.128 51.6806V51.8488C229.128 51.8842 229.157 51.9129 229.192 51.9129H229.559C229.595 51.9129 229.624 51.8842 229.624 51.8488V51.6806C229.624 51.6452 229.595 51.6165 229.559 51.6165Z" fill="#3F3D56"/>
<path d="M230.551 51.6165H230.184C230.148 51.6165 230.119 51.6452 230.119 51.6806V51.8488C230.119 51.8842 230.148 51.9129 230.184 51.9129H230.551C230.586 51.9129 230.615 51.8842 230.615 51.8488V51.6806C230.615 51.6452 230.586 51.6165 230.551 51.6165Z" fill="#3F3D56"/>
<path d="M231.542 51.6165H231.175C231.139 51.6165 231.111 51.6452 231.111 51.6806V51.8488C231.111 51.8842 231.139 51.9129 231.175 51.9129H231.542C231.577 51.9129 231.606 51.8842 231.606 51.8488V51.6806C231.606 51.6452 231.577 51.6165 231.542 51.6165Z" fill="#3F3D56"/>
<path d="M232.533 51.6165H232.166C232.131 51.6165 232.102 51.6452 232.102 51.6806V51.8488C232.102 51.8842 232.131 51.9129 232.166 51.9129H232.533C232.569 51.9129 232.597 51.8842 232.597 51.8488V51.6806C232.597 51.6452 232.569 51.6165 232.533 51.6165Z" fill="#3F3D56"/>
<path d="M233.524 51.6165H233.157C233.122 51.6165 233.093 51.6452 233.093 51.6806V51.8488C233.093 51.8842 233.122 51.9129 233.157 51.9129H233.524C233.56 51.9129 233.589 51.8842 233.589 51.8488V51.6806C233.589 51.6452 233.56 51.6165 233.524 51.6165Z" fill="#3F3D56"/>
<path d="M234.515 51.6165H234.149C234.113 51.6165 234.084 51.6452 234.084 51.6806V51.8488C234.084 51.8842 234.113 51.9129 234.149 51.9129H234.515C234.551 51.9129 234.58 51.8842 234.58 51.8488V51.6806C234.58 51.6452 234.551 51.6165 234.515 51.6165Z" fill="#3F3D56"/>
<path d="M235.507 51.6165H235.14C235.104 51.6165 235.075 51.6452 235.075 51.6806V51.8488C235.075 51.8842 235.104 51.9129 235.14 51.9129H235.507C235.542 51.9129 235.571 51.8842 235.571 51.8488V51.6806C235.571 51.6452 235.542 51.6165 235.507 51.6165Z" fill="#3F3D56"/>
<path d="M236.498 51.6165H236.131C236.095 51.6165 236.067 51.6452 236.067 51.6806V51.8488C236.067 51.8842 236.095 51.9129 236.131 51.9129H236.498C236.533 51.9129 236.562 51.8842 236.562 51.8488V51.6806C236.562 51.6452 236.533 51.6165 236.498 51.6165Z" fill="#3F3D56"/>
<path d="M237.489 51.6165H237.122C237.087 51.6165 237.058 51.6452 237.058 51.6806V51.8488C237.058 51.8842 237.087 51.9129 237.122 51.9129H237.489C237.525 51.9129 237.553 51.8842 237.553 51.8488V51.6806C237.553 51.6452 237.525 51.6165 237.489 51.6165Z" fill="#3F3D56"/>
<path d="M238.48 51.6165H238.113C238.078 51.6165 238.049 51.6452 238.049 51.6806V51.8488C238.049 51.8842 238.078 51.9129 238.113 51.9129H238.48C238.516 51.9129 238.545 51.8842 238.545 51.8488V51.6806C238.545 51.6452 238.516 51.6165 238.48 51.6165Z" fill="#3F3D56"/>
<path d="M239.472 51.6165H239.105C239.069 51.6165 239.04 51.6452 239.04 51.6806V51.8488C239.04 51.8842 239.069 51.9129 239.105 51.9129H239.472C239.507 51.9129 239.536 51.8842 239.536 51.8488V51.6806C239.536 51.6452 239.507 51.6165 239.472 51.6165Z" fill="#3F3D56"/>
<path d="M240.463 51.6165H240.096C240.06 51.6165 240.032 51.6452 240.032 51.6806V51.8488C240.032 51.8842 240.06 51.9129 240.096 51.9129H240.463C240.498 51.9129 240.527 51.8842 240.527 51.8488V51.6806C240.527 51.6452 240.498 51.6165 240.463 51.6165Z" fill="#3F3D56"/>
<path d="M233.822 52.2094H229.985C229.95 52.2094 229.921 52.2381 229.921 52.2735V52.4417C229.921 52.4771 229.95 52.5058 229.985 52.5058H233.822C233.857 52.5058 233.886 52.4771 233.886 52.4417V52.2735C233.886 52.2381 233.857 52.2094 233.822 52.2094Z" fill="#3F3D56"/>
<path d="M244.812 28.3318H219.503C219.477 28.3312 219.452 28.3204 219.434 28.3017C219.415 28.2829 219.405 28.2577 219.405 28.2314C219.405 28.2052 219.415 28.18 219.434 28.1612C219.452 28.1425 219.477 28.1316 219.503 28.1311H244.812C244.838 28.1316 244.863 28.1425 244.881 28.1612C244.9 28.18 244.91 28.2052 244.91 28.2314C244.91 28.2577 244.9 28.2829 244.881 28.3017C244.863 28.3204 244.838 28.3312 244.812 28.3318Z" fill="#CACACA"/>
<path d="M221.226 27.6188C221.552 27.6188 221.816 27.3497 221.816 27.0177C221.816 26.6856 221.552 26.4165 221.226 26.4165C220.9 26.4165 220.636 26.6856 220.636 27.0177C220.636 27.3497 220.9 27.6188 221.226 27.6188Z" fill="#3F3D56"/>
<path d="M223.264 27.6188C223.589 27.6188 223.853 27.3497 223.853 27.0177C223.853 26.6856 223.589 26.4165 223.264 26.4165C222.938 26.4165 222.674 26.6856 222.674 27.0177C222.674 27.3497 222.938 27.6188 223.264 27.6188Z" fill="#3F3D56"/>
<path d="M225.301 27.6188C225.627 27.6188 225.891 27.3497 225.891 27.0177C225.891 26.6856 225.627 26.4165 225.301 26.4165C224.975 26.4165 224.711 26.6856 224.711 27.0177C224.711 27.3497 224.975 27.6188 225.301 27.6188Z" fill="#3F3D56"/>
<path d="M243.585 26.5656H242.137C242.109 26.5661 242.081 26.5779 242.061 26.5983C242.041 26.6187 242.03 26.6462 242.03 26.6748C242.03 26.7034 242.041 26.7309 242.061 26.7513C242.081 26.7717 242.109 26.7835 242.137 26.7841H243.585C243.613 26.7835 243.641 26.7717 243.661 26.7513C243.681 26.7309 243.692 26.7034 243.692 26.6748C243.692 26.6462 243.681 26.6187 243.661 26.5983C243.641 26.5779 243.613 26.5661 243.585 26.5656Z" fill="#3F3D56"/>
<path d="M243.585 26.9757H242.137C242.109 26.9763 242.081 26.988 242.061 27.0085C242.041 27.0289 242.03 27.0564 242.03 27.085C242.03 27.1136 242.041 27.141 242.061 27.1615C242.081 27.1819 242.109 27.1937 242.137 27.1942H243.585C243.613 27.1937 243.641 27.1819 243.661 27.1615C243.681 27.141 243.692 27.1136 243.692 27.085C243.692 27.0564 243.681 27.0289 243.661 27.0085C243.641 26.988 243.613 26.9763 243.585 26.9757Z" fill="#3F3D56"/>
<path d="M243.585 27.3853H242.137C242.109 27.3858 242.081 27.3976 242.061 27.418C242.041 27.4384 242.03 27.4659 242.03 27.4945C242.03 27.5231 242.041 27.5506 242.061 27.571C242.081 27.5914 242.109 27.6032 242.137 27.6038H243.585C243.613 27.6032 243.641 27.5914 243.661 27.571C243.681 27.5506 243.692 27.5231 243.692 27.4945C243.692 27.4659 243.681 27.4384 243.661 27.418C243.641 27.3976 243.613 27.3858 243.585 27.3853Z" fill="#3F3D56"/>
<path d="M234.179 34.1938H231.017C230.779 34.1938 230.587 34.3858 230.587 34.6226V34.6226C230.587 34.8595 230.779 35.0514 231.017 35.0514H234.179C234.417 35.0514 234.609 34.8595 234.609 34.6226V34.6226C234.609 34.3858 234.417 34.1938 234.179 34.1938Z" fill="#6C63FF"/>
<path d="M236.222 35.9089H228.974C228.736 35.9089 228.544 36.1009 228.544 36.3377V36.3377C228.544 36.5745 228.736 36.7665 228.974 36.7665H236.222C236.46 36.7665 236.652 36.5745 236.652 36.3377C236.652 36.1009 236.46 35.9089 236.222 35.9089Z" fill="#E6E6E6"/>
<path d="M236.222 37.6241H228.974C228.736 37.6241 228.544 37.8161 228.544 38.0529C228.544 38.2898 228.736 38.4817 228.974 38.4817H236.222C236.46 38.4817 236.652 38.2898 236.652 38.0529C236.652 37.8161 236.46 37.6241 236.222 37.6241Z" fill="#E6E6E6"/>
<path d="M219.75 53.9719H211.845C211.565 53.9719 211.297 54.0826 211.099 54.2797C210.902 54.4768 210.791 54.7441 210.791 55.0228C210.791 55.3015 210.902 55.5688 211.099 55.7659C211.297 55.963 211.565 56.0737 211.845 56.0737H214.744V64.2183H216.852V56.0737H219.75C220.03 56.0737 220.298 55.963 220.496 55.7659C220.693 55.5688 220.805 55.3015 220.805 55.0228C220.805 54.7441 220.693 54.4768 220.496 54.2797C220.298 54.0826 220.03 53.9719 219.75 53.9719Z" fill="#3F3D56"/>
<path d="M224.968 68.7288H203.823C201.773 68.7213 199.794 67.9788 198.248 66.637C196.702 65.2951 195.691 63.4435 195.401 61.4203L194.653 58.6753C193.104 52.9873 190.744 47.5502 187.646 42.5304C186.23 40.2376 185.501 38.0182 187.156 35.8814C187.17 35.8632 187.184 35.8453 187.198 35.8276C188.526 34.1046 195.134 33.7316 197.289 33.6591C197.374 33.6562 197.459 33.6548 197.545 33.6548H210.697C210.783 33.6548 210.868 33.6562 210.953 33.6591C212.115 33.6928 213.245 34.0394 214.225 34.662C215.205 35.2847 215.997 36.1601 216.519 37.1955C217.075 38.2526 217.333 39.44 217.267 40.6318C217.201 41.8236 216.812 42.9753 216.142 43.9646C211.522 50.8836 210.108 55.2221 211.556 58.0316C212.957 60.7492 217.251 62.1387 225.069 62.4041C227.17 62.4754 228.134 64.1065 228.141 65.5918C228.148 67.0387 227.221 68.6363 225.17 68.7245C225.103 68.7273 225.036 68.7288 224.968 68.7288Z" fill="#3F3D56"/>
<path d="M207.415 87.448H215.321C215.6 87.448 215.868 87.3373 216.066 87.1402C216.264 86.9431 216.375 86.6758 216.375 86.3971C216.375 86.1184 216.264 85.8511 216.066 85.654C215.868 85.4569 215.6 85.3462 215.321 85.3462H212.422V67.6122H210.314V85.3462H207.415C207.136 85.3462 206.867 85.4569 206.67 85.654C206.472 85.8511 206.361 86.1184 206.361 86.3971C206.361 86.6758 206.472 86.9431 206.67 87.1402C206.867 87.3373 207.136 87.448 207.415 87.448Z" fill="#3F3D56"/>
<path d="M206.784 34.3131L206.949 35.3171C207.028 35.8039 207.312 39.2429 207.101 39.6532C207.083 38.8872 205.652 37.6828 204.725 37.9578L203.27 38.2801L202.367 38.4804L201.632 38.6411L199.496 39.1062C199.493 39.0815 199.49 39.0553 199.486 39.0306C199.481 38.9994 199.476 38.9683 199.47 38.9374C199.43 38.7377 199.357 38.5459 199.255 38.3697C199.244 38.6057 199.174 38.8352 199.052 39.0374C199.048 39.0426 199.046 39.0482 199.043 39.0539C199.005 39.1151 198.963 39.1738 198.918 39.2296C198.916 39.2311 198.914 39.2328 198.912 39.2348C198.912 39.2348 198.473 32.2607 198.519 32.1964C198.553 32.1506 198.587 32.1062 198.622 32.0627C198.658 32.018 198.692 31.9748 198.728 31.9311C198.733 31.927 198.737 31.9221 198.74 31.9167C198.843 31.7952 198.952 31.679 199.067 31.5684C199.101 31.5361 199.136 31.5035 199.171 31.4709C199.705 30.978 200.343 30.6109 201.039 30.3965C201.117 30.3725 201.199 30.3505 201.282 30.3282C201.363 30.3075 201.447 30.2878 201.531 30.2707L201.559 30.2649C201.599 30.2567 201.641 30.2496 201.681 30.2427C201.732 30.2337 201.782 30.226 201.832 30.2199C202.479 30.127 203.139 30.1639 203.771 30.3285C203.772 30.3283 203.773 30.3296 203.774 30.3293C204.302 30.4669 204.804 30.6897 205.26 30.9889C206.048 31.5079 206.355 32.3544 206.573 33.3049C206.649 33.6312 206.713 33.9707 206.784 34.3131Z" fill="#2F2E41"/>
<path d="M214.57 80.2985L215.932 81.0361L219.538 76.0664L217.527 74.9779L214.57 80.2985Z" fill="#FFB6B6"/>
<path d="M215.226 78.5277L217.698 79.2996L217.305 80.3322L219 82.7854C219.084 82.9065 219.127 83.0512 219.122 83.1983C219.118 83.3453 219.066 83.4871 218.975 83.6029C218.884 83.7186 218.758 83.8023 218.616 83.8417C218.474 83.8812 218.322 83.8742 218.184 83.822L215.306 82.7318L215.199 81.5224L214.617 82.4705L213.531 82.0595L215.226 78.5277Z" fill="#2F2E41"/>
<path d="M222.285 58.0704C222.067 58.1232 221.841 58.1278 221.622 58.0839C221.402 58.0401 221.195 57.9488 221.015 57.8165C220.835 57.6842 220.686 57.5142 220.579 57.3183C220.472 57.1225 220.409 56.9056 220.395 56.683L208.779 52.5167L210.911 50.6671L221.936 55.0437C222.313 55.0452 222.676 55.1843 222.957 55.4348C223.237 55.6853 223.416 56.0297 223.459 56.4028C223.502 56.7759 223.406 57.1517 223.19 57.4591C222.973 57.7664 222.651 57.9839 222.285 58.0704Z" fill="#FFB6B6"/>
<path d="M205.534 42.1951C205.534 42.1951 203.578 42.238 203.404 44.4649C203.23 46.6917 207.499 52.1998 208.16 53.1081C208.821 54.0165 216.168 55.1344 216.168 55.1344L218.665 53.3269C216.041 51.6316 213.646 50.3318 212.039 50.3903L205.534 42.1951Z" fill="#6C63FF"/>
<path d="M203.134 52.0207L203.611 54.0629C203.611 54.0629 203.616 55.946 203.95 56.2932C204.283 56.6388 211.587 55.9449 211.587 55.9449C211.587 55.9449 210.812 52.9104 210.823 50.6144L203.134 52.0207Z" fill="#FFB6B6"/>
<path d="M218.565 78.1428L215.929 76.6978C215.879 73.2791 217.942 68.6526 220.388 63.8068C214.917 64.7449 209.756 65.0454 205.291 63.9106C204.558 63.7176 203.931 63.2449 203.545 62.5945C203.159 61.9442 203.045 61.1684 203.227 60.435C203.245 60.363 203.265 60.2917 203.288 60.2212C203.822 58.596 202.624 57.5772 203.726 55.7896C206.624 54.8027 209.377 54.5241 211.895 55.3955L213.472 58.8729L221.291 57.8641C221.669 57.8191 222.052 57.849 222.418 57.9523C222.784 58.0555 223.126 58.2299 223.425 58.4655C223.723 58.7011 223.971 58.9932 224.156 59.325C224.34 59.6567 224.457 60.0216 224.499 60.3986C224.51 60.4832 224.516 60.5682 224.52 60.6535C222.939 68.043 221.166 74.6921 218.565 78.1428Z" fill="#2F2E41"/>
<path d="M203.497 37.9087C205.265 37.5479 206.405 35.8262 206.043 34.0631C205.682 32.3001 203.955 31.1633 202.186 31.524C200.418 31.8848 199.278 33.6065 199.639 35.3696C200.001 37.1327 201.728 38.2695 203.497 37.9087Z" fill="#FFB6B6"/>
<path d="M202.073 39.0916L205.085 38.9143C205.212 38.9068 205.339 38.939 205.446 39.0064C205.554 39.0738 205.638 39.1731 205.687 39.2904L206.538 41.3478L210.076 44.263C210.076 44.263 211.476 46.0401 211.48 48.3351C211.483 50.6302 211.977 55.9423 211.977 55.9423C211.977 55.9423 209.932 53.0735 208.671 53.8365C208.456 53.9664 208.38 54.2318 208.156 54.366C208.043 54.4329 207.784 54.3678 207.671 54.4349C205.932 55.4639 204.119 56.4692 203.95 56.293C203.617 55.9469 203.213 54.1783 203.213 54.1783L200.456 44.0782C200.307 43.5468 200.277 42.9889 200.369 42.4447C200.461 41.9005 200.673 41.3834 200.99 40.9305C201.182 40.6601 201.384 40.4589 201.572 40.4257C201.993 40.3363 201.769 39.3953 202.073 39.0916Z" fill="#6C63FF"/>
<path d="M227.696 84.5768L228.968 83.6955L226.088 78.2776L224.211 79.5783L227.696 84.5768Z" fill="#FFB6B6"/>
<path d="M227.889 80.9416L225.896 82.7174C222.727 79.1974 220.332 74.2607 218.302 68.6546C212.984 67.1016 208.973 64.597 205.471 61.6232C204.283 60.6211 203.393 59.3337 204.406 58.113C204.453 58.0559 204.503 58.0007 204.554 57.9474C205.75 56.7218 208.784 56.9554 210.56 55.8325L214.529 60.0619L214.28 61.1958L221.734 63.7134C222.093 63.8387 222.423 64.0336 222.706 64.2868C222.989 64.54 223.218 64.8465 223.382 65.1887C223.545 65.5308 223.639 65.9019 223.658 66.2803C223.676 66.6588 223.62 67.0372 223.491 67.3938C223.463 67.4744 223.432 67.5537 223.397 67.6317L227.889 80.9416Z" fill="#2F2E41"/>
<path d="M206.521 64.5456C206.315 64.4585 206.131 64.3274 205.981 64.1616C205.832 63.9957 205.72 63.7992 205.655 63.5859C205.59 63.3725 205.572 63.1475 205.604 62.9266C205.635 62.7058 205.715 62.4945 205.837 62.3077L199.018 52.048L201.836 51.8345L208.055 61.9109C208.357 62.1364 208.564 62.4642 208.639 62.8322C208.714 63.2003 208.651 63.5829 208.462 63.9077C208.273 64.2324 207.971 64.4768 207.613 64.5943C207.255 64.7119 206.867 64.6946 206.521 64.5456Z" fill="#FFB6B6"/>
<path d="M202.6 41.8379C202.6 41.8379 201.006 40.7071 199.532 42.3894C198.058 44.0716 198.181 51.0313 198.167 52.1537C198.163 52.5051 198.672 53.2635 199.373 54.1394C199.688 54.5327 200.042 54.9497 200.405 55.3641C200.615 55.604 200.434 56.1032 200.645 56.3364C200.855 56.5682 201.457 56.534 201.657 56.7492C202.605 57.7706 203.375 58.5481 203.375 58.5481L206.461 58.5859C206.496 56.2989 204.925 54.2574 202.907 52.2844L202.6 41.8379Z" fill="#6C63FF"/>
<path d="M206.926 33.1336C206.805 33.1931 206.688 33.2506 206.573 33.3049C206.11 33.5316 205.632 33.7254 205.143 33.885C205.061 33.664 204.937 33.4611 204.777 33.2879C204.818 33.527 204.797 33.7727 204.716 34.0015C203.974 34.1846 203.196 34.1547 202.471 33.9151C202.945 34.7905 203.296 36.6351 203.27 38.2802C203.259 39.15 203.141 39.9638 202.883 40.5487L202.552 39.5437C202.521 39.1846 202.459 38.8289 202.367 38.4805C202.145 37.5027 201.937 38.1565 201.632 38.6411L199.496 39.1063C199.493 39.0816 199.49 39.0554 199.486 39.0306C199.481 38.9995 199.476 38.9683 199.47 38.9374C199.43 38.7377 199.357 38.546 199.255 38.3698C199.244 38.6058 199.174 38.8353 199.052 39.0374C199.048 39.0427 199.046 39.0482 199.043 39.054C199.005 39.1152 198.963 39.1739 198.918 39.2297C198.916 39.2312 198.914 39.2329 198.912 39.2349C197.533 39.4188 196.567 32.3297 198.52 32.1977C198.576 32.1939 198.587 32.1075 198.622 32.0628C198.658 32.0181 198.692 31.9749 198.728 31.9312C198.733 31.9271 198.737 31.9222 198.74 31.9167C198.845 31.7962 198.953 31.6803 199.067 31.5685C199.101 31.5362 199.136 31.5035 199.171 31.4709C199.707 30.9805 200.345 30.6141 201.039 30.3979C201.117 30.3738 201.199 30.3506 201.282 30.3283C201.363 30.3076 201.447 30.2879 201.531 30.2708L201.559 30.265C201.599 30.2568 201.641 30.2497 201.681 30.2428C201.732 30.2338 201.782 30.2261 201.832 30.22C202.019 30.314 202.18 30.4539 202.298 30.6265L203.662 30.3482C203.698 30.3408 203.735 30.3347 203.771 30.3299L203.774 30.3294C205.477 30.0449 206.573 31.4103 206.926 33.1336Z" fill="#2F2E41"/>
<path d="M199.49 31.8802C199.198 32.0904 198.89 32.307 198.534 32.3591C198.177 32.4112 197.76 32.2394 197.661 31.8939C197.541 31.4715 197.923 31.0868 198.267 30.8123L199.358 29.9417C199.557 29.7652 199.783 29.6199 200.026 29.5108C200.148 29.4571 200.281 29.4316 200.415 29.436C200.548 29.4405 200.679 29.4748 200.798 29.5365C200.915 29.6154 201.01 29.7229 201.073 29.8488C201.137 29.9746 201.168 30.1146 201.162 30.2555C201.146 30.5378 201.053 30.8104 200.892 31.0431C200.689 31.3577 200.425 31.6282 200.115 31.8383C199.805 32.0484 199.455 32.1938 199.088 32.2657" fill="#2F2E41"/>
<path d="M207.76 54.4973H199.855C199.575 54.4973 199.307 54.608 199.109 54.8051C198.912 55.0022 198.801 55.2695 198.801 55.5482C198.801 55.8269 198.912 56.0942 199.109 56.2913C199.307 56.4884 199.575 56.5991 199.855 56.5991H202.753V64.7436H204.862V56.5991H207.76C208.04 56.5991 208.308 56.4884 208.506 56.2913C208.703 56.0942 208.814 55.8269 208.814 55.5482C208.814 55.2695 208.703 55.0022 208.506 54.8051C208.308 54.608 208.04 54.4973 207.76 54.4973Z" fill="#3F3D56"/>
<path d="M253.79 70.3812L255.077 71.7795L261.099 67.496L259.2 65.4323L253.79 70.3812Z" fill="#A0616A"/>
<path d="M256.454 72.36V72.3587L256.323 70.9623L256.264 70.9347L255.917 70.7705L254.282 69.9994L254.248 69.9627L253.92 69.6053L252.103 71.2684L254.564 73.943L256.252 75.7768L256.309 75.7242C256.54 75.513 256.727 75.2583 256.86 74.9748C256.992 74.6913 257.067 74.3846 257.081 74.0721C257.094 73.7596 257.046 73.4476 256.938 73.1538C256.831 72.86 256.666 72.5903 256.454 72.36Z" fill="#2F2E41"/>
<path d="M247.123 84.3299L248.944 84.8815L251.945 78.1402L249.256 77.3262L247.123 84.3299Z" fill="#A0616A"/>
<path d="M262.141 49.0336C262.141 49.0336 273.769 60.2267 266.418 63.6913H264.146C264.146 63.6913 263.463 61.2729 261.9 59.2335C261.685 58.9534 260.881 59.0103 260.657 58.7374C259.294 57.0707 257.815 55.6394 256.794 55.6963L257.039 63.43L257.434 66.1886C257.642 67.6147 251.784 80.0662 251.784 80.0662L248.102 78.6236C248.102 78.6236 251.938 68.3679 251.983 66.8894L248.909 50.6326L262.141 49.0336Z" fill="#2F2E41"/>
<path d="M263.11 49.5856C263.051 49.6699 262.974 49.7399 262.884 49.7905C262.735 49.874 262.575 49.9335 262.408 49.9666C259.79 50.559 251.237 51.7873 249.017 51.2014C248.744 51.1304 248.567 51.0306 248.509 50.8992C248.323 50.4841 248.346 48.7304 248.456 46.6129C248.476 46.2161 248.914 45.7866 248.941 45.3715C248.959 45.0601 248.565 44.7672 248.586 44.4506C248.731 42.3094 248.918 40.1275 249.043 38.7481C249.123 37.8614 249.177 37.3071 249.177 37.3071L247.826 28.8171L247.889 28.7133L247.96 28.6778L252.315 26.5287L252.552 25.9245C252.621 25.7505 252.74 25.601 252.895 25.4954C253.05 25.3898 253.233 25.3329 253.421 25.332L256.289 25.3202C256.438 25.3194 256.585 25.354 256.717 25.4212C256.85 25.4883 256.965 25.5861 257.052 25.7064L257.829 26.7796L262.968 30.0637L262.948 30.1241L260.537 37.4398L260.525 38.0099V38.0112L260.435 42.5958L260.685 43.2171L260.404 44.2365C260.404 44.2365 260.533 45.428 261.225 46.3133C261.852 47.1173 262.65 47.9554 263.011 48.6358V48.6372C263.212 49.0129 263.279 49.3386 263.11 49.5856Z" fill="#6C63FF"/>
<path d="M266.976 63.0264L266.354 63.8094C266.354 63.8094 260.638 67.7965 260.442 68.1691L259.538 69.0214L257.353 66.6918L258.489 65.2714C259.399 64.1346 260.574 63.2375 261.912 62.6586L263.654 61.1177L266.976 63.0264Z" fill="#2F2E41"/>
<path d="M263.344 51.836L262.303 41.7906L262.028 37.6562L264.942 37.131C264.942 37.131 264.826 40.0872 265.208 41.7551C265.585 43.4009 265.258 51.6154 265.235 51.8351C265.449 52.0258 265.599 52.2768 265.667 52.5549C265.735 52.833 265.716 53.1251 265.614 53.3924C265.512 53.6598 265.33 53.8899 265.094 54.0523C264.858 54.2147 264.577 54.3017 264.29 54.3018C264.003 54.3019 263.723 54.2152 263.486 54.053C263.25 53.8909 263.068 53.661 262.966 53.3937C262.863 53.1264 262.844 52.8344 262.912 52.5562C262.979 52.2781 263.13 52.0269 263.344 51.836Z" fill="#A0616A"/>
<path d="M266.186 43.8723L262.441 44.6451L262.113 43.3436L261.732 42.9398L260.969 38.9565L259.875 36.6231L260.159 28.6436L262.938 30.1132L262.942 30.1158C263.367 30.5758 263.66 31.2343 264.147 31.895C265.682 33.9769 265.852 39.0359 265.806 41.8069C265.805 41.8524 265.851 41.9004 265.906 41.9509C266.167 42.1901 266.338 42.5119 266.389 42.8619C266.44 43.212 266.368 43.5689 266.186 43.8723Z" fill="#6C63FF"/>
<path d="M246.386 52.2301L247.427 42.1847L247.701 38.0504L244.788 37.5251C244.788 37.5251 244.903 40.4813 244.521 42.1492C244.145 43.7951 244.471 52.0096 244.495 52.2292C244.281 52.42 244.13 52.671 244.062 52.9491C243.994 53.2272 244.013 53.5192 244.115 53.7866C244.218 54.054 244.399 54.2841 244.635 54.4464C244.872 54.6088 245.152 54.6958 245.439 54.696C245.726 54.6961 246.006 54.6094 246.243 54.4472C246.479 54.2851 246.661 54.0551 246.764 53.7879C246.866 53.5206 246.885 53.2286 246.817 52.9504C246.75 52.6723 246.599 52.4211 246.386 52.2301Z" fill="#A0616A"/>
<path d="M249.855 37.0168L249.043 38.7482L248.76 39.3511L247.997 43.334L247.617 43.7373L247.288 45.0391L247.134 45.0076L244.354 44.4336L243.544 44.2667C243.361 43.9633 243.289 43.6064 243.34 43.2562C243.391 42.906 243.562 42.5841 243.823 42.3449C243.878 42.295 243.925 42.2464 243.923 42.2004C243.877 39.4299 244.047 34.3711 245.582 32.289C246.07 31.6283 246.362 30.9701 246.788 30.5104C246.789 30.5091 246.789 30.5077 246.79 30.5077L247.826 28.8171L247.889 28.7133L247.96 28.6779L249.855 37.0168Z" fill="#6C63FF"/>
<path d="M254.772 24.5062C256.88 24.5062 258.589 22.8026 258.589 20.7011C258.589 18.5997 256.88 16.8961 254.772 16.8961C252.664 16.8961 250.955 18.5997 250.955 20.7011C250.955 22.8026 252.664 24.5062 254.772 24.5062Z" fill="#A0616A"/>
<path d="M259.063 19.0319C259.049 18.3829 258.976 17.5527 258.52 16.8907C258.135 16.3337 257.359 15.8923 256.636 16.113C256.644 15.9688 256.611 15.8251 256.543 15.6981C256.474 15.571 256.371 15.4654 256.246 15.3931C255.971 15.2263 255.642 15.1961 255.351 15.1685C254.617 15.1002 253.857 15.0292 253.114 15.1698C252.28 15.3274 251.597 15.7557 251.243 16.3455L251.235 16.3639L251.162 16.7133C251.153 16.7602 251.133 16.8044 251.104 16.8429C251.076 16.8815 251.039 16.9134 250.997 16.9366C250.955 16.9601 250.909 16.9741 250.861 16.9775C250.813 16.9809 250.764 16.9737 250.719 16.9563C250.67 16.9379 250.617 16.9327 250.565 16.941C250.513 16.9494 250.465 16.9711 250.424 17.004C250.383 17.0369 250.351 17.0799 250.332 17.1286C250.313 17.1774 250.307 17.2303 250.315 17.2821L250.335 17.4214L250.125 17.382C250.073 17.3718 250.018 17.3758 249.968 17.3936C249.917 17.4114 249.872 17.4423 249.838 17.4832C249.803 17.524 249.78 17.5733 249.771 17.6259C249.762 17.6786 249.768 17.7327 249.787 17.7826L249.845 17.9416C249.801 17.9421 249.759 17.9514 249.719 17.9688C249.679 17.9861 249.644 18.0113 249.614 18.0427C249.572 18.0885 249.545 18.1465 249.538 18.2084C249.531 18.2702 249.544 18.3327 249.574 18.3869C249.809 18.7865 250.142 19.1201 250.542 19.3563C250.721 19.4642 250.915 19.5469 251.117 19.602C251.16 19.6138 251.203 19.6243 251.248 19.6335C252.866 19.9811 254.533 20.031 256.169 19.7806C256.073 20.1024 256.036 20.4388 256.06 20.7738C256.112 21.1928 256.359 21.5383 256.688 21.6539C256.763 21.6791 256.84 21.6975 256.917 21.7091C256.992 21.7211 257.066 21.7391 257.138 21.7629C257.243 21.8016 257.337 21.8675 257.41 21.954C257.482 22.0405 257.53 22.1444 257.549 22.2553C257.568 22.3662 257.557 22.4802 257.518 22.5856C257.478 22.6911 257.412 22.7843 257.325 22.8559C257.325 22.8559 257.67 23.1409 257.713 23.1265C257.883 23.0517 258.025 22.9259 258.119 22.7665C258.777 21.8233 259.094 20.5675 259.063 19.0319Z" fill="#2F2E41"/>
</g>
<defs>
<clipPath id="clip0_84_2">
<rect width="102" height="88" fill="white" transform="translate(179)"/>
</clipPath>
</defs>
</svg>
