<svg width="135" height="92" viewBox="0 0 135 92" fill="none" xmlns="http://www.w3.org/2000/svg">
<g clip-path="url(#clip0_8_49)">
<path d="M80.9715 27.0573C88.3689 27.0573 94.3656 21.0582 94.3656 13.658C94.3656 6.25779 88.3689 0.258728 80.9715 0.258728C73.5741 0.258728 67.5773 6.25779 67.5773 13.658C67.5773 21.0582 73.5741 27.0573 80.9715 27.0573Z" fill="white"/>
<path d="M65.7545 93.6485C73.9778 93.6485 80.6442 92.2573 80.6442 90.5411C80.6442 88.8249 73.9778 87.4337 65.7545 87.4337C57.5312 87.4337 50.8648 88.8249 50.8648 90.5411C50.8648 92.2573 57.5312 93.6485 65.7545 93.6485Z" fill="#F2F2F2"/>
<path d="M80.8805 20.3337C67.2313 20.3325 56.5396 17.8571 56.5399 14.6982C56.5401 12.8043 60.3287 11.1149 66.9343 10.0632C66.9579 10.0593 66.982 10.06 67.0052 10.0654C67.0284 10.0707 67.0504 10.0806 67.0698 10.0945C67.0892 10.1083 67.1058 10.1259 67.1184 10.1461C67.1311 10.1663 67.1396 10.1889 67.1435 10.2124C67.1475 10.2359 67.1467 10.26 67.1414 10.2833C67.136 10.3065 67.1261 10.3285 67.1123 10.3479C67.0984 10.3674 67.0809 10.3839 67.0607 10.3965C67.0405 10.4092 67.0179 10.4177 66.9944 10.4217L66.9937 10.4218L66.9914 10.4221C60.7689 11.4129 56.9034 13.0514 56.9032 14.6982C56.903 17.5548 67.8832 19.9691 80.8805 19.9702C93.8779 19.9714 104.859 17.5591 104.859 14.7025C104.859 13.0488 100.969 11.4056 94.7069 10.4144C94.6832 10.4108 94.6605 10.4026 94.6401 10.3903C94.6196 10.3779 94.6018 10.3616 94.5877 10.3424C94.5735 10.3232 94.5633 10.3013 94.5576 10.2781C94.5519 10.2549 94.5508 10.2308 94.5544 10.2072C94.558 10.1835 94.5662 10.1609 94.5786 10.1404C94.591 10.12 94.6073 10.1022 94.6266 10.0881C94.6458 10.0739 94.6677 10.0638 94.6909 10.0581C94.7141 10.0524 94.7382 10.0514 94.7618 10.0551L94.7624 10.0552L94.7637 10.0554C101.41 11.1075 105.222 12.8013 105.222 14.7026C105.222 17.8615 94.5297 20.3349 80.8805 20.3337Z" fill="#3F3D56"/>
<path d="M81.8533 18.1691C70.0917 25.0973 59.6233 28.3922 58.0211 25.6702C57.0605 24.0382 59.468 20.6591 64.6264 16.3995C64.6447 16.3841 64.6658 16.3725 64.6885 16.3653C64.7113 16.3582 64.7352 16.3555 64.759 16.3576C64.7827 16.3597 64.8059 16.3664 64.827 16.3774C64.8482 16.3884 64.867 16.4035 64.8823 16.4218C64.8977 16.4401 64.9092 16.4612 64.9164 16.4839C64.9236 16.5067 64.9262 16.5307 64.9242 16.5544C64.9221 16.5782 64.9153 16.6013 64.9043 16.6225C64.8933 16.6437 64.8783 16.6625 64.86 16.6778L64.8595 16.6783L64.8577 16.6797C59.9985 20.6924 57.4989 24.0667 58.3341 25.4858C59.783 27.9473 70.469 24.4533 81.669 17.8559C92.869 11.2586 101.107 3.60542 99.6581 1.14388C98.8193 -0.281182 94.6339 0.277765 88.7352 2.60274C88.713 2.6116 88.6893 2.61601 88.6655 2.61572C88.6416 2.61543 88.618 2.61044 88.5961 2.60103C88.5742 2.59163 88.5543 2.578 88.5377 2.56092C88.521 2.54384 88.5079 2.52364 88.499 2.50148C88.4902 2.47932 88.4858 2.45563 88.486 2.43177C88.4863 2.4079 88.4913 2.38433 88.5007 2.3624C88.5101 2.34046 88.5238 2.32059 88.5408 2.30393C88.5579 2.28726 88.5781 2.27412 88.6002 2.26526L88.6008 2.26504L88.602 2.26456C94.8629 -0.203156 99.0068 -0.678848 99.9711 0.959462C101.573 3.68152 93.615 11.2409 81.8533 18.1691Z" fill="#3F3D56"/>
<path d="M66.1759 92.1895C71.7543 92.1895 76.2765 91.4395 76.2765 90.5144C76.2765 89.5893 71.7543 88.8394 66.1759 88.8394C60.5975 88.8394 56.0753 89.5893 56.0753 90.5144C56.0753 91.4395 60.5975 92.1895 66.1759 92.1895Z" fill="#E6E6E6"/>
<path d="M3.49698 58.8582C4.19923 58.8582 4.76853 58.2887 4.76853 57.5862C4.76853 56.8837 4.19923 56.3141 3.49698 56.3141C2.79472 56.3141 2.22543 56.8837 2.22543 57.5862C2.22543 58.2887 2.79472 58.8582 3.49698 58.8582Z" fill="white"/>
<path d="M92.5055 77.3936C93.2078 77.3936 93.7771 76.8241 93.7771 76.1216C93.7771 75.4191 93.2078 74.8495 92.5055 74.8495C91.8033 74.8495 91.234 75.4191 91.234 76.1216C91.234 76.8241 91.8033 77.3936 92.5055 77.3936Z" fill="white"/>
<path d="M49.0789 35.431C52.166 36.3123 52.0474 38.1568 55.7091 38.1568C59.3709 38.1568 62.3394 38.6425 62.3394 35.431C62.3394 32.2194 60.8819 26.2493 55.7091 26.5267C50.1417 26.8253 47.2073 34.8967 49.0789 35.431Z" fill="#2F2E41"/>
<path d="M40.9545 62.6259C40.8217 62.3733 40.7458 62.0947 40.7323 61.8096C40.7188 61.5245 40.7679 61.24 40.8762 60.9759C40.9844 60.7119 41.1493 60.4748 41.3591 60.2814C41.5689 60.088 41.8185 59.943 42.0904 59.8565L49.6863 43.7818L53.1609 46.2192L44.6018 61.2537C44.7167 61.7202 44.6565 62.2127 44.4327 62.6379C44.2089 63.063 43.837 63.3912 43.3874 63.5604C42.9378 63.7295 42.4419 63.7278 41.9935 63.5556C41.5451 63.3833 41.1754 63.0526 40.9545 62.6259Z" fill="#FFB8B8"/>
<path d="M47.4634 45.916C47.4272 45.7955 47.4175 45.6686 47.4348 45.5441C47.4521 45.4195 47.4961 45.3001 47.5637 45.194L49.9254 41.4902C50.1879 40.9026 50.6726 40.4431 51.2732 40.2125C51.8738 39.9818 52.5414 39.9989 53.1294 40.2599C53.7175 40.5209 54.1781 41.0045 54.4103 41.6048C54.6424 42.205 54.6272 42.8729 54.3678 43.4619L53.1782 47.7056C53.1442 47.8267 53.0846 47.9391 53.0033 48.035C52.922 48.131 52.821 48.2083 52.7071 48.2617C52.5933 48.3151 52.4693 48.3433 52.3436 48.3445C52.2178 48.3456 52.0933 48.3196 51.9785 48.2683L47.9444 46.4636C47.8295 46.4123 47.7271 46.3368 47.6441 46.2423C47.5611 46.1478 47.4995 46.0365 47.4634 45.916Z" fill="white"/>
<path d="M68.5368 93.6901L66.4442 94.4524L62.5095 86.7406L65.5979 85.6155L68.5368 93.6901Z" fill="#FFB8B8"/>
<path d="M62.8241 88.812L54.852 74.8556C54.775 74.7206 54.7353 74.5675 54.7369 74.412C54.7386 74.2566 54.7815 74.1043 54.8614 73.971L58.4513 67.9857C58.5364 67.8437 58.66 67.7288 58.8078 67.6543C58.9556 67.5798 59.1215 67.5487 59.2862 67.5647C59.4509 67.5807 59.6077 67.6431 59.7384 67.7447C59.8691 67.8463 59.9683 67.9829 60.0245 68.1386L66.8116 86.9408C66.8863 87.1455 66.8817 87.3707 66.7987 87.5721C66.7157 87.7736 66.5604 87.9366 66.3632 88.0292L63.9583 89.1688C63.8422 89.2237 63.7154 89.2522 63.587 89.2522C63.4324 89.2524 63.2804 89.2118 63.1465 89.1346C63.0125 89.0573 62.9013 88.946 62.8241 88.812Z" fill="#2F2E41"/>
<path d="M55.4262 37.9825C57.8902 37.9825 59.8877 35.9842 59.8877 33.5193C59.8877 31.0543 57.8902 29.056 55.4262 29.056C52.9622 29.056 50.9647 31.0543 50.9647 33.5193C50.9647 35.9842 52.9622 37.9825 55.4262 37.9825Z" fill="#FFB8B8"/>
<path d="M49.0802 53.7358C45.5667 45.9421 49.1088 41.5862 50.7948 40.0753C51.2804 39.6395 51.9099 39.3986 52.5623 39.399H58.8472C59.2986 39.399 59.7424 39.5144 60.1366 39.7343C60.5308 39.9542 60.8623 40.2712 61.0996 40.6552C61.3369 41.0393 61.4721 41.4777 61.4924 41.9287C61.5127 42.3798 61.4174 42.8285 61.2155 43.2324L57.014 51.6385L49.1144 53.8117L49.0802 53.7358Z" fill="white"/>
<path d="M54.1612 95.7975L51.9342 95.7973L50.8748 87.2042L54.1616 87.2043L54.1612 95.7975Z" fill="#FFB8B8"/>
<path d="M53.2176 92.5169L49.6521 92.1055C49.4215 92.0788 49.211 91.9616 49.0668 91.7797C48.9226 91.5977 48.8565 91.366 48.8832 91.1353C48.8837 91.1304 48.8843 91.1255 48.885 91.1206L52.0672 67.1518C52.0783 67.0683 52.0738 66.9835 52.0539 66.9016L48.8555 53.7006C48.8253 53.5789 48.8218 53.452 48.8455 53.3288C48.8691 53.2056 48.9193 53.0891 48.9924 52.9872C49.4884 52.3031 51.1878 50.709 56.2429 50.6788H56.2483C56.4167 50.6789 56.5815 50.7273 56.7231 50.8183C56.8647 50.9094 56.9771 51.0393 57.0471 51.1925L57.7214 52.6764C57.7716 52.7866 57.8501 52.8814 57.9489 52.9513C58.8771 53.6085 63.3734 57.2976 60.7332 65.397C58.1384 73.3576 54.8138 88.8124 54.1736 91.8297C54.1328 92.0258 54.0256 92.2018 53.8702 92.3281C53.7148 92.4543 53.5205 92.5231 53.3203 92.5228C53.286 92.5228 53.2517 92.5209 53.2176 92.5169Z" fill="#2F2E41"/>
<path d="M70.9536 34.6395C70.9623 34.7396 70.9788 34.839 71.0031 34.9366L64.9456 41.6071L62.8062 41.1458L61.6883 44.2848L65.3964 45.4696C65.696 45.5653 66.0185 45.5612 66.3155 45.458C66.6126 45.3547 66.8681 45.1578 67.0438 44.8969L72.7696 36.3933C73.1564 36.4105 73.5393 36.3095 73.8674 36.1037C74.1954 35.8979 74.4531 35.597 74.606 35.2412C74.759 34.8853 74.8001 34.4913 74.7237 34.1115C74.6474 33.7318 74.4573 33.3843 74.1787 33.1152C73.9001 32.8462 73.5462 32.6684 73.1642 32.6054C72.7821 32.5425 72.3899 32.5974 72.0398 32.7629C71.6897 32.9283 71.3983 33.1965 71.2042 33.5317C71.0102 33.867 70.9228 34.2533 70.9536 34.6395Z" fill="#FFB8B8"/>
<path d="M64.7622 41.8898L63.3579 45.7736C63.3179 45.8841 63.2546 45.9847 63.1723 46.0685C63.09 46.1523 62.9906 46.2174 62.8808 46.2593C62.7711 46.3012 62.6536 46.319 62.5364 46.3114C62.4192 46.3038 62.305 46.2711 62.2015 46.2153L58.578 44.2624C58.0139 44.0547 57.5552 43.6317 57.3024 43.0862C57.0496 42.5407 57.0234 41.9171 57.2295 41.3523C57.4356 40.7875 57.8572 40.3274 58.4019 40.0731C58.9466 39.8188 59.5698 39.791 60.135 39.9957L64.156 40.8102C64.2711 40.8336 64.3799 40.8815 64.4748 40.9507C64.5698 41.0199 64.6487 41.1087 64.7062 41.2112C64.7638 41.3136 64.7985 41.4273 64.8082 41.5444C64.8179 41.6615 64.8022 41.7793 64.7622 41.8898Z" fill="white"/>
<path d="M60.8862 33.2503H59.1216L58.3431 31.0697L58.1874 33.2503H57.344L56.8899 31.9783L56.7991 33.2503C54.592 34.182 52.4997 34.2077 50.5321 33.2503C50.5321 31.9973 51.0297 30.7955 51.9154 29.9095C52.8012 29.0234 54.0024 28.5256 55.255 28.5256H56.1633C57.4159 28.5256 58.6172 29.0234 59.5029 29.9095C60.3886 30.7955 60.8862 31.9973 60.8862 33.2503Z" fill="#2F2E41"/>
<path d="M13.7602 79.9377H13.1244V79.3017C13.1244 79.0848 13.0383 78.8768 12.885 78.7235C12.7317 78.5701 12.5238 78.4839 12.307 78.4839C12.0902 78.4839 11.8823 78.5701 11.729 78.7235C11.5757 78.8768 11.4896 79.0848 11.4896 79.3017V79.9377H10.8538C10.637 79.9377 10.4291 80.0239 10.2758 80.1772C10.1225 80.3306 10.0364 80.5386 10.0364 80.7554C10.0364 80.9723 10.1225 81.1803 10.2758 81.3337C10.4291 81.487 10.637 81.5732 10.8538 81.5732H11.4896V82.2092C11.4896 82.4261 11.5757 82.6341 11.729 82.7874C11.8823 82.9408 12.0902 83.0269 12.307 83.0269C12.5238 83.0269 12.7317 82.9408 12.885 82.7874C13.0383 82.6341 13.1244 82.4261 13.1244 82.2092V81.5732H13.7602C13.977 81.5732 14.1849 81.487 14.3382 81.3337C14.4915 81.1803 14.5776 80.9723 14.5776 80.7554C14.5776 80.5386 14.4915 80.3306 14.3382 80.1772C14.1849 80.0239 13.977 79.9377 13.7602 79.9377Z" fill="white"/>
<path d="M107.339 64.3389H107.008V64.0082C107.008 63.8954 106.964 63.7872 106.884 63.7075C106.804 63.6278 106.696 63.5829 106.583 63.5829C106.471 63.5829 106.363 63.6278 106.283 63.7075C106.203 63.7872 106.158 63.8954 106.158 64.0082V64.3389H105.828C105.715 64.3389 105.607 64.3837 105.527 64.4634C105.447 64.5432 105.403 64.6513 105.403 64.7641C105.403 64.8769 105.447 64.9851 105.527 65.0648C105.607 65.1445 105.715 65.1893 105.828 65.1893H106.158V65.5201C106.158 65.6329 106.203 65.741 106.283 65.8208C106.363 65.9005 106.471 65.9453 106.583 65.9453C106.696 65.9453 106.804 65.9005 106.884 65.8208C106.964 65.741 107.008 65.6329 107.008 65.5201V65.1893H107.339C107.452 65.1895 107.56 65.1449 107.64 65.0653C107.72 64.9857 107.765 64.8776 107.765 64.7649C107.765 64.6521 107.72 64.5439 107.641 64.464C107.561 64.3841 107.453 64.3391 107.341 64.3389H107.339Z" fill="#FF6584"/>
<path d="M10.8829 42.3509H10.5523V42.0201C10.5525 41.9074 10.5079 41.7991 10.4283 41.7192C10.3488 41.6393 10.2407 41.5943 10.128 41.5941C10.0722 41.594 10.0169 41.6049 9.96526 41.6262C9.91365 41.6475 9.86674 41.6787 9.82719 41.7181C9.74733 41.7977 9.70235 41.9058 9.70214 42.0185V42.3509H9.37153C9.31571 42.3508 9.26042 42.3617 9.20882 42.3829C9.15721 42.4042 9.11029 42.4355 9.07075 42.4749C9.03121 42.5143 8.99982 42.5611 8.97837 42.6127C8.95692 42.6642 8.94582 42.7195 8.94573 42.7753C8.94563 42.8312 8.95653 42.8865 8.9778 42.9381C8.99907 42.9897 9.03029 43.0367 9.06969 43.0762C9.1091 43.1158 9.1559 43.1472 9.20743 43.1687C9.25897 43.1901 9.31422 43.2012 9.37004 43.2013H9.70214V43.532C9.70193 43.6448 9.74651 43.7531 9.82608 43.8329C9.90564 43.9128 10.0137 43.9578 10.1264 43.9581C10.2391 43.9583 10.3473 43.9137 10.4272 43.8341C10.5071 43.7545 10.552 43.6464 10.5523 43.5336V43.2013H10.8829C10.9956 43.2016 11.1038 43.1571 11.1838 43.0776C11.2637 42.9981 11.3088 42.8901 11.3091 42.7773C11.3094 42.6645 11.265 42.5562 11.1855 42.4763C11.106 42.3963 10.998 42.3512 10.8853 42.3509H10.8844L10.8829 42.3509Z" fill="white"/>
<path d="M35.4056 42.3509H35.075V42.0201C35.0752 41.9074 35.0306 41.7991 34.9511 41.7192C34.8715 41.6393 34.7635 41.5943 34.6507 41.5941C34.538 41.5939 34.4298 41.6385 34.35 41.7181C34.2701 41.7977 34.2251 41.9058 34.2249 42.0185V42.3509H33.8943C33.7816 42.3507 33.6734 42.3953 33.5935 42.4749C33.5137 42.5545 33.4687 42.6626 33.4685 42.7753C33.4683 42.8881 33.5129 42.9963 33.5925 43.0762C33.672 43.1561 33.7801 43.2011 33.8928 43.2013H34.2249V43.532C34.2247 43.6448 34.2693 43.7531 34.3488 43.8329C34.4284 43.9128 34.5364 43.9578 34.6492 43.9581C34.7619 43.9583 34.8701 43.9137 34.95 43.8341C35.0298 43.7545 35.0748 43.6464 35.075 43.5336V43.2013H35.4056C35.5184 43.2016 35.6266 43.1571 35.7065 43.0776C35.7865 42.9981 35.8316 42.8901 35.8319 42.7773C35.8322 42.6645 35.7877 42.5562 35.7082 42.4763C35.6287 42.3963 35.5208 42.3512 35.408 42.3509H35.4071L35.4056 42.3509Z" fill="white"/>
<path d="M119.873 85.9635H119.542V85.6328C119.542 85.52 119.498 85.4119 119.418 85.3321C119.338 85.2524 119.23 85.2076 119.117 85.2076C119.005 85.2076 118.896 85.2524 118.817 85.3321C118.737 85.4119 118.692 85.52 118.692 85.6328V85.9635H118.362C118.249 85.9635 118.141 86.0083 118.061 86.0881C117.981 86.1678 117.937 86.276 117.937 86.3888C117.937 86.5015 117.981 86.6097 118.061 86.6894C118.141 86.7692 118.249 86.814 118.362 86.814H118.692V87.1447C118.692 87.2575 118.737 87.3656 118.817 87.4454C118.896 87.5251 119.005 87.5699 119.117 87.5699C119.23 87.5699 119.338 87.5251 119.418 87.4454C119.498 87.3656 119.542 87.2575 119.542 87.1447V86.814H119.873C119.986 86.814 120.094 86.7692 120.173 86.6894C120.253 86.6097 120.298 86.5015 120.298 86.3888C120.298 86.276 120.253 86.1678 120.173 86.0881C120.094 86.0083 119.986 85.9635 119.873 85.9635Z" fill="white"/>
<path d="M81.7264 50.5282H81.3958V50.1975C81.3958 50.0847 81.351 49.9766 81.2713 49.8968C81.1916 49.8171 81.0835 49.7723 80.9707 49.7723C80.858 49.7723 80.7499 49.8171 80.6702 49.8968C80.5904 49.9766 80.5457 50.0847 80.5457 50.1975V50.5282H80.2151C80.1023 50.5282 79.9942 50.573 79.9145 50.6528C79.8348 50.7325 79.79 50.8407 79.79 50.9535C79.79 51.0662 79.8348 51.1744 79.9145 51.2541C79.9942 51.3339 80.1023 51.3787 80.2151 51.3787H80.5457V51.7094C80.5457 51.8222 80.5904 51.9303 80.6702 52.0101C80.7499 52.0898 80.858 52.1346 80.9707 52.1346C81.0835 52.1346 81.1916 52.0898 81.2713 52.0101C81.351 51.9303 81.3958 51.8222 81.3958 51.7094V51.3787H81.7264C81.7822 51.3788 81.8375 51.3679 81.8891 51.3466C81.9407 51.3253 81.9876 51.2941 82.0272 51.2547C82.0667 51.2153 82.0981 51.1684 82.1196 51.1169C82.141 51.0653 82.1521 51.01 82.1522 50.9542C82.1523 50.8984 82.1414 50.8431 82.1201 50.7914C82.0989 50.7398 82.0676 50.6929 82.0282 50.6533C81.9888 50.6138 81.942 50.5824 81.8905 50.5609C81.839 50.5394 81.7837 50.5283 81.7279 50.5282H81.7264Z" fill="white"/>
<path d="M23.4167 59.6142H23.0861V59.2835C23.0863 59.1707 23.0417 59.0625 22.9622 58.9826C22.8826 58.9027 22.7746 58.8577 22.6618 58.8575C22.5491 58.8573 22.4409 58.9019 22.361 58.9815C22.2812 59.0611 22.2362 59.1691 22.236 59.2819V59.6142H21.9054C21.7927 59.614 21.6845 59.6586 21.6046 59.7382C21.5248 59.8179 21.4798 59.9259 21.4796 60.0387C21.4794 60.1515 21.524 60.2597 21.6035 60.3396C21.6831 60.4195 21.7912 60.4645 21.9039 60.4647H22.236V60.7954C22.2358 60.9082 22.2804 61.0164 22.3599 61.0963C22.4395 61.1762 22.5475 61.2212 22.6603 61.2214C22.773 61.2216 22.8812 61.177 22.9611 61.0974C23.0409 61.0178 23.0859 60.9098 23.0861 60.797V60.4647H23.4167C23.5294 60.4649 23.6376 60.4203 23.7175 60.3407C23.7974 60.2611 23.8423 60.153 23.8425 60.0402C23.8427 59.9274 23.7981 59.8192 23.7185 59.7393C23.639 59.6594 23.5309 59.6144 23.4182 59.6142L23.4167 59.6142Z" fill="white"/>
<path d="M24.5066 29.4488H24.176V29.118C24.1762 29.0053 24.1316 28.897 24.0521 28.8171C23.9725 28.7372 23.8645 28.6922 23.7517 28.692C23.639 28.6918 23.5308 28.7364 23.4509 28.816C23.3711 28.8956 23.3261 29.0037 23.3259 29.1164V29.4488H22.9953C22.8825 29.4486 22.7744 29.4932 22.6945 29.5728C22.6146 29.6524 22.5697 29.7605 22.5695 29.8732C22.5693 29.986 22.6139 30.0942 22.6934 30.1741C22.773 30.254 22.8811 30.299 22.9938 30.2992H23.3259V30.6299C23.3257 30.7427 23.3703 30.851 23.4498 30.9308C23.5294 31.0107 23.6374 31.0557 23.7502 31.056C23.8629 31.0562 23.9711 31.0116 24.051 30.932C24.1308 30.8524 24.1758 30.7443 24.176 30.6315V30.2992H24.5066C24.6193 30.2994 24.7275 30.2548 24.8074 30.1752C24.8872 30.0956 24.9322 29.9875 24.9324 29.8747C24.9326 29.762 24.888 29.6537 24.8084 29.5738C24.7289 29.494 24.6208 29.449 24.5081 29.4488L24.5066 29.4488Z" fill="white"/>
<path d="M80.971 17.7175C67.8129 11.0684 56.7787 13.2289 56.6304 12.082C56.6305 10.1882 60.4192 8.49874 67.0248 7.44709C67.0483 7.44311 67.0724 7.44381 67.0957 7.44916C67.119 7.4545 67.1409 7.46438 67.1604 7.47823C67.1798 7.49208 67.1964 7.50963 67.209 7.52988C67.2217 7.55012 67.2303 7.57267 67.2342 7.59622C67.2381 7.61978 67.2374 7.64388 67.232 7.66715C67.2267 7.69042 67.2168 7.7124 67.2029 7.73184C67.189 7.75128 67.1715 7.76779 67.1512 7.78044C67.131 7.79308 67.1084 7.80161 67.0849 7.80553L67.0842 7.80564L67.0819 7.806C60.8594 8.79674 56.9938 10.4352 56.9937 12.0821C56.9934 14.9387 67.9736 17.3529 80.971 17.3541C93.9683 17.3553 104.949 14.943 104.949 12.0864C104.949 10.4326 101.059 8.78945 94.7973 7.79821C94.7737 7.7946 94.7511 7.78638 94.7307 7.77401C94.7103 7.76165 94.6925 7.74539 94.6784 7.72616C94.6642 7.70692 94.654 7.68509 94.6484 7.66192C94.6427 7.63874 94.6416 7.61467 94.6452 7.59108C94.6488 7.56749 94.657 7.54484 94.6694 7.52442C94.6817 7.50401 94.698 7.48623 94.7172 7.4721C94.7364 7.45797 94.7583 7.44777 94.7814 7.44207C94.8046 7.43638 94.8287 7.43531 94.8522 7.43892L94.8528 7.43901L94.8541 7.43921C101.501 8.49135 105.313 10.1852 105.313 12.0864C105.312 15.2453 93.154 23.874 80.971 17.7175Z" fill="#3F3D56"/>
<path d="M40.5 46.7826C14.6037 40.5217 -8 46.7827 -8 46.7827H-14V101.783H147.5C147.5 101.783 125.184 94.5012 118.5 88.2827C95.972 67.324 70.4081 54.0135 40.5 46.7826Z" fill="#D2E9B6" fill-opacity="0.51"/>
<path d="M35.1269 60.7931C-8.64819 54.5086 -46.8576 60.7931 -46.8576 60.7931H-57V116H216C216 116 178.277 108.691 166.978 102.449C128.897 81.4117 85.6836 68.0512 35.1269 60.7931Z" fill="#D2E9B6" fill-opacity="0.51"/>
</g>
<defs>
<clipPath id="clip0_8_49">
<rect width="142" height="116" fill="white" transform="translate(-7)"/>
</clipPath>
</defs>
</svg>
