<svg width="103" height="9" viewBox="0 0 103 9" fill="none" xmlns="http://www.w3.org/2000/svg">
<path d="M2.47477 6.31749L0.669434 0.332157H1.70277L2.64143 3.78816L2.9921 5.07082C3.00543 5.00816 3.10943 4.59616 3.29743 3.83749L4.2361 0.332157H5.2641L6.1481 3.80282L6.44277 4.94816L6.7801 3.79216L7.7921 0.332157H8.7641L6.9201 6.31749H5.88143L4.94277 2.73349L4.71477 1.71349L3.51877 6.31749H2.47477Z" fill="#231F20"/>
<path d="M10.6922 6.31749L8.8869 0.332157H9.92024L10.8589 3.78816L11.2096 5.07082C11.2229 5.00816 11.3269 4.59616 11.5149 3.83749L12.4536 0.332157H13.4816L14.3656 3.80282L14.6602 4.94816L14.9976 3.79216L16.0096 0.332157H16.9816L15.1376 6.31749H14.0989L13.1602 2.73349L12.9322 1.71349L11.7362 6.31749H10.6922Z" fill="#231F20"/>
<path d="M18.9097 6.31749L17.1044 0.332157H18.1377L19.0764 3.78816L19.427 5.07082C19.4404 5.00816 19.5444 4.59616 19.7324 3.83749L20.671 0.332157H21.699L22.583 3.80282L22.8777 4.94816L23.215 3.79216L24.227 0.332157H25.199L23.355 6.31749H22.3164L21.3777 2.73349L21.1497 1.71349L19.9537 6.31749H18.9097Z" fill="#231F20"/>
<path d="M25.6951 5.16308H26.8337V6.31775H25.6951V5.16308Z" fill="#231F20"/>
<path d="M28.1726 4.53094L29.1606 4.37361C29.2166 4.77494 29.3713 5.08294 29.6259 5.29761C29.8779 5.51094 30.2339 5.61761 30.6899 5.61761C31.1473 5.61761 31.4886 5.52294 31.7113 5.33494C31.9326 5.14428 32.0446 4.92161 32.0446 4.66694C32.0446 4.43761 31.9459 4.25628 31.7513 4.12428C31.6126 4.03494 31.2726 3.92028 30.7286 3.78161C29.9939 3.59361 29.4859 3.43095 29.2019 3.29361C28.9206 3.15628 28.7046 2.96694 28.5579 2.72561C28.4126 2.48161 28.3393 2.21495 28.3393 1.92161C28.3393 1.65495 28.3993 1.40695 28.5193 1.18028C28.6406 0.952278 28.8046 0.764279 29.0113 0.613612C29.1673 0.497612 29.3779 0.397612 29.6473 0.317612C29.9166 0.236279 30.2033 0.196279 30.5113 0.196279C30.9753 0.196279 31.3806 0.264279 31.7313 0.398945C32.0819 0.534945 32.3393 0.718945 32.5059 0.948278C32.6726 1.18028 32.7873 1.48961 32.8499 1.87628L31.8726 2.01095C31.8273 1.70295 31.7006 1.46295 31.4859 1.28961C31.2726 1.11628 30.9726 1.03095 30.5846 1.03095C30.1246 1.03095 29.7966 1.10828 29.5993 1.26161C29.4046 1.41628 29.3059 1.59628 29.3059 1.80295C29.3059 1.93495 29.3473 2.05361 29.4273 2.15895C29.5099 2.26695 29.6379 2.35761 29.8113 2.42828C29.9113 2.46561 30.2046 2.55361 30.6953 2.68695C31.4019 2.88028 31.8953 3.03628 32.1753 3.15894C32.4553 3.28161 32.6739 3.45761 32.8339 3.69094C32.9926 3.92428 33.0726 4.21361 33.0726 4.55894C33.0726 4.89628 32.9753 5.21628 32.7806 5.51361C32.5873 5.81361 32.3059 6.04428 31.9393 6.20828C31.5726 6.37094 31.1566 6.45228 30.6953 6.45228C29.9273 6.45228 29.3433 6.29094 28.9419 5.96828C28.5393 5.64428 28.2833 5.16694 28.1726 4.53094Z" fill="#231F20"/>
<path d="M38.0281 3.31363C37.6654 3.46296 37.1201 3.59096 36.3934 3.69629C35.9841 3.75629 35.6921 3.82429 35.5227 3.89896C35.3521 3.97496 35.2214 4.08429 35.1281 4.22963C35.0361 4.37363 34.9894 4.53496 34.9894 4.71096C34.9894 4.98163 35.0894 5.20696 35.2921 5.38829C35.4947 5.56696 35.7881 5.65896 36.1774 5.65896C36.5627 5.65896 36.9054 5.57229 37.2054 5.40163C37.5054 5.22963 37.7254 4.99763 37.8667 4.70029C37.9747 4.47096 38.0281 4.13229 38.0281 3.68563V3.31363ZM38.1107 5.57896C37.7401 5.89763 37.3854 6.12296 37.0427 6.25496C36.6987 6.38696 36.3321 6.45229 35.9401 6.45229C35.2907 6.45229 34.7921 6.29229 34.4441 5.97096C34.0961 5.64963 33.9227 5.23896 33.9227 4.73896C33.9227 4.44696 33.9881 4.17763 34.1187 3.93629C34.2507 3.69363 34.4227 3.50029 34.6361 3.35229C34.8494 3.20696 35.0894 3.09629 35.3561 3.02029C35.5521 2.96696 35.8481 2.91629 36.2441 2.86829C37.0521 2.77096 37.6467 2.65363 38.0281 2.51896C38.0321 2.38029 38.0334 2.29096 38.0334 2.25363C38.0334 1.84163 37.9401 1.54963 37.7507 1.38029C37.4947 1.15096 37.1147 1.03629 36.6121 1.03629C36.1414 1.03629 35.7934 1.11896 35.5694 1.28696C35.3454 1.45363 35.1787 1.74963 35.0721 2.17496L34.0947 2.04029C34.1827 1.61629 34.3307 1.27229 34.5334 1.01096C34.7361 0.749626 35.0321 0.549627 35.4174 0.408293C35.8014 0.26696 36.2481 0.196293 36.7561 0.196293C37.2601 0.196293 37.6681 0.256294 37.9841 0.377627C38.2987 0.497627 38.5294 0.648293 38.6774 0.83096C38.8267 1.01229 38.9307 1.24296 38.9894 1.52029C39.0227 1.69363 39.0387 2.00696 39.0387 2.45629V3.80963C39.0387 4.75229 39.0601 5.34829 39.1041 5.59896C39.1454 5.84829 39.2294 6.08829 39.3561 6.31763H38.3121C38.2081 6.10696 38.1414 5.86029 38.1107 5.57896Z" fill="#231F20"/>
<path d="M44.3562 3.31363C43.9936 3.46296 43.4482 3.59096 42.7216 3.69629C42.3122 3.75629 42.0202 3.82429 41.8509 3.89896C41.6802 3.97496 41.5496 4.08429 41.4562 4.22963C41.3642 4.37363 41.3176 4.53496 41.3176 4.71096C41.3176 4.98163 41.4176 5.20696 41.6202 5.38829C41.8229 5.56696 42.1162 5.65896 42.5056 5.65896C42.8909 5.65896 43.2336 5.57229 43.5336 5.40163C43.8336 5.22963 44.0536 4.99763 44.1949 4.70029C44.3029 4.47096 44.3562 4.13229 44.3562 3.68563V3.31363ZM44.4389 5.57896C44.0682 5.89763 43.7136 6.12296 43.3709 6.25496C43.0269 6.38696 42.6602 6.45229 42.2682 6.45229C41.6189 6.45229 41.1202 6.29229 40.7722 5.97096C40.4242 5.64963 40.2509 5.23896 40.2509 4.73896C40.2509 4.44696 40.3162 4.17763 40.4469 3.93629C40.5789 3.69363 40.7509 3.50029 40.9642 3.35229C41.1776 3.20696 41.4176 3.09629 41.6842 3.02029C41.8802 2.96696 42.1762 2.91629 42.5722 2.86829C43.3802 2.77096 43.9749 2.65363 44.3562 2.51896C44.3602 2.38029 44.3616 2.29096 44.3616 2.25363C44.3616 1.84163 44.2682 1.54963 44.0789 1.38029C43.8229 1.15096 43.4429 1.03629 42.9402 1.03629C42.4696 1.03629 42.1216 1.11896 41.8976 1.28696C41.6736 1.45363 41.5069 1.74963 41.4002 2.17496L40.4229 2.04029C40.5109 1.61629 40.6589 1.27229 40.8616 1.01096C41.0642 0.749626 41.3602 0.549627 41.7456 0.408293C42.1296 0.26696 42.5762 0.196293 43.0842 0.196293C43.5882 0.196293 43.9962 0.256294 44.3122 0.377627C44.6269 0.497627 44.8576 0.648293 45.0056 0.83096C45.1549 1.01229 45.2589 1.24296 45.3176 1.52029C45.3509 1.69363 45.3669 2.00696 45.3669 2.45629V3.80963C45.3669 4.75229 45.3882 5.34829 45.4322 5.59896C45.4736 5.84829 45.5576 6.08829 45.6842 6.31763H44.6402C44.5362 6.10696 44.4696 5.86029 44.4389 5.57896Z" fill="#231F20"/>
<path d="M46.5177 4.53094L47.5057 4.37361C47.5617 4.77494 47.7164 5.08294 47.971 5.29761C48.223 5.51094 48.579 5.61761 49.035 5.61761C49.4924 5.61761 49.8337 5.52294 50.0564 5.33494C50.2777 5.14428 50.3897 4.92161 50.3897 4.66694C50.3897 4.43761 50.291 4.25628 50.0964 4.12428C49.9577 4.03494 49.6177 3.92028 49.0737 3.78161C48.339 3.59361 47.831 3.43095 47.547 3.29361C47.2657 3.15628 47.0497 2.96694 46.903 2.72561C46.7577 2.48161 46.6844 2.21495 46.6844 1.92161C46.6844 1.65495 46.7444 1.40695 46.8644 1.18028C46.9857 0.952278 47.1497 0.764279 47.3564 0.613612C47.5124 0.497612 47.723 0.397612 47.9924 0.317612C48.2617 0.236279 48.5484 0.196279 48.8564 0.196279C49.3204 0.196279 49.7257 0.264279 50.0764 0.398945C50.427 0.534945 50.6844 0.718945 50.851 0.948278C51.0177 1.18028 51.1324 1.48961 51.195 1.87628L50.2177 2.01095C50.1724 1.70295 50.0457 1.46295 49.831 1.28961C49.6177 1.11628 49.3177 1.03095 48.9297 1.03095C48.4697 1.03095 48.1417 1.10828 47.9444 1.26161C47.7497 1.41628 47.651 1.59628 47.651 1.80295C47.651 1.93495 47.6924 2.05361 47.7724 2.15895C47.855 2.26695 47.983 2.35761 48.1564 2.42828C48.2564 2.46561 48.5497 2.55361 49.0404 2.68695C49.747 2.88028 50.2404 3.03628 50.5204 3.15894C50.8004 3.28161 51.019 3.45761 51.179 3.69094C51.3377 3.92428 51.4177 4.21361 51.4177 4.55894C51.4177 4.89628 51.3204 5.21628 51.1257 5.51361C50.9324 5.81361 50.651 6.04428 50.2844 6.20828C49.9177 6.37094 49.5017 6.45228 49.0404 6.45228C48.2724 6.45228 47.6884 6.29094 47.287 5.96828C46.8844 5.64428 46.6284 5.16694 46.5177 4.53094Z" fill="#231F20"/>
<path d="M53.5125 3.3591C53.5125 4.12843 53.6658 4.69777 53.9738 5.06577C54.2805 5.4351 54.6525 5.61777 55.0898 5.61777C55.5352 5.61777 55.9152 5.42843 56.2312 5.0471C56.5472 4.66443 56.7072 4.07377 56.7072 3.2751C56.7072 2.5111 56.5512 1.94043 56.2432 1.56043C55.9325 1.18043 55.5632 0.992433 55.1338 0.992433C54.7072 0.992433 54.3312 1.19377 54.0032 1.59777C53.6752 2.00043 53.5125 2.58843 53.5125 3.3591ZM52.6058 8.6111V0.3311H53.5178V1.10977C53.7325 0.805766 53.9752 0.576433 54.2458 0.425766C54.5152 0.273766 54.8432 0.196433 55.2285 0.196433C55.7325 0.196433 56.1765 0.328433 56.5618 0.5911C56.9472 0.853767 57.2378 1.22443 57.4338 1.70443C57.6312 2.1831 57.7285 2.70843 57.7285 3.2791C57.7285 3.8911 57.6205 4.4431 57.4032 4.93377C57.1872 5.42443 56.8725 5.80043 56.4592 6.06043C56.0458 6.3231 55.6112 6.45243 55.1552 6.45243C54.8218 6.45243 54.5245 6.38177 54.2592 6.23777C53.9938 6.09643 53.7765 5.9151 53.6058 5.69777V8.6111H52.6058Z" fill="#231F20"/>
<path d="M62.7013 3.31363C62.3386 3.46296 61.7933 3.59096 61.0666 3.69629C60.6573 3.75629 60.3653 3.82429 60.1959 3.89896C60.0253 3.97496 59.8946 4.08429 59.8013 4.22963C59.7093 4.37363 59.6626 4.53496 59.6626 4.71096C59.6626 4.98163 59.7626 5.20696 59.9653 5.38829C60.1679 5.56696 60.4613 5.65896 60.8506 5.65896C61.2359 5.65896 61.5786 5.57229 61.8786 5.40163C62.1786 5.22963 62.3986 4.99763 62.5399 4.70029C62.6479 4.47096 62.7013 4.13229 62.7013 3.68563V3.31363ZM62.7839 5.57896C62.4133 5.89763 62.0586 6.12296 61.7159 6.25496C61.3719 6.38696 61.0053 6.45229 60.6133 6.45229C59.9639 6.45229 59.4653 6.29229 59.1173 5.97096C58.7693 5.64963 58.5959 5.23896 58.5959 4.73896C58.5959 4.44696 58.6613 4.17763 58.7919 3.93629C58.9239 3.69363 59.0959 3.50029 59.3093 3.35229C59.5226 3.20696 59.7626 3.09629 60.0293 3.02029C60.2253 2.96696 60.5213 2.91629 60.9173 2.86829C61.7253 2.77096 62.3199 2.65363 62.7013 2.51896C62.7053 2.38029 62.7066 2.29096 62.7066 2.25363C62.7066 1.84163 62.6133 1.54963 62.4239 1.38029C62.1679 1.15096 61.7879 1.03629 61.2853 1.03629C60.8146 1.03629 60.4666 1.11896 60.2426 1.28696C60.0186 1.45363 59.8519 1.74963 59.7453 2.17496L58.7679 2.04029C58.8559 1.61629 59.0039 1.27229 59.2066 1.01096C59.4093 0.749626 59.7053 0.549627 60.0906 0.408293C60.4746 0.26696 60.9213 0.196293 61.4293 0.196293C61.9333 0.196293 62.3413 0.256294 62.6573 0.377627C62.9719 0.497627 63.2026 0.648293 63.3506 0.83096C63.4999 1.01229 63.6039 1.24296 63.6626 1.52029C63.6959 1.69363 63.7119 2.00696 63.7119 2.45629V3.80963C63.7119 4.75229 63.7333 5.34829 63.7773 5.59896C63.8186 5.84829 63.9026 6.08829 64.0293 6.31763H62.9853C62.8813 6.10696 62.8146 5.86029 62.7839 5.57896Z" fill="#231F20"/>
<path d="M66.351 6.31749L64.5457 0.332157H65.579L66.5177 3.78816L66.8683 5.07082C66.8817 5.00816 66.9857 4.59616 67.1737 3.83749L68.1123 0.332157H69.1403L70.0243 3.80282L70.319 4.94816L70.6563 3.79216L71.6683 0.332157H72.6403L70.7963 6.31749H69.7577L68.819 2.73349L68.591 1.71349L67.395 6.31749H66.351Z" fill="#231F20"/>
<path d="M73.0802 4.53094L74.0682 4.37361C74.1242 4.77494 74.2789 5.08294 74.5335 5.29761C74.7855 5.51094 75.1415 5.61761 75.5975 5.61761C76.0549 5.61761 76.3962 5.52294 76.6189 5.33494C76.8402 5.14428 76.9522 4.92161 76.9522 4.66694C76.9522 4.43761 76.8535 4.25628 76.6589 4.12428C76.5202 4.03494 76.1802 3.92028 75.6362 3.78161C74.9015 3.59361 74.3935 3.43095 74.1095 3.29361C73.8282 3.15628 73.6122 2.96694 73.4655 2.72561C73.3202 2.48161 73.2469 2.21495 73.2469 1.92161C73.2469 1.65495 73.3069 1.40695 73.4269 1.18028C73.5482 0.952278 73.7122 0.764279 73.9189 0.613612C74.0749 0.497612 74.2855 0.397612 74.5549 0.317612C74.8242 0.236279 75.1109 0.196279 75.4189 0.196279C75.8829 0.196279 76.2882 0.264279 76.6389 0.398945C76.9895 0.534945 77.2469 0.718945 77.4135 0.948278C77.5802 1.18028 77.6949 1.48961 77.7575 1.87628L76.7802 2.01095C76.7349 1.70295 76.6082 1.46295 76.3935 1.28961C76.1802 1.11628 75.8802 1.03095 75.4922 1.03095C75.0322 1.03095 74.7042 1.10828 74.5069 1.26161C74.3122 1.41628 74.2135 1.59628 74.2135 1.80295C74.2135 1.93495 74.2549 2.05361 74.3349 2.15895C74.4175 2.26695 74.5455 2.35761 74.7189 2.42828C74.8189 2.46561 75.1122 2.55361 75.6029 2.68695C76.3095 2.88028 76.8029 3.03628 77.0829 3.15894C77.3629 3.28161 77.5815 3.45761 77.7415 3.69094C77.9002 3.92428 77.9802 4.21361 77.9802 4.55894C77.9802 4.89628 77.8829 5.21628 77.6882 5.51361C77.4949 5.81361 77.2135 6.04428 76.8469 6.20828C76.4802 6.37094 76.0642 6.45228 75.6029 6.45228C74.8349 6.45228 74.2509 6.29094 73.8495 5.96828C73.4469 5.64428 73.1909 5.16694 73.0802 4.53094Z" fill="#231F20"/>
<path d="M79.4524 5.16308H80.5911V6.31775H79.4524V5.16308Z" fill="#231F20"/>
<path d="M86.1805 4.12481L87.1631 4.25548C87.0565 4.94215 86.7805 5.48081 86.3391 5.87015C85.8965 6.25948 85.3525 6.45281 84.7071 6.45281C83.9005 6.45281 83.2525 6.18481 82.7618 5.65015C82.2698 5.11415 82.0245 4.34748 82.0245 3.34748C82.0245 2.70215 82.1298 2.13548 82.3418 1.65148C82.5525 1.16615 82.8738 0.803479 83.3058 0.559479C83.7365 0.318145 84.2071 0.196811 84.7125 0.196811C85.3551 0.196811 85.8778 0.362145 86.2858 0.690145C86.6938 1.01948 86.9538 1.48615 87.0698 2.09148L86.0978 2.24215C86.0045 1.84081 85.8405 1.53815 85.6045 1.33548C85.3711 1.13281 85.0858 1.03148 84.7525 1.03148C84.2485 1.03148 83.8391 1.21415 83.5245 1.58081C83.2098 1.94615 83.0525 2.52615 83.0525 3.31948C83.0525 4.12348 83.2045 4.70748 83.5085 5.07148C83.8125 5.43548 84.2071 5.61815 84.6978 5.61815C85.0898 5.61815 85.4178 5.49681 85.6805 5.25281C85.9431 5.00748 86.1098 4.63281 86.1805 4.12481Z" fill="#231F20"/>
<path d="M88.6753 3.32535C88.6753 4.09068 88.8393 4.66535 89.1686 5.04668C89.4979 5.42801 89.9139 5.61868 90.4139 5.61868C90.9099 5.61868 91.3219 5.42668 91.6526 5.04401C91.9819 4.66001 92.1473 4.07601 92.1473 3.29201C92.1473 2.55068 91.9806 1.98935 91.6486 1.60935C91.3179 1.22801 90.9059 1.03601 90.4139 1.03601C89.9139 1.03601 89.4979 1.22668 89.1686 1.60535C88.8393 1.98535 88.6753 2.55868 88.6753 3.32535ZM87.6473 3.32535C87.6473 2.21601 87.9499 1.39601 88.5579 0.861346C89.0659 0.41868 89.6846 0.196014 90.4139 0.196014C91.2246 0.196014 91.8873 0.465347 92.4033 1.00535C92.9179 1.54535 93.1753 2.29068 93.1753 3.24135C93.1753 4.01068 93.0606 4.61735 92.8326 5.05868C92.6046 5.50001 92.2739 5.84268 91.8379 6.08668C91.4033 6.33068 90.9273 6.45335 90.4139 6.45335C89.5886 6.45335 88.9206 6.18535 88.4113 5.64668C87.9019 5.10935 87.6473 4.33601 87.6473 3.32535Z" fill="#231F20"/>
<path d="M94.3472 6.31748V0.332149H95.2418V1.17215C95.4272 0.878816 95.6725 0.642816 95.9805 0.464149C96.2885 0.286816 96.6378 0.196149 97.0312 0.196149C97.4685 0.196149 97.8258 0.289483 98.1058 0.472149C98.3845 0.657483 98.5832 0.913482 98.6978 1.24415C99.1632 0.546816 99.7712 0.196149 100.519 0.196149C101.105 0.196149 101.554 0.361482 101.87 0.689482C102.185 1.01882 102.342 1.52415 102.342 2.20948V6.31748H101.347V2.54682C101.347 2.14148 101.315 1.84815 101.251 1.67082C101.186 1.49215 101.067 1.34815 100.898 1.23882C100.727 1.12948 100.527 1.07482 100.298 1.07482C99.8818 1.07482 99.5392 1.21615 99.2645 1.49615C98.9898 1.77615 98.8525 2.22415 98.8525 2.84015V6.31748H97.8525V2.42815C97.8525 1.97748 97.7712 1.63882 97.6085 1.41348C97.4445 1.18815 97.1792 1.07482 96.8085 1.07482C96.5272 1.07482 96.2658 1.15082 96.0285 1.30148C95.7885 1.45215 95.6152 1.67215 95.5085 1.96015C95.4005 2.24948 95.3472 2.66815 95.3472 3.21215V6.31748H94.3472Z" fill="#231F20"/>
</svg>
