<svg width="101" height="114" viewBox="0 0 101 114" fill="none" xmlns="http://www.w3.org/2000/svg">
<path d="M87.8205 64.9756C83.2899 64.3956 81.5059 61.1876 80.2405 57.4529C79.8312 56.2423 79.3859 55.0316 78.8245 53.8876C77.2299 50.6343 75.0325 49.4543 71.4432 49.7756C70.3259 49.8743 69.2032 49.9583 68.0819 49.9636C63.8605 49.9809 61.5392 48.1943 60.4205 44.1276C60.2752 43.597 60.0939 43.0756 59.8752 42.3783C56.8325 44.3196 56.0139 47.2529 55.5752 50.3796C55.1085 53.7063 54.7125 57.0436 54.2099 60.3649C54.0805 61.2196 53.7232 62.0543 53.3752 62.8583C51.5805 67.0183 51.0779 67.0196 46.6619 67.3783C43.2219 67.6569 39.7952 68.6196 36.4712 69.6329C34.1992 70.3263 32.1325 71.6756 29.9392 72.6516C26.7899 74.0516 23.6939 74.2023 20.4285 72.6743C18.9952 72.0036 17.1619 72.1249 15.5019 72.0103C12.0432 71.7743 8.57786 71.3529 7.05653 67.6783C5.53386 64.0063 7.27653 60.8609 9.68053 58.2596C12.3432 55.3823 15.3659 52.841 18.1939 50.1143C21.0112 47.397 23.0699 44.3596 23.6912 40.2756C24.4752 35.1156 27.5085 31.2449 31.7872 28.2556C33.8752 26.7969 35.9072 25.1676 37.6459 23.3156C42.0259 18.6436 42.4365 12.8276 38.9219 7.44629C37.9232 5.91696 36.6979 4.53562 35.2579 2.67695C36.2419 2.88895 36.8792 2.96095 37.4725 3.16228C43.5072 5.21428 48.6979 8.56629 53.1299 13.157C53.8912 13.945 55.0272 14.6049 56.0939 14.8276C79.0525 19.6143 94.7992 38.9516 94.0072 62.2436C93.4872 77.5129 86.5925 89.7036 74.1992 98.7169C74.0072 98.8569 73.8005 98.9863 73.5845 99.0863C73.4485 99.1476 73.2832 99.1436 72.4685 99.2836C71.6099 96.6209 70.1965 93.9063 69.9592 91.0916C69.6512 87.4209 69.9539 83.6143 70.5992 79.9743C71.1365 76.9436 73.4152 75.0316 76.5832 74.4543C77.3699 74.3103 78.1445 74.1023 78.9312 73.9543C84.6872 72.8716 86.4605 71.1423 87.8205 64.9756Z" fill="#231F20"/>
<path d="M8.78151 35.3234C6.01618 41.0288 4.10685 46.9421 3.40018 53.1861C2.77485 58.7101 2.80951 64.2141 4.41751 69.6301C7.82151 81.1128 15.3442 86.8994 27.3495 86.9621C32.6362 86.9901 37.9282 86.5141 43.2108 86.6261C47.8722 86.7261 51.8628 88.6008 55.1828 92.8408C52.8548 92.3514 51.0562 91.6461 49.2642 91.6621C45.4588 91.6981 41.6295 91.9194 37.8628 92.4434C35.9455 92.7114 34.2348 93.9821 34.0308 96.2261C33.8228 98.4901 35.1602 100.002 36.9882 101.074C41.0882 103.478 45.7042 103.878 50.2442 103.777C56.0575 103.646 61.8575 102.913 66.9615 102.497C56.3228 109.255 32.9282 110.33 16.1535 95.0794C-2.10382 78.4808 -3.21315 52.0381 8.78151 35.3234Z" fill="#ED1C24"/>
<path d="M63.008 13.6118C82.8973 18.5278 101.209 38.2731 100.099 64.2424C98.7973 94.7224 75.0173 113.052 50.5493 113.924C22.2413 114.933 3.77867 94.1064 0 78.3904C10 104.314 36.4067 114.633 58.3453 109.662C79.356 104.901 94.888 87.0598 96.8013 64.7758C98.5293 44.6611 87.3653 22.6398 63.008 13.6118Z" fill="#ED1C24"/>
<path d="M33.0575 7.83105C39.5175 8.39638 40.6188 12.279 38.7162 18.3324C36.9148 14.9897 34.9122 11.271 33.0575 7.83105Z" fill="#231F20"/>
<path d="M9.31402 34.9333C10.0994 33.4573 10.8847 31.98 11.67 30.504C12.4927 28.9573 13.3007 27.4027 14.1527 25.872C14.3527 25.5107 14.65 25.1613 14.986 24.928C15.902 24.2933 16.8647 23.7227 17.7727 22.9973C16.9087 23.256 16.0033 23.4253 15.1913 23.7987C14.3673 24.1787 13.6967 24.1147 12.9007 23.72C10.9647 22.7613 8.98602 21.892 7.01668 21C6.70735 20.8587 6.51668 20.6827 6.43402 20.3347C6.11802 19.0147 5.76868 17.7027 5.39935 16.2627C7.25002 16.816 9.01668 17.344 10.9287 17.916C10.7287 17.7293 10.638 17.632 10.5354 17.552C8.57268 16.0013 6.60735 14.4547 4.64735 12.8987C4.50868 12.788 4.35002 12.6347 4.31135 12.4747C4.00202 11.212 3.71668 9.944 3.39668 8.55067C5.10602 9.45867 6.71535 10.312 8.32468 11.1653C8.34468 11.1373 8.36468 11.108 8.38468 11.08C7.27802 10.0653 6.17268 9.04934 5.06468 8.03467C4.37668 7.40401 3.66602 6.79467 3.00868 6.13334C2.74735 5.87334 2.51935 5.51867 2.42202 5.16667C1.96202 3.50134 1.55402 1.82267 1.08868 4.62945e-06C9.32335 5.67867 17.4473 11.28 25.5887 16.8947C24.9673 16.216 24.366 15.5587 23.6567 14.784C25.0767 14.1107 26.4527 13.324 27.9247 12.8027C29.2047 12.3507 30.494 12.7467 31.5634 13.572C32.8607 14.572 34.0994 15.648 35.3634 16.692C34.4247 16.8933 33.474 17.032 32.5634 17.3053C29.5767 18.2013 26.9753 19.8453 24.4633 21.6347C19.6407 25.0707 15.3247 29.092 11.134 33.256C10.5514 33.8347 9.97668 34.42 9.39668 35.0027C9.37002 34.98 9.34202 34.956 9.31402 34.9333Z" fill="#231F20"/>
<path d="M14.1096 0.238028C18.1696 4.21936 22.1336 8.10736 26.1416 12.038C25.055 12.774 23.9976 13.498 22.9256 14.1994C22.8323 14.2607 22.6016 14.222 22.5016 14.1434C20.1896 12.3487 17.883 10.546 15.5896 8.72603C15.4283 8.59669 15.3336 8.32336 15.3003 8.10203C14.9723 6.02469 14.667 3.94336 14.355 1.86336C14.2803 1.37003 14.2056 0.875361 14.1096 0.238028Z" fill="#231F20"/>
</svg>
