<svg width="139" height="55" viewBox="0 0 139 55" fill="none" xmlns="http://www.w3.org/2000/svg">
<path d="M89.2116 11.1412C87.0996 14.0919 84.8703 16.7679 83.0196 19.6012C83.0076 19.6145 83.0076 19.6279 83.0076 19.6279C80.4236 23.1292 77.7356 26.3172 75.8983 29.9239C72.8943 35.7999 68.6303 37.4799 62.2423 37.0332C60.7476 36.9292 59.253 36.8625 57.7436 36.8239C56.1436 34.3839 54.597 32.0225 52.9823 29.5572C52.721 29.1505 52.445 28.7439 52.1836 28.3359C50.0836 25.1372 48.117 22.1332 46.017 18.9452C45.8596 18.7225 45.717 18.4999 45.573 18.2639C43.9063 15.7452 42.305 13.2919 40.601 10.7079C43.985 6.89053 47.2383 7.07453 50.9756 11.6399C55.2263 16.8345 58.8583 22.5265 62.7543 28.0092C63.3463 28.8479 63.8836 29.7145 64.657 30.8825C66.0863 28.8479 67.477 26.8812 68.8543 24.9399C70.3236 22.8279 71.7929 20.7692 73.2609 18.7092C75.2556 15.9159 77.1303 12.9772 79.4263 10.4465C82.6529 6.87853 86.1556 7.07453 89.1316 11.0359C89.1596 11.0759 89.1849 11.1012 89.2116 11.1412Z" fill="#ED1C24"/>
<path d="M45.5723 18.2637C41.5976 23.9303 37.7669 29.2557 34.1069 34.685C32.9923 36.325 31.8136 37.0997 29.7923 36.929C27.4963 36.7583 25.1616 36.8903 22.3163 36.8903C22.8923 35.9317 23.2203 35.2623 23.6283 34.673C28.8216 27.249 34.0029 19.8237 39.2363 12.4397C39.6963 11.797 40.1416 11.2197 40.6003 10.7077C42.3056 13.2917 43.9056 15.745 45.5723 18.2637Z" fill="#231F20"/>
<path d="M52.9825 29.5566C54.5972 32.0232 56.1438 34.3832 57.7438 36.8232C50.7532 36.5872 43.6305 36.8899 36.0625 36.8899C37.9905 34.2659 39.5518 32.0232 41.2705 29.8846C41.5585 29.5299 42.4505 29.5699 43.0798 29.5699C46.2012 29.5432 49.3105 29.5566 52.9825 29.5566Z" fill="#231F20"/>
<path d="M107.156 36.692H74.613C76.3704 34.2267 77.7877 32.1147 79.3877 30.1614C79.7677 29.688 80.8037 29.5974 81.5384 29.5827C84.633 29.5174 87.7304 29.556 91.1277 29.556C90.8117 28.876 90.7064 28.5067 90.5104 28.1934C88.3984 24.992 86.2877 21.8054 83.9784 18.2894C83.6637 18.736 83.349 19.168 83.0197 19.6014C84.8704 16.768 87.0997 14.092 89.2117 11.1414C92.885 16.0334 96.229 21.1894 99.7317 26.1987C102.105 29.5974 104.518 32.968 107.156 36.692Z" fill="#231F20"/>
<path d="M27.2077 8.90814C25.8904 10.0548 24.5131 11.1415 23.2651 12.3588C19.3024 16.2241 15.3517 20.1028 11.4784 24.0535C10.2971 25.2588 9.15175 25.4495 7.60641 24.9361C3.43041 23.5468 1.12108 19.6761 1.86241 15.1028C2.50375 11.1535 6.07708 8.0708 10.0917 8.05614C15.6064 8.03747 21.1224 8.05214 26.6357 8.05214C26.8277 8.33747 27.0171 8.6228 27.2077 8.90814Z" fill="#231F20"/>
<path d="M1.07373 36.7519C5.7844 31.6106 10.9057 26.0092 16.0511 20.4306C16.2884 20.1746 16.7457 20.0079 17.1057 19.9972C20.5004 19.8932 24.6737 23.6132 24.9417 26.9439C25.3324 31.7746 22.4044 36.4906 18.3737 36.6772C12.2431 36.9626 6.09106 36.7519 1.07373 36.7519Z" fill="#231F20"/>
<path d="M133.782 8.90814C132.465 10.0548 131.087 11.1415 129.839 12.3588C125.877 16.2241 121.926 20.1028 118.051 24.0535C116.87 25.2588 115.726 25.4495 114.181 24.9361C110.005 23.5468 107.695 19.6761 108.435 15.1028C109.077 11.1535 112.651 8.0708 116.666 8.05614C122.181 8.03747 127.697 8.05214 133.21 8.05214C133.402 8.33747 133.591 8.6228 133.782 8.90814Z" fill="#231F20"/>
<path d="M107.648 36.7519C112.359 31.6106 117.48 26.0092 122.625 20.4306C122.863 20.1746 123.32 20.0079 123.68 19.9972C127.075 19.8932 131.247 23.6132 131.516 26.9439C131.907 31.7746 128.979 36.4906 124.948 36.6772C118.817 36.9626 112.665 36.7519 107.648 36.7519Z" fill="#231F20"/>
<path d="M1.58667 49.64C2.75867 49.5573 4.13733 49.1653 5.10267 48.3346C5.91733 47.56 6.392 46.7053 6.392 45.612C6.392 44.7453 5.54667 43.7826 4.30133 43.7826C3.42667 43.7826 2.47733 43.9973 1.58667 44.4V49.64ZM0.177333 49.7346V43.7346C0.133333 43.652 0.0733334 43.5213 0.0733334 43.3426C0.0733334 43.1293 0.34 42.8333 0.964 42.8333C1.49867 42.8333 1.66133 43.1293 1.58667 43.3786C2.50533 43.0226 3.396 42.8213 4.62667 42.8213C6.46667 42.8213 7.876 44.1746 7.876 45.5053C7.876 46.848 7.23733 48.108 6.08 49.0106C4.58267 50.164 2.26933 50.7333 0.890667 50.7333C0.281333 50.7333 0 50.556 0 50.2106C0 49.9733 0.0586667 49.8413 0.177333 49.7346Z" fill="#231F20"/>
<path d="M10.342 47.5136C12.9686 47.1456 13.338 46.9669 13.338 46.8002C13.338 46.5149 13.0873 46.1949 12.4326 46.1949C11.5886 46.1949 10.7873 46.7536 10.342 47.5136ZM14.658 46.7536C14.658 47.2869 14.1993 47.7749 10.758 48.2629L10.0753 48.3576C10.0006 48.5469 9.97263 48.7616 9.97263 48.9976C9.97263 49.5936 10.358 49.8296 10.9953 49.8296C12.0193 49.8296 12.878 49.3549 13.146 49.0349C13.1006 48.7616 13.398 48.5109 13.8873 48.5109C14.4353 48.5109 14.554 48.7962 14.554 49.0349C14.554 49.3669 13.2633 50.7576 10.8313 50.7576C9.5713 50.7576 8.6073 50.3176 8.6073 49.0949C8.6073 46.8829 10.55 45.2922 12.4926 45.2922C14.1686 45.2922 14.658 46.2896 14.658 46.7536Z" fill="#231F20"/>
<path d="M16.0125 43.8184C15.9525 43.7117 15.8645 43.557 15.8645 43.4144C15.8645 42.9024 16.0418 42.773 16.7685 42.773C17.1685 42.773 17.6138 42.9744 17.6138 43.3317C17.6138 43.545 17.5258 43.7117 17.3912 43.853V49.7717C17.5538 49.8784 17.6285 49.997 17.6285 50.1264C17.6285 50.329 17.2592 50.6264 16.7392 50.6264C16.2792 50.6264 15.8778 50.425 15.8778 50.045C15.8778 49.937 15.9378 49.8424 16.0125 49.7344V43.8184Z" fill="#231F20"/>
<path d="M20.7599 43.6399C20.7599 44.3413 20.3306 44.7453 19.8693 44.7453C19.3959 44.7453 19.2026 44.5066 19.2026 44.1746C19.2026 43.5679 19.5279 43.0933 20.0919 43.0933C20.5226 43.0933 20.7599 43.2946 20.7599 43.6399ZM20.5813 46.3133V49.7119C20.6559 49.7586 20.7746 49.9013 20.7746 50.0453C20.7746 50.4479 20.1519 50.6266 19.6919 50.6266C19.3066 50.6266 19.0239 50.4119 19.0239 50.0679C19.0239 49.8546 19.1426 49.7226 19.2026 49.6653V46.3613C19.1133 46.2893 19.0679 46.1599 19.0679 46.0533C19.0679 45.7199 19.0986 45.3626 20.0039 45.3626C20.3439 45.3626 20.7439 45.6719 20.7306 45.9213C20.7306 46.1226 20.6119 46.2426 20.5813 46.3133Z" fill="#231F20"/>
<path d="M23.2832 50.0201C23.2832 49.7948 23.0752 49.2708 22.7632 48.5481C22.3179 47.5375 22.0072 46.6815 21.9925 46.1828C21.9325 46.1228 21.8885 46.0161 21.8885 45.9095C21.8885 45.6721 22.2005 45.3855 22.7632 45.3855C23.2832 45.3855 23.5205 45.6961 23.5205 45.8255C23.5205 45.9561 23.4459 46.1001 23.3859 46.1828C23.3859 46.6468 23.5645 47.2055 23.7712 47.7748L24.2605 49.0695C24.5139 48.5241 24.9739 47.8228 25.2845 47.4188C25.6699 46.9201 25.9365 46.5268 26.3085 45.8855C26.5312 45.4695 26.7539 45.2788 27.1832 45.2788C27.5845 45.2788 27.8512 45.4348 27.8512 45.7788C27.8512 46.2068 27.2272 46.7655 26.4725 47.7268C25.6699 48.7495 25.1659 49.4495 24.8685 50.1988C24.7205 50.5441 24.4992 50.6735 24.0685 50.6735C23.6832 50.6735 23.2979 50.5441 23.2832 50.0201Z" fill="#231F20"/>
<path d="M29.6778 47.5136C32.3044 47.1456 32.6738 46.9669 32.6738 46.8002C32.6738 46.5149 32.4231 46.1949 31.7684 46.1949C30.9244 46.1949 30.1231 46.7536 29.6778 47.5136ZM33.9938 46.7536C33.9938 47.2869 33.5351 47.7749 30.0938 48.2629L29.4111 48.3576C29.3364 48.5469 29.3084 48.7616 29.3084 48.9976C29.3084 49.5936 29.6938 49.8296 30.3311 49.8296C31.3551 49.8296 32.2138 49.3549 32.4818 49.0349C32.4364 48.7616 32.7338 48.5109 33.2231 48.5109C33.7711 48.5109 33.8898 48.7962 33.8898 49.0349C33.8898 49.3669 32.5991 50.7576 30.1671 50.7576C28.9071 50.7576 27.9431 50.3176 27.9431 49.0949C27.9431 46.8829 29.8858 45.2922 31.8284 45.2922C33.5044 45.2922 33.9938 46.2896 33.9938 46.7536Z" fill="#231F20"/>
<path d="M35.3471 46.0762L35.2285 45.7668C35.2285 45.5415 35.6138 45.3388 36.0885 45.3388C36.5338 45.3388 36.8165 45.4935 36.8165 45.7308C36.8165 45.8148 36.8298 45.9095 36.7258 46.0042V46.4202H36.7418C37.5565 45.8268 38.4018 45.3628 39.1138 45.3628C39.5738 45.3628 40.0338 45.7188 40.0338 46.8135C40.0338 47.1455 39.7965 47.3588 39.2925 47.3588C38.8618 47.3588 38.6098 47.2402 38.6098 47.0388C38.6098 46.9322 38.6405 46.8255 38.6845 46.7295C38.6845 46.5868 38.6245 46.4682 38.5058 46.4682C38.2685 46.4682 37.4831 46.8722 36.7258 47.5855V49.7588C36.8165 49.8295 36.9045 49.9735 36.9045 50.0922C36.9045 50.4482 36.6525 50.6268 35.8511 50.6268C35.3765 50.6268 35.1538 50.4722 35.1538 50.1628C35.1538 50.0455 35.2431 49.9255 35.3471 49.8668V46.0762Z" fill="#231F20"/>
<path d="M42.5295 43.6399C42.5295 44.3413 42.1001 44.7453 41.6388 44.7453C41.1655 44.7453 40.9721 44.5066 40.9721 44.1746C40.9721 43.5679 41.2975 43.0933 41.8615 43.0933C42.2921 43.0933 42.5295 43.2946 42.5295 43.6399ZM42.3508 46.3133V49.7119C42.4255 49.7586 42.5441 49.9013 42.5441 50.0453C42.5441 50.4479 41.9215 50.6266 41.4615 50.6266C41.0761 50.6266 40.7935 50.4119 40.7935 50.0679C40.7935 49.8546 40.9121 49.7226 40.9721 49.6653V46.3613C40.8828 46.2893 40.8375 46.1599 40.8375 46.0533C40.8375 45.7199 40.8681 45.3626 41.7735 45.3626C42.1135 45.3626 42.5135 45.6719 42.5001 45.9213C42.5001 46.1226 42.3815 46.2426 42.3508 46.3133Z" fill="#231F20"/>
<path d="M45.5853 49.9134C45.66 49.9961 45.6893 50.0681 45.6893 50.1987C45.6893 50.5067 45.1693 50.6267 44.7707 50.6267C44.3987 50.6267 44.028 50.5067 44.028 50.2214C44.028 50.0801 44.072 49.9854 44.2067 49.8894V48.0361C44.088 47.9774 43.984 47.8334 43.984 47.6441C43.984 47.4534 44.0573 47.2521 44.2067 46.9547V46.0041C44.132 45.8974 44.088 45.8027 44.088 45.6481C44.088 45.4107 44.548 45.1614 45.0067 45.1614C45.5707 45.1614 45.7333 45.3281 45.7333 45.5761C45.7333 45.7427 45.6453 45.8627 45.5853 45.9441V46.4081C47.0987 45.3987 47.7667 45.1614 48.3 45.1614C48.8347 45.1614 49.412 45.5641 49.412 45.9441V49.8187C49.4427 49.8894 49.5013 49.9614 49.5013 50.1267C49.5013 50.4961 49.2053 50.6267 48.656 50.6267C48.152 50.6267 47.8987 50.4601 47.8987 50.1747C47.8987 50.0454 47.9587 49.9614 48.0333 49.8667V46.5401C48.0333 46.4561 47.796 46.3134 47.692 46.3134C47.544 46.3134 46.9947 46.4681 45.5853 47.4187V49.9134Z" fill="#231F20"/>
<path d="M54.8147 47.7507C55.0227 47.3241 55.172 46.8361 55.216 46.2894V46.2787C53.436 46.2787 51.9827 47.8454 51.9827 49.2721C51.9827 49.6054 52.1453 49.8187 52.4267 49.8187C53.0347 49.8187 54.2227 49.1174 54.8147 47.7507ZM56.58 50.7694C56.58 52.3614 54.9027 53.1107 53.524 53.1107C52.2933 53.1107 51.3147 52.7187 51.3147 52.2547C51.3147 51.8974 51.5813 51.6361 51.9667 51.6361C52.2333 51.6361 52.456 51.7681 52.516 51.9814C52.768 52.1361 53.1827 52.2187 53.5987 52.2187C54.2947 52.2187 55.216 51.8494 55.216 50.6627C55.216 50.0681 55.2307 49.4614 55.2307 48.8681C54.652 50.0321 53.3613 50.7801 52.2493 50.7801C51.1067 50.7801 50.6187 50.1867 50.6187 49.4494C50.6187 47.5494 52.5307 45.3867 55.676 45.3867C56.268 45.3867 56.58 45.5641 56.58 45.9934V50.7694Z" fill="#231F20"/>
<path d="M62.6362 49.7116C62.6949 49.8422 62.7402 49.9849 62.7402 50.1156C62.7402 50.4009 62.4135 50.6276 62.0122 50.6276C61.3015 50.6276 61.0495 50.4116 61.0495 50.1382C61.0495 50.0316 61.1229 49.7942 61.2122 49.7462V47.1569C61.0789 47.0849 60.9602 46.9062 60.9602 46.7769C60.9602 46.4796 61.0042 46.2422 61.2122 46.1836V43.7716C61.1535 43.6516 61.0935 43.5209 61.0935 43.4262C61.0935 43.1182 61.5389 42.9036 62.0869 42.9036C62.3255 42.9036 62.7549 43.1182 62.7549 43.4036C62.7549 43.5569 62.7402 43.6996 62.6362 43.7956V46.0529L67.0255 45.8262V43.8422C66.9229 43.7116 66.9069 43.5329 66.9069 43.4036C66.9069 43.0929 67.3375 42.9036 67.7229 42.9036C68.0789 42.9036 68.5682 43.1649 68.5682 43.3662C68.5682 43.5102 68.5389 43.6289 68.4495 43.7462V49.7582C68.5242 49.8662 68.5682 50.0316 68.5682 50.1636C68.5682 50.4369 68.0949 50.6276 67.7082 50.6276C67.2775 50.6276 66.8629 50.3889 66.8629 50.0689C66.8629 49.9249 66.9522 49.7462 67.0255 49.6516V46.8596L62.6362 47.0849V49.7116Z" fill="#231F20"/>
<path d="M74.3731 47.8822C72.4011 48.0729 71.0358 49.0222 71.0358 49.5569C71.0358 49.7582 71.2438 49.8302 71.5251 49.8302C72.6238 49.8302 74.3731 48.7969 74.3731 48.2502V47.8822ZM74.4024 46.5396C74.4024 46.2302 74.2544 46.0769 73.8691 46.0769C73.0544 46.0769 72.3718 46.3009 71.8224 46.5862C71.8518 46.6822 71.6291 46.9196 71.1998 46.9196C70.8438 46.9196 70.5758 46.5982 70.5758 46.3609C70.5758 46.1342 70.9331 45.8262 71.2438 45.8742C72.0144 45.4822 73.0544 45.2209 74.3891 45.2209C75.1451 45.2209 75.7371 45.6129 75.7371 46.2902V49.9249C75.8118 49.9729 75.8558 50.0916 75.8558 50.2102C75.8558 50.5676 75.3384 50.6382 74.8784 50.6382C74.3891 50.6382 74.2544 50.4716 74.2544 50.2582C74.2544 50.1516 74.3144 50.0689 74.3731 49.9729V49.4382H74.3451C73.2904 50.3649 72.2678 50.7809 71.0358 50.7809C70.2798 50.7809 69.6718 50.4369 69.6718 49.8302C69.6718 48.7849 71.2891 47.4302 74.4024 47.1449V46.5396Z" fill="#231F20"/>
<path d="M78.9889 49.4029C79.1676 49.6763 79.4343 49.7949 79.7449 49.7949C80.8569 49.7949 82.3263 48.5469 82.3263 47.0976C82.3263 46.6696 82.1036 46.3136 81.5849 46.3136C81.1703 46.3136 80.7836 46.4443 80.0863 47.0149C79.7156 47.3229 79.3156 47.7389 78.9889 48.2136V49.4029ZM78.9889 46.7643H79.0049C79.8796 45.8149 80.7089 45.3629 81.9849 45.3629C83.0089 45.3629 83.7209 45.9696 83.7209 46.9549C83.7209 49.3429 81.3916 50.7083 79.8196 50.7083C79.4929 50.7083 79.2116 50.6269 78.9889 50.4603V53.2283C79.0636 53.3349 79.1236 53.4309 79.1236 53.5736C79.1236 53.9176 78.8409 54.0723 78.1583 54.0723C77.8169 54.0723 77.4756 54.0003 77.4756 53.6443C77.4756 53.4536 77.5356 53.3123 77.6103 53.2056V46.2296C77.5356 46.1469 77.4609 46.0283 77.4609 45.8856C77.4609 45.4696 77.8609 45.3269 78.2023 45.3269C78.8409 45.3269 79.0929 45.5056 79.0929 45.8376C79.0929 45.9563 79.0049 46.0883 78.9889 46.1589V46.7643Z" fill="#231F20"/>
<path d="M86.3797 49.4029C86.5584 49.6763 86.825 49.7949 87.1357 49.7949C88.2477 49.7949 89.717 48.5469 89.717 47.0976C89.717 46.6696 89.4944 46.3136 88.9757 46.3136C88.561 46.3136 88.1744 46.4443 87.477 47.0149C87.1064 47.3229 86.7064 47.7389 86.3797 48.2136V49.4029ZM86.3797 46.7643H86.3957C87.2704 45.8149 88.0997 45.3629 89.3757 45.3629C90.3997 45.3629 91.1117 45.9696 91.1117 46.9549C91.1117 49.3429 88.7824 50.7083 87.2104 50.7083C86.8837 50.7083 86.6024 50.6269 86.3797 50.4603V53.2283C86.4544 53.3349 86.5144 53.4309 86.5144 53.5736C86.5144 53.9176 86.2317 54.0723 85.549 54.0723C85.2077 54.0723 84.8664 54.0003 84.8664 53.6443C84.8664 53.4536 84.9264 53.3123 85.001 53.2056V46.2296C84.9264 46.1469 84.8517 46.0283 84.8517 45.8856C84.8517 45.4696 85.2517 45.3269 85.593 45.3269C86.2317 45.3269 86.4837 45.5056 86.4837 45.8376C86.4837 45.9563 86.3957 46.0883 86.3797 46.1589V46.7643Z" fill="#231F20"/>
<path d="M93.9474 43.6399C93.9474 44.3413 93.5181 44.7453 93.0568 44.7453C92.5834 44.7453 92.3901 44.5066 92.3901 44.1746C92.3901 43.5679 92.7154 43.0933 93.2794 43.0933C93.7101 43.0933 93.9474 43.2946 93.9474 43.6399ZM93.7688 46.3133V49.7119C93.8434 49.7586 93.9621 49.9013 93.9621 50.0453C93.9621 50.4479 93.3394 50.6266 92.8794 50.6266C92.4941 50.6266 92.2114 50.4119 92.2114 50.0679C92.2114 49.8546 92.3301 49.7226 92.3901 49.6653V46.3613C92.3008 46.2893 92.2554 46.1599 92.2554 46.0533C92.2554 45.7199 92.2861 45.3626 93.1914 45.3626C93.5314 45.3626 93.9314 45.6719 93.9181 45.9213C93.9181 46.1226 93.7994 46.2426 93.7688 46.3133Z" fill="#231F20"/>
<path d="M97.0047 49.9134C97.0793 49.9961 97.1087 50.0681 97.1087 50.1987C97.1087 50.5067 96.5887 50.6267 96.19 50.6267C95.818 50.6267 95.4473 50.5067 95.4473 50.2214C95.4473 50.0801 95.4913 49.9854 95.626 49.8894V48.0361C95.5073 47.9774 95.4033 47.8334 95.4033 47.6441C95.4033 47.4534 95.4767 47.2521 95.626 46.9547V46.0041C95.5513 45.8974 95.5073 45.8027 95.5073 45.6481C95.5073 45.4107 95.9673 45.1614 96.426 45.1614C96.99 45.1614 97.1527 45.3281 97.1527 45.5761C97.1527 45.7427 97.0647 45.8627 97.0047 45.9441V46.4081C98.518 45.3987 99.186 45.1614 99.7193 45.1614C100.254 45.1614 100.831 45.5641 100.831 45.9441V49.8187C100.862 49.8894 100.921 49.9614 100.921 50.1267C100.921 50.4961 100.625 50.6267 100.075 50.6267C99.5713 50.6267 99.318 50.4601 99.318 50.1747C99.318 50.0454 99.378 49.9614 99.4527 49.8667V46.5401C99.4527 46.4561 99.2153 46.3134 99.1113 46.3134C98.9633 46.3134 98.414 46.4681 97.0047 47.4187V49.9134Z" fill="#231F20"/>
<path d="M103.846 47.5136C106.472 47.1456 106.842 46.9669 106.842 46.8002C106.842 46.5149 106.591 46.1949 105.938 46.1949C105.092 46.1949 104.291 46.7536 103.846 47.5136ZM108.162 46.7536C108.162 47.2869 107.703 47.7749 104.262 48.2629L103.579 48.3576C103.504 48.5469 103.476 48.7616 103.476 48.9976C103.476 49.5936 103.862 49.8296 104.499 49.8296C105.523 49.8296 106.382 49.3549 106.65 49.0349C106.604 48.7616 106.902 48.5109 107.391 48.5109C107.939 48.5109 108.058 48.7962 108.058 49.0349C108.058 49.3669 106.767 50.7576 104.335 50.7576C103.075 50.7576 102.111 50.3176 102.111 49.0949C102.111 46.8829 104.054 45.2922 105.996 45.2922C107.672 45.2922 108.162 46.2896 108.162 46.7536Z" fill="#231F20"/>
<path d="M114.914 45.8496C114.914 46.1349 114.691 46.3136 114.335 46.3136C114.083 46.3136 114.039 46.2549 113.979 46.1829C113.92 46.1109 113.831 46.0523 113.194 46.0523C111.724 46.0523 110.598 46.6696 110.598 47.2056C110.598 47.3949 110.746 47.5136 111.012 47.5136C111.37 47.5136 111.83 47.3589 112.378 47.2523C112.986 47.1336 113.491 46.9896 114.039 46.9896C114.928 46.9896 115.656 47.4069 115.656 48.1909C115.656 50.0923 112.555 50.7096 111.414 50.7096C110.375 50.7096 109.367 50.2696 109.367 49.7109C109.367 49.3776 109.604 49.0816 110.108 49.0816C110.523 49.0816 110.643 49.2843 110.643 49.3909C110.643 49.4616 110.627 49.5096 110.598 49.5563C110.731 49.6763 111.072 49.8189 111.472 49.8189C112.496 49.8189 114.275 49.3083 114.275 48.3923C114.275 48.0843 114.068 47.9056 113.667 47.9056C113.252 47.9056 112.882 48.0469 112.303 48.1669C111.695 48.2976 111.22 48.4283 110.523 48.4283C109.722 48.4283 109.219 47.9403 109.219 47.3229C109.219 46.0763 111.414 45.1723 113.194 45.1723C114.158 45.1723 114.914 45.3989 114.914 45.8496Z" fill="#231F20"/>
<path d="M122.363 45.8496C122.363 46.1349 122.14 46.3136 121.784 46.3136C121.532 46.3136 121.488 46.2549 121.428 46.1829C121.369 46.1109 121.28 46.0523 120.643 46.0523C119.173 46.0523 118.047 46.6696 118.047 47.2056C118.047 47.3949 118.195 47.5136 118.461 47.5136C118.819 47.5136 119.279 47.3589 119.827 47.2523C120.435 47.1336 120.94 46.9896 121.488 46.9896C122.377 46.9896 123.105 47.4069 123.105 48.1909C123.105 50.0923 120.004 50.7096 118.863 50.7096C117.824 50.7096 116.816 50.2696 116.816 49.7109C116.816 49.3776 117.053 49.0816 117.557 49.0816C117.972 49.0816 118.092 49.2843 118.092 49.3909C118.092 49.4616 118.076 49.5096 118.047 49.5563C118.18 49.6763 118.521 49.8189 118.921 49.8189C119.945 49.8189 121.724 49.3083 121.724 48.3923C121.724 48.0843 121.517 47.9056 121.116 47.9056C120.701 47.9056 120.332 48.0469 119.752 48.1669C119.144 48.2976 118.669 48.4283 117.972 48.4283C117.171 48.4283 116.668 47.9403 116.668 47.3229C116.668 46.0763 118.863 45.1723 120.643 45.1723C121.607 45.1723 122.363 45.3989 122.363 45.8496Z" fill="#231F20"/>
<path d="M124.252 49.9485C124.252 49.5925 124.577 49.1525 125.171 49.1525C125.587 49.1525 125.884 49.3552 125.884 49.8659C125.884 50.2579 125.631 50.6619 124.963 50.6619C124.652 50.6619 124.252 50.4365 124.252 49.9485Z" fill="#231F20"/>
<path d="M127.576 49.9485C127.576 49.5925 127.902 49.1525 128.495 49.1525C128.911 49.1525 129.207 49.3552 129.207 49.8659C129.207 50.2579 128.955 50.6619 128.287 50.6619C127.976 50.6619 127.576 50.4365 127.576 49.9485Z" fill="#231F20"/>
<path d="M130.899 49.9485C130.899 49.5925 131.225 49.1525 131.818 49.1525C132.234 49.1525 132.53 49.3552 132.53 49.8659C132.53 50.2579 132.278 50.6619 131.61 50.6619C131.299 50.6619 130.899 50.4365 130.899 49.9485Z" fill="#231F20"/>
<path d="M136.493 2.81311C136.37 2.71844 136.2 2.67178 135.98 2.67178H135.124V3.79844H135.985C136.196 3.79844 136.362 3.74778 136.488 3.64511C136.613 3.54244 136.674 3.40511 136.674 3.23311C136.674 3.04778 136.614 2.90778 136.493 2.81311ZM136.685 5.48378L135.86 4.31844H135.124V5.48378H134.54V2.14111H136.029C136.221 2.14111 136.394 2.16644 136.548 2.21578C136.702 2.26511 136.833 2.33578 136.94 2.42511C137.046 2.51578 137.129 2.62778 137.186 2.75978C137.242 2.89178 137.272 3.03844 137.272 3.20244C137.272 3.34111 137.252 3.46644 137.212 3.57711C137.172 3.68644 137.117 3.78378 137.048 3.86778C136.977 3.95178 136.894 4.02378 136.797 4.08244C136.698 4.14244 136.592 4.18644 136.473 4.21844L137.377 5.48378H136.685Z" fill="#231F20"/>
<path d="M138.699 3.86133C138.699 5.44267 137.416 6.72267 135.836 6.72267C134.255 6.72267 132.973 5.44267 132.973 3.86133C132.973 2.28 134.255 1 135.836 1C137.416 1 138.699 2.28 138.699 3.86133Z" stroke="#231F20" stroke-width="0.276" stroke-miterlimit="10"/>
</svg>
