<svg width="185" height="196" viewBox="0 0 185 196" fill="none" xmlns="http://www.w3.org/2000/svg">
<g opacity="0.2">
<path fill-rule="evenodd" clip-rule="evenodd" d="M131.106 0.156466C130.977 0.286059 130.871 1.26606 130.871 2.33437V4.27692L128.772 4.37663C126.931 4.4646 126.674 4.55894 126.674 5.14815C126.674 5.73669 126.931 5.83203 128.757 5.91932L130.839 6.0187L130.939 8.10159C131.026 9.92697 131.121 10.1841 131.71 10.1841C132.299 10.1841 132.394 9.92697 132.481 8.10159L132.581 6.0187L134.663 5.91932C136.489 5.83203 136.746 5.73669 136.746 5.14815C136.746 4.55961 136.489 4.46426 134.663 4.37697L132.581 4.27759L132.481 2.19839C132.406 0.641262 132.251 0.0940177 131.861 0.0198206C131.575 -0.0345682 131.236 0.0268728 131.106 0.156466ZM171.159 55.1724C171.159 56.2914 171.289 56.6832 171.662 56.6832C172.035 56.6832 172.166 56.2914 172.166 55.1724C172.166 54.0534 172.035 53.6616 171.662 53.6616C171.289 53.6616 171.159 54.0534 171.159 55.1724ZM32.5847 55.5625C32.251 55.6972 32.1651 69.8722 32.1651 124.862V193.992L16.1338 194.079L0.102539 194.166V195.005V195.845H92.4292H184.756V195.005V194.166L169.396 194.079L154.036 193.991V174.69V155.389H155.211C156.162 155.389 156.386 155.261 156.386 154.717C156.386 154.174 156.162 154.046 155.211 154.046H154.036V105.096C154.036 67.4713 153.943 56.0527 153.633 55.7432C153.323 55.4326 139.454 55.3463 93.1174 55.3668C60.0551 55.3812 32.8157 55.4695 32.5847 55.5625ZM173.928 56.0503C172.79 56.7792 172.597 57.1663 173.187 57.5316C173.635 57.8079 175.936 56.0728 175.678 55.6542C175.401 55.2073 175.159 55.2624 173.928 56.0503ZM167.803 56.0957C167.806 56.5066 169.569 57.6904 170.179 57.6904C170.882 57.6904 170.415 56.6634 169.497 56.1883C168.294 55.5662 167.801 55.5394 167.803 56.0957ZM168.641 59.5084C167.919 60.0939 167.736 60.4307 167.993 60.6939C168.253 60.9594 168.673 60.846 169.504 60.286C170.137 59.8592 170.625 59.365 170.589 59.1878C170.461 58.564 169.637 58.6993 168.641 59.5084ZM172.837 59.0384C172.837 59.4342 174.821 60.709 175.439 60.7107C176.204 60.713 175.874 59.8586 174.884 59.2737C173.795 58.6305 172.837 58.5203 172.837 59.0384ZM171.223 61.1055C171.371 63.1088 172.166 63.225 172.166 61.2435C172.166 60.0744 172.04 59.7048 171.643 59.7048C171.237 59.7048 171.143 60.017 171.223 61.1055Z" fill="black" fill-opacity="0.5"/>
<path fill-rule="evenodd" clip-rule="evenodd" d="M32.389 55.8999C32.2658 56.0228 32.1651 87.2208 32.1651 125.229V194.334H16.2074C1.88499 194.334 0.228146 194.389 0.0431573 194.871C-0.0703206 195.167 0.0478595 195.542 0.305367 195.706C0.925802 196.098 183.933 196.098 184.553 195.706C184.811 195.542 184.929 195.167 184.815 194.871C184.63 194.389 183.015 194.334 169.155 194.334H153.701V125.005V55.676H93.1568C59.8574 55.676 32.5119 55.7767 32.389 55.8999ZM33.8438 114.094V170.833H85.0431H136.242V114.094V57.3547H85.0431H33.8438V114.094ZM138.593 125.844V194.334H145.307H152.022V125.844V57.3547H145.307H138.593V125.844ZM105.272 95.8733L103.012 98.1325L101.021 96.1624C99.6834 94.8386 98.8565 94.2595 98.4996 94.3961C97.6025 94.7406 97.8926 95.364 99.8889 97.3811L101.809 99.3213L99.816 101.335C97.9322 103.239 97.855 103.38 98.4006 103.926C98.9462 104.471 99.0875 104.394 100.991 102.51L103.005 100.518L105.019 102.51C106.922 104.394 107.064 104.471 107.609 103.926C108.155 103.38 108.078 103.239 106.203 101.344L104.22 99.3401L106.502 96.9752C108.403 95.0061 108.716 94.5271 108.372 94.1121C108.145 93.8381 107.863 93.6139 107.745 93.6139C107.627 93.6139 106.514 94.6305 105.272 95.8733ZM64.2837 94.5093C63.7485 95.0444 64.1736 95.8901 65.811 97.5483L67.5621 99.3213L65.7784 101.127C64.0524 102.875 63.6659 103.947 64.6439 104.272C64.8729 104.349 65.9405 103.572 67.0162 102.546L68.9719 100.68L70.4468 102.183C71.9733 103.739 72.907 104.065 73.2528 103.164C73.3814 102.83 72.8956 102.046 71.9001 100.982L70.3467 99.3213L71.9001 97.6608C72.8956 96.5965 73.3814 95.8129 73.2528 95.4785C72.9067 94.5761 71.9727 94.9048 70.4367 96.4696L68.9517 97.9828L67.0834 96.1339C65.2728 94.3421 64.7524 94.0402 64.2837 94.5093ZM80.7907 111.934C72.0019 113.524 66.3955 118.428 66.8104 124.163C66.9726 126.405 67.9281 127.923 70.2215 129.585C71.4859 130.501 71.6507 130.792 72.0146 132.764C72.8627 137.357 75.4989 141.08 79.2181 142.939C87.3509 147.003 96.7541 143.279 99.3178 134.979C99.6838 133.793 99.9832 132.315 99.9832 131.693C99.9832 130.789 100.175 130.462 100.941 130.067C102.272 129.378 103.863 127.482 104.352 125.999C105.725 121.839 101.514 115.011 96.3858 113.085C91.9676 111.426 86.0241 110.987 80.7907 111.934ZM77.9114 122.724C75.6399 123.161 73.9078 126.861 74.2674 130.505C74.8019 135.92 77.2836 139.839 81.116 141.321C83.9745 142.427 88.0976 142.389 90.6052 141.235C92.6995 140.27 94.6877 138.404 95.6738 136.477C97.438 133.028 98.2586 126.179 97.0395 125.075C95.9689 124.106 93.4653 123.173 91.9256 123.169C90.5293 123.165 88.0301 124.113 86.5072 125.224C86.0553 125.554 85.6501 125.43 84.2471 124.529C83.307 123.926 81.8308 123.219 80.9673 122.96C79.3695 122.479 79.2349 122.468 77.9114 122.724ZM33.8438 183.423V194.334H85.0431H136.242V183.423V172.511H85.0431H33.8438V183.423ZM39.3743 180.584C39.2551 180.776 39.3431 181.157 39.5694 181.43C39.9108 181.842 41.0476 181.911 46.229 181.835C52.4212 181.744 52.478 181.737 52.5844 180.988L52.6915 180.233H46.1413C41.9531 180.233 39.5126 180.359 39.3743 180.584ZM39.3293 186.464C39.2179 186.755 39.2689 187.135 39.4428 187.309C39.6345 187.501 46.228 187.591 56.1902 187.539C72.3682 187.453 72.621 187.441 72.621 186.78C72.621 186.119 72.3682 186.107 56.0767 186.021C41.2715 185.943 39.5113 185.99 39.3293 186.464Z" fill="black"/>
</g>
</svg>
