<svg width="235" height="147" viewBox="0 0 235 147" fill="none" xmlns="http://www.w3.org/2000/svg">
<path fill-rule="evenodd" clip-rule="evenodd" d="M138.328 0.0675575C137.33 0.220813 135.961 0.780375 135.288 1.31053L134.064 2.27462L132.317 1.11718C130.791 0.105873 130.258 -0.00817903 128.096 0.215467C126.309 0.400354 125.326 0.766564 124.56 1.53373C122.505 3.5911 121.959 6.97698 123.352 9.01475C124.473 10.6551 133.463 19.6861 133.974 19.6861C134.212 19.6861 136.848 17.2122 139.833 14.1889C145.129 8.82496 145.26 8.64364 145.26 6.71948C145.26 2.59271 142.036 -0.50136 138.328 0.0675575ZM105.635 1.31588C103.09 2.50985 101.868 4.38723 94.4677 18.468C93.5708 20.1748 92.6419 21.7666 92.4043 22.0045C92.1663 22.2429 90.2376 22.5151 88.1185 22.61C85.999 22.7044 83.4422 23.0287 82.4362 23.3308L80.6082 23.8792L78.4237 21.4485C77.222 20.1115 74.9784 17.4772 73.4377 15.5945C71.3493 13.0426 70.5076 12.2999 70.1316 12.6764C69.7557 13.0529 69.6271 13.0457 69.6271 12.647C69.6271 11.6602 69.5279 11.4513 68.1313 9.50437C64.549 4.5093 57.5614 4.56855 54.9689 9.61575C54.0324 11.4401 53.9563 12.0104 54.2228 15.214C54.621 19.993 55.626 26.2516 56.6942 30.6011C57.4573 33.7081 57.9271 35.1489 59.6003 39.5113C59.7881 40.0014 60.7077 41.9135 61.6433 43.7601L63.3451 47.118L62.6897 56.6799C62.3294 61.9392 61.8911 67.7455 61.7154 69.5833L61.3964 72.9246L58.5046 73.2213C56.914 73.3848 54.011 73.6463 52.0535 73.8027C50.0959 73.9591 45.5913 74.3502 42.0432 74.6719C33.9371 75.407 26.1918 75.2849 20.5042 74.332C13.5566 73.1678 12.4475 73.2752 10.4178 75.3076C8.75388 76.9738 8.70806 77.1035 8.81039 79.8741C8.88869 81.9925 9.27709 83.4948 10.3213 85.7161L11.7272 88.7064L10.6932 91.5078C10.1246 93.0483 9.38787 96.1134 9.05597 98.3187C8.25248 103.662 8.23824 123.368 9.03461 127.945C9.85946 132.688 11.6769 139.367 13.1566 143.093L13.9526 145.097L6.9765 145.32C1.17054 145.505 0 145.655 0 146.211C0 146.803 13.3417 146.891 117.009 146.978C181.364 147.033 234.291 146.981 234.625 146.862C235.11 146.689 235.121 146.514 234.681 145.983C234.228 145.436 232.558 145.319 225.177 145.316L216.222 145.312L218.505 144.001C224.741 140.419 228.077 132.265 226.222 125.14C224.331 117.88 220.236 115.828 215.538 119.786L214.305 120.825L213.995 118.482C212.715 108.798 208.516 99.2062 202.046 91.1905C199.679 88.2582 194.208 83.0462 193.108 82.6773C192.295 82.4046 192.318 82.3222 193.456 81.4143C194.648 80.4618 196.323 76.7177 198.248 70.697C198.718 69.2269 199.276 67.623 199.488 67.133C200.285 65.2868 200.863 63.7466 202.016 60.4026C204.207 54.0456 202.922 47.9056 198.573 43.9553C191.842 37.842 188.219 34.9978 184.857 33.1891C181.212 31.2288 174.51 28.8582 171.089 28.3201C169.709 28.1031 168.567 27.5141 167.307 26.3719C165.077 24.3479 161.149 22.1809 157.05 20.713C154.595 19.8335 152.853 19.5618 148.82 19.4295C141.043 19.1737 138.377 20.1151 137.861 23.3009C137.631 24.719 137.821 25.079 139.989 27.3404L142.368 29.8232L140.246 30.8613C137.047 32.4259 136.19 33.5308 136.482 35.7147L136.725 37.5225L132.428 41.2822C127.736 45.3885 127.314 45.9137 125.814 49.5353C123.866 54.2377 123.93 54.5451 131.022 74.4808C132.823 79.5413 134.314 81.8687 135.936 82.1462C136.676 82.2723 136.679 82.361 135.986 83.6556C135.581 84.4117 134.545 86.1157 133.684 87.4425C130.755 91.9546 129.937 95.4318 130.259 101.996C130.382 104.51 130.318 107.316 130.117 108.234C129.916 109.151 129.618 111.406 129.454 113.243C129.291 115.081 129.081 116.709 128.987 116.861C128.74 117.265 128.34 123.737 128.151 130.395C128.061 133.581 127.97 136.419 127.948 136.702C127.927 136.985 127.188 138.081 126.308 139.136C124.817 140.923 124.725 141.204 124.988 143.188L125.27 145.32H119.471H113.672V143.822C113.672 142.838 113.227 141.763 112.374 140.688C110.612 138.469 110.334 136.331 111.232 131.92C111.641 129.913 111.892 127.695 111.789 126.994C111.686 126.292 111.736 125.718 111.899 125.718C112.21 125.718 112.908 122.863 113.696 118.367C113.954 116.897 114.369 114.591 114.62 113.243C114.871 111.896 115.165 110.091 115.273 109.234C115.38 108.376 115.847 105.87 116.309 103.665C118.824 91.6655 118.784 88.1 115.92 68.4695C115.67 66.7543 114.87 60.559 114.142 54.7019L112.819 44.0528L113.728 41.3521C114.624 38.6889 115.65 33.594 116.342 28.3735C116.848 24.5586 116.475 11.9948 115.749 8.40618C114.777 3.59511 112.615 1.36889 108.685 1.13144C107.391 1.05303 106.018 1.13634 105.635 1.31588ZM126.797 1.95474C124.65 3.1799 123.37 6.32075 125.017 6.32075C125.947 6.32075 125.857 7.55882 124.915 7.74059C124.352 7.84885 125.46 9.23305 129.048 12.9032L133.951 17.9178L138.938 12.8559C141.951 9.79796 143.926 7.44076 143.926 6.90125C143.926 4.22373 141.403 1.41657 139.004 1.42325C137.898 1.42592 136.202 2.37397 134.86 3.74035C134.127 4.48569 132.803 4.39169 132.803 3.59333C132.803 2.93308 130.001 1.42236 128.799 1.43528C128.187 1.44196 127.286 1.67585 126.797 1.95474ZM128.799 2.53391C128.799 2.90145 129.099 3.20217 129.466 3.20217C129.833 3.20217 130.134 2.90145 130.134 2.53391C130.134 2.16636 129.833 1.86564 129.466 1.86564C129.099 1.86564 128.799 2.16636 128.799 2.53391ZM137.697 2.57088C137.697 2.95892 137.935 3.19727 138.226 3.10015C139.05 2.82483 139.187 1.86564 138.401 1.86564C138.014 1.86564 137.697 2.18329 137.697 2.57088ZM135.521 4.25759C135.125 4.73607 135.116 4.98644 135.49 5.21766C136.215 5.66674 137.116 4.66924 136.522 4.07448C136.199 3.75193 135.893 3.80807 135.521 4.25759ZM126.574 4.76146C126.574 5.16999 126.79 5.43195 127.053 5.34419C127.316 5.25642 127.531 4.99446 127.531 4.76146C127.531 4.52846 127.316 4.2665 127.053 4.17873C126.79 4.09097 126.574 4.35293 126.574 4.76146ZM131.023 4.79844C131.023 5.18648 131.261 5.42483 131.552 5.32771C132.377 5.05238 132.513 4.09319 131.728 4.09319C131.34 4.09319 131.023 4.41084 131.023 4.79844ZM139.718 4.50796C139.389 5.04124 140.226 5.56917 140.818 5.20252C141.316 4.89467 140.989 4.09319 140.366 4.09319C140.151 4.09319 139.859 4.27986 139.718 4.50796ZM128.645 6.52568C128.479 6.95827 128.64 7.34943 129.048 7.50625C130.061 7.89563 130.401 7.28795 129.612 6.49851C128.987 5.87256 128.894 5.87524 128.645 6.52568ZM133.297 6.48514C132.9 6.96362 132.892 7.214 133.265 7.44522C133.991 7.89429 134.891 6.89679 134.297 6.30204C133.975 5.97949 133.669 6.03562 133.297 6.48514ZM142.328 6.48826C141.951 7.47195 142.453 7.97404 143.132 7.2933C143.534 6.89145 143.535 6.64241 143.139 6.24635C142.744 5.84984 142.55 5.90731 142.328 6.48826ZM106.383 7.41893C105.988 8.0226 105.664 8.62092 105.664 8.74744C105.664 8.87441 104.898 10.2346 103.962 11.7702C103.026 13.3064 101.137 16.6824 99.7647 19.2731L97.2688 23.983L98.6978 24.5007C99.484 24.7854 100.591 25.3721 101.159 25.8047C104.448 28.3125 107.385 31.1272 108.538 32.8776C109.626 34.53 109.906 34.7377 110.151 34.0752C110.708 32.5618 111.447 25.6969 111.483 21.6909C111.525 17.0754 110.657 8.24936 110.05 7.10039C109.418 5.90687 107.249 6.09532 106.383 7.41893ZM137.531 6.97565C137.683 7.37126 137.997 7.63144 138.23 7.55347C138.897 7.33116 138.706 6.55865 137.944 6.3996C137.469 6.3007 137.341 6.47935 137.531 6.97565ZM194.2 8.10279C191.847 10.4587 194.771 13.7136 197.788 12.0968C199.04 11.4259 198.96 8.81739 197.66 7.90543C196.329 6.97208 195.269 7.03223 194.2 8.10279ZM135.757 8.41197C135.225 8.94436 135.47 9.88483 136.14 9.88483C136.507 9.88483 136.807 9.59614 136.807 9.24285C136.807 8.4984 136.172 7.99631 135.757 8.41197ZM126.371 8.96307C126.042 9.49635 126.879 10.0243 127.471 9.65762C127.969 9.34977 127.642 8.5483 127.019 8.5483C126.804 8.5483 126.512 8.73497 126.371 8.96307ZM130.82 8.96307C130.679 9.19117 130.768 9.50348 131.016 9.65762C131.547 9.98596 132.358 9.56897 132.358 8.96753C132.358 8.42534 131.154 8.42178 130.82 8.96307ZM139.922 9.25354C139.922 9.64158 140.159 9.87993 140.45 9.78281C141.275 9.50749 141.412 8.5483 140.626 8.5483C140.238 8.5483 139.922 8.86595 139.922 9.25354ZM60.0386 11.531C59.3828 12.1877 59.3245 12.8992 59.591 16.9885C60.031 23.7451 61.8297 31.3651 64.4271 37.4767L65.0771 39.0056L66.0781 37.0414C67.6246 34.0057 70.1934 30.7383 73.0106 28.2238L75.5763 25.9344L74.6692 24.9262C74.1704 24.372 73.1823 23.2265 72.4736 22.381C71.7644 21.5349 70.7727 20.4118 70.2691 19.8852C69.7659 19.3582 67.8003 17.0928 65.9015 14.8514C62.3543 10.6649 61.4276 10.1401 60.0386 11.531ZM128.799 11.4811C128.799 11.8691 129.037 12.1075 129.328 12.0104C130.152 11.735 130.289 10.7759 129.503 10.7759C129.116 10.7759 128.799 11.0935 128.799 11.4811ZM133.045 11.1906C132.904 11.4187 132.992 11.731 133.241 11.8852C133.772 12.2135 134.583 11.7965 134.583 11.1951C134.583 10.6529 133.378 10.6493 133.045 11.1906ZM137.697 11.4811C137.697 11.8691 137.935 12.1075 138.226 12.0104C139.05 11.735 139.187 10.7759 138.401 10.7759C138.014 10.7759 137.697 11.0935 137.697 11.4811ZM131.023 13.7087C131.023 14.0967 131.261 14.335 131.552 14.2379C132.377 13.9626 132.513 13.0034 131.728 13.0034C131.34 13.0034 131.023 13.3211 131.023 13.7087ZM135.336 13.2881C134.921 13.7042 135.423 14.3399 136.166 14.3399C136.519 14.3399 136.807 14.0392 136.807 13.6717C136.807 13.0007 135.868 12.7557 135.336 13.2881ZM133.248 15.9362C133.248 16.3242 133.486 16.5626 133.777 16.4655C134.601 16.1901 134.738 15.231 133.952 15.231C133.565 15.231 133.248 15.5486 133.248 15.9362ZM15.6663 18.6837C15.5675 18.8672 15.2294 19.9699 14.9153 21.1335C14.3903 23.0777 14.1955 23.2894 12.5106 23.746C11.5025 24.0191 10.4125 24.3198 10.0886 24.4134C9.7647 24.5074 9.56627 24.9293 9.64724 25.3516C9.74601 25.8658 10.4547 26.2471 11.7935 26.5059C14.3045 26.992 14.5794 27.2673 15.1298 29.8419C15.4812 31.485 15.7686 31.9376 16.4614 31.9376C17.1456 31.9376 17.4459 31.4854 17.7929 29.9328C18.3922 27.2522 18.6196 26.9777 20.4944 26.673C21.3784 26.5296 22.3728 26.187 22.7033 25.9121C23.4463 25.2946 23.065 24.1412 22.1178 24.1412C21.733 24.1412 20.7489 23.8988 19.9311 23.6026C18.7353 23.1695 18.3482 22.7106 17.9576 21.2636C17.6906 20.2733 17.401 19.2129 17.3142 18.9064C17.1429 18.3019 15.9586 18.1419 15.6663 18.6837ZM142.827 21.1264C140.238 21.5888 139.477 22.1119 139.477 23.4261C139.477 24.6357 141.819 27.5128 143.521 28.3945C144.233 28.7629 144.815 29.3474 144.815 29.6931C144.815 30.0384 143.564 30.9544 142.035 31.7287C137.491 34.0284 137.009 34.7287 138.587 36.7371C139.697 38.1503 139.725 38.941 138.66 38.7606C137.39 38.545 127.92 47.0538 127.908 48.4215C127.906 48.6665 127.584 49.4685 127.194 50.2036C125.927 52.5906 126.276 56.2696 128.357 62.4551C129.387 65.518 130.437 68.4143 130.689 68.8914C130.942 69.3685 131.833 71.7738 132.669 74.2366C134.37 79.2464 135.439 80.721 137.369 80.721C138.647 80.721 138.661 80.7478 138.349 82.6145C138.158 83.7559 137.48 85.1521 136.641 86.13C133.865 89.368 133.357 90.0371 133.539 90.2202C133.642 90.3227 133.284 91.485 132.745 92.8033C131.422 96.0373 131.263 103.427 132.49 104.656C133.246 105.413 133.365 105.356 135.304 103.33C136.418 102.167 137.522 101.215 137.757 101.215C137.992 101.215 138.426 101.766 138.721 102.44C139.577 104.394 140.867 106.115 141.476 106.115C141.784 106.115 142.286 105.814 142.591 105.447C143.338 104.545 143.926 104.604 143.926 105.581C143.926 106.79 143.025 107.452 141.38 107.452C140.115 107.452 139.72 107.165 138.645 105.467L137.388 103.482L135.898 105.021C134.93 106.022 133.991 106.561 133.218 106.561C132.177 106.561 131.992 106.78 131.748 108.308C131.595 109.268 131.583 110.35 131.722 110.712C131.86 111.075 131.76 111.504 131.499 111.665C130.846 112.069 130.9 114.276 131.58 114.966C132.025 115.419 131.966 115.656 131.281 116.163C130.597 116.668 130.386 117.505 130.228 120.337C130.038 123.767 130.061 123.871 130.972 123.633C131.633 123.46 131.913 123.593 131.913 124.08C131.913 125.066 131.098 125.443 130.337 124.811C129.775 124.343 129.688 125.092 129.686 130.453C129.684 134.95 129.51 136.966 129.045 137.858C128.49 138.923 128.491 139.083 129.048 139.083C129.4 139.083 129.689 139.398 129.689 139.783C129.689 140.251 129.356 140.44 128.688 140.354C127.307 140.175 126.25 140.833 127.083 141.352C127.573 141.658 127.582 141.898 127.131 142.627C126.387 143.829 126.426 144.122 127.41 144.737C128.102 145.17 128.235 145.134 128.189 144.527C128.157 144.124 128.511 143.717 128.974 143.621C129.641 143.484 129.765 143.643 129.572 144.384C129.351 145.228 129.516 145.32 131.246 145.32C132.986 145.32 133.142 145.231 132.917 144.369C132.737 143.682 132.841 143.479 133.292 143.638C133.635 143.758 133.887 144.186 133.854 144.589C133.799 145.234 134.504 145.32 139.872 145.32H145.951L145.775 143.466C145.635 142 145.509 141.772 145.171 142.378C144.832 142.983 144.611 143.032 144.107 142.613C143.647 142.231 143.601 141.924 143.942 141.514C144.497 140.844 143.768 140.239 142.372 140.213C141.883 140.204 141.463 139.896 141.438 139.528C141.331 137.981 141.225 137.787 140.61 138.023C139.68 138.38 138.885 137.792 139.421 137.145C139.72 136.785 139.309 135.81 138.109 134.021C137.148 132.59 136.362 131.15 136.362 130.821C136.362 130.492 136.012 129.961 135.584 129.641C135.066 129.254 134.759 128.313 134.668 126.831C134.592 125.606 134.492 124.103 134.445 123.49C134.39 122.759 134.59 122.376 135.028 122.376C135.411 122.376 135.745 122.85 135.813 123.49C136.135 126.516 137.923 131.051 139.966 134.024C141.579 136.372 145.159 139.974 145.88 139.974C146.182 139.974 146.997 139.38 147.691 138.654C148.892 137.399 148.951 137.145 148.905 133.42C148.829 127.417 149.22 123.936 149.967 123.936C150.485 123.936 150.599 125.133 150.599 130.552C150.599 137.757 150.836 136.889 147.702 141.152C146.777 142.41 147.233 144.172 148.652 144.819C150.084 145.472 171.654 145.513 172.863 144.864C173.988 144.262 174.538 143.164 175.555 139.485C176.565 135.838 176.622 132.695 175.745 129.059C174.921 125.641 174.916 124.827 175.719 124.827C177.072 124.827 178.275 132.456 177.65 137.078C177.225 140.224 177.114 140.62 175.805 143.649L175.083 145.32H178.627H182.17L181.899 143.341C181.656 141.559 181.789 141.144 183.24 139.164L184.851 136.967L184.998 130.563C185.126 124.998 185.243 124.14 185.891 124.014C186.561 123.885 186.636 124.532 186.636 130.404V136.936L184.833 139.51C182.793 142.423 182.756 144.16 184.72 144.907C185.316 145.134 190.846 145.314 197.009 145.306C206.235 145.294 208.369 145.174 209.092 144.627C210.929 143.237 212.405 136.266 212.719 127.5C212.924 121.75 212.824 120.431 211.811 115.499C211.185 112.451 210.469 109.755 210.221 109.506C209.974 109.259 209.771 108.77 209.771 108.421C209.771 105.89 203.555 95.2242 199.423 90.6648C196.004 86.8927 191.087 82.6791 189.306 81.9943C186.83 81.0427 183.04 74.9624 181.926 70.1549C180.881 65.6525 180.396 54.7144 181.205 53.9049C182.009 53.0994 182.246 54.3553 182.629 61.4621C183.008 68.4971 183.893 73.1719 185.099 74.5057C185.455 74.9 185.746 75.3566 185.746 75.5201C185.746 76.2548 189.004 80.2608 189.81 80.517C191.511 81.0578 193.213 79.9013 194.005 77.668C194.409 76.5292 195.195 74.495 195.752 73.1474C196.309 71.7997 196.904 70.0956 197.074 69.3605C197.244 68.6254 197.664 67.4225 198.007 66.6875C198.35 65.9524 199.354 63.2459 200.238 60.6731C201.641 56.5855 201.807 55.6655 201.553 53.3827C201.393 51.9459 201.098 50.4424 200.897 50.0414C200.696 49.6404 200.258 48.7267 199.924 48.0108C199.282 46.6368 192.915 40.7414 188.412 37.3519C185.863 35.4326 181.536 33.1053 178.183 31.8498C175.608 30.8853 170.981 29.899 170.199 30.148C169.738 30.2946 168.565 29.5862 167.04 28.2399C162.413 24.1563 157.188 21.8606 150.822 21.113C146.554 20.6123 145.698 20.6136 142.827 21.1264ZM143.592 23.288C142.679 23.6337 142.139 25.0407 142.925 25.026C144.009 25.0064 145.26 24.3991 145.26 23.8926C145.26 23.0443 144.737 22.8545 143.592 23.288ZM149.709 23.8262C149.709 24.4174 153.192 25.5775 153.813 25.1935C154.623 24.6923 154.054 23.7861 152.768 23.5286C150.641 23.1027 149.709 23.1931 149.709 23.8262ZM158.162 26.1304C158.162 26.7795 159.453 27.7053 160.358 27.7053C161.161 27.7053 160.882 26.4266 159.971 25.9388C158.776 25.2982 158.162 25.3628 158.162 26.1304ZM220.464 36.5861C219.761 37.9012 219.913 39.514 220.818 40.3333C221.677 41.112 223.563 41.3464 223.563 40.6745C223.563 40.4567 223.9 40.3065 224.313 40.3404C225.373 40.4282 225.879 37.8353 225.036 36.6302C224.165 35.3854 221.122 35.3565 220.464 36.5861ZM221.61 37.7622C221.217 38.7873 222.069 39.6922 223.158 39.4071C223.765 39.248 224.011 38.868 223.92 38.2282C223.752 37.0476 222.018 36.6979 221.61 37.7622ZM135.388 43.1868C134.508 44.3509 133.158 46.6996 132.389 48.4068C131.202 51.0442 130.955 52.2164 130.745 56.2032C130.52 60.4672 130.605 61.2193 131.675 64.4381C133.115 68.7702 138.069 76.1933 139.096 75.5576C139.746 75.1557 139.518 74.217 138.476 73.0012C133.736 67.4751 131.821 62.2172 132.195 55.7546C132.415 51.946 134.219 47.216 136.587 44.2377C137.442 43.1618 138.142 42.0093 138.142 41.676C138.142 40.466 136.954 41.1174 135.388 43.1868ZM68.0699 45.5257C68.2212 45.7707 68.433 45.9712 68.5411 45.9712C68.6492 45.9712 68.7373 45.7707 68.7373 45.5257C68.7373 45.2807 68.5251 45.0802 68.2661 45.0802C68.0072 45.0802 67.9187 45.2807 68.0699 45.5257ZM144.662 48.1226C143.47 49.4417 143.721 51.1886 145.215 51.9624C146.406 52.579 146.594 52.5603 147.662 51.7187C149.09 50.5938 149.165 48.9374 147.831 48.0014C146.529 47.0881 145.563 47.1251 144.662 48.1226ZM166.504 47.7889C165.531 48.3565 165.458 50.985 166.388 51.9165C167.309 52.8392 169.337 52.2262 170.149 50.7801C170.718 49.7661 170.704 49.5072 170.027 48.4728C169.228 47.2512 167.876 46.9888 166.504 47.7889ZM36.2595 49.5353C35.2887 50.5074 35.1067 52.2199 35.8301 53.5743C36.5002 54.828 39.1051 54.7478 40.0158 53.4455C41.0644 51.9473 40.8918 50.2036 39.6118 49.3638C38.1641 48.4139 37.337 48.4563 36.2595 49.5353ZM36.9282 51.3133C36.594 52.3678 36.962 53.0994 37.8273 53.0994C38.5743 53.0994 39.5277 51.4817 39.1455 50.8625C38.674 50.098 37.2196 50.3938 36.9282 51.3133ZM152.136 52.8566C150.497 54.4978 150.679 56.2834 152.646 57.8637C154.245 59.1485 154.246 59.1539 153.591 60.7261C151.753 65.1308 144.237 64.6764 142.994 60.085C142.716 59.0607 142.418 57.9724 142.332 57.6659C142.245 57.3598 141.961 57.109 141.701 57.109C140.22 57.109 141.061 61.2433 142.926 63.1225C143.598 63.8001 145.003 64.7241 146.048 65.1749C147.093 65.6262 148.064 66.2972 148.205 66.6652C148.502 67.4399 152.401 70.3357 153.933 70.9185C155.722 71.6001 157.914 70.616 160.792 67.8395C162.283 66.4014 163.971 65.1068 164.542 64.9633C165.974 64.6034 167.845 63.0592 168.584 61.6291C169.435 59.9825 169.645 57.4676 168.952 57.2275C168.383 57.0306 168.219 57.3331 167.765 59.4136C167.301 61.5454 165.449 63.2664 163.266 63.5943C162.178 63.7573 160.801 63.7685 160.205 63.6188C158.882 63.2864 156.383 60.8633 156.383 59.913C156.383 59.533 157.101 58.4263 157.977 57.4542C159.262 56.0308 159.516 55.4566 159.285 54.5045C158.611 51.7254 154.266 50.7239 152.136 52.8566ZM104.997 54.8814C104.845 55.1264 104.922 55.3269 105.167 55.3269C105.411 55.3269 105.735 55.1264 105.887 54.8814C106.038 54.6364 105.961 54.4359 105.717 54.4359C105.472 54.4359 105.148 54.6364 104.997 54.8814ZM93.8342 56.8305C93.7052 57.1673 92.8105 57.7991 91.8459 58.2348C89.5947 59.2514 89.524 60.526 91.6168 62.3664C94.478 64.8818 97.2942 64.6047 99.3078 61.6095C100.441 59.9233 100.614 58.891 99.7612 58.891C99.4511 58.891 98.4331 58.3711 97.4997 57.7358L95.8024 56.581L95.9417 58.5114C96.0529 60.0547 95.9266 60.4712 95.3113 60.5902C94.7138 60.7051 94.53 60.4071 94.4904 59.2577C94.4624 58.4433 94.4748 57.4266 94.5184 56.9976C94.6123 56.0705 94.167 55.9618 93.8342 56.8305ZM1.79028 60.387C1.27553 60.7644 0.964102 61.544 0.964102 62.4551C0.964102 65.0106 3.77632 66.053 5.54392 64.1529C6.69132 62.9198 6.69132 61.9904 5.54392 60.7573C4.51219 59.6479 3.00309 59.4991 1.79028 60.387ZM100.117 70.5358C96.7603 71.0116 93.3537 72.7259 91.0642 75.0925C87.6149 78.6565 86.9422 80.7665 86.0738 90.745C85.6071 96.1072 84.6728 100.815 83.8639 101.883C83.1628 102.808 79.1569 125.163 79.6107 125.617C79.7415 125.747 81.6025 125.612 83.7469 125.315C99.8768 123.086 112.246 111.466 116.049 94.9667C116.653 92.3458 116.821 85.1503 116.34 82.4942C115.438 77.5116 111.874 73.1335 107.369 71.4736C103.988 70.2279 103.101 70.113 100.117 70.5358ZM222.126 84.5948C222.024 84.7921 221.664 85.8328 221.326 86.9078C220.849 88.4239 220.386 88.9982 219.259 89.4695C218.461 89.8037 217.401 90.0768 216.904 90.0768C216.31 90.0768 216 90.3695 216 90.9286C216 91.5812 216.434 91.8539 217.86 92.0954C220.078 92.4705 221.413 93.8119 221.572 95.8239C221.719 97.7039 222.4 98.4314 223.308 97.6781C223.677 97.3707 223.951 96.9884 223.915 96.828C223.88 96.6676 224.089 95.7018 224.381 94.6811C224.861 93.0015 225.076 92.7979 226.643 92.5329C228.651 92.1929 229.917 91.3857 229.45 90.7428C229.078 90.2314 226.279 89.1857 225.281 89.1857C224.827 89.1857 224.483 88.4413 224.2 86.8481C223.915 85.2412 223.555 84.4673 223.048 84.3733C222.643 84.2976 222.228 84.3974 222.126 84.5948ZM44.7126 86.0672C44.7126 86.3122 44.9248 86.5127 45.1838 86.5127C45.4427 86.5127 45.5312 86.3122 45.38 86.0672C45.2287 85.8221 45.0169 85.6217 44.9088 85.6217C44.8007 85.6217 44.7126 85.8221 44.7126 86.0672ZM191.28 87.0032C191.113 87.2727 191.4 87.9165 191.916 88.4337C192.641 89.1595 192.976 89.253 193.383 88.8449C193.791 88.4364 193.726 88.1103 193.097 87.4144C192.176 86.3955 191.719 86.2922 191.28 87.0032ZM196.205 91.8535C195.868 92.3997 198.22 95.4229 198.982 95.4229C199.885 95.4229 199.622 94.2534 198.386 92.7841C197.178 91.3456 196.656 91.1228 196.205 91.8535ZM195.3 96.3335C195.142 96.5892 195.344 97.3043 195.748 97.9227C196.331 98.8132 196.613 98.9393 197.105 98.5303C197.634 98.0906 197.622 97.8554 197.024 96.9412C196.265 95.782 195.752 95.6011 195.3 96.3335ZM40.1804 97.5092C40.5012 97.638 40.8851 97.6219 41.0328 97.474C41.1805 97.3261 40.918 97.221 40.4491 97.2401C39.9308 97.2615 39.8254 97.3671 40.1804 97.5092ZM201.318 99.1843C201.318 99.5381 201.692 100.09 202.148 100.409C202.965 100.982 203.098 101.22 203.098 102.106C203.098 102.351 203.398 102.551 203.765 102.551C204.721 102.551 204.588 101.39 203.459 99.8602C202.427 98.4622 201.318 98.1124 201.318 99.1843ZM198.917 101.585C198.562 102.161 200.099 105.224 200.743 105.224C201.543 105.224 201.46 104.044 200.554 102.508C199.774 101.185 199.322 100.93 198.917 101.585ZM30.6982 102.551C30.5469 102.796 30.6355 102.997 30.8944 102.997C31.1533 102.997 31.3656 102.796 31.3656 102.551C31.3656 102.306 31.2775 102.106 31.1694 102.106C31.0612 102.106 30.8495 102.306 30.6982 102.551ZM205.329 106.449C205.351 107.555 206.671 110.348 207.172 110.348C207.843 110.348 207.773 108.261 207.056 106.92C206.638 106.138 205.315 105.777 205.329 106.449ZM27.3614 108.369C27.3614 108.628 27.5616 108.717 27.8063 108.565C28.051 108.414 28.2512 108.202 28.2512 108.094C28.2512 107.985 28.051 107.897 27.8063 107.897C27.5616 107.897 27.3614 108.11 27.3614 108.369ZM132.557 108.381C132.098 109.125 133.129 109.976 133.743 109.362C134.257 108.847 133.935 107.897 133.248 107.897C133.032 107.897 132.721 108.115 132.557 108.381ZM202.096 108.158C201.62 108.634 202.951 111.681 203.698 111.828C204.626 112.01 204.649 110.946 203.753 109.211C203.091 107.928 202.622 107.631 202.096 108.158ZM132.636 112.708C132.516 112.903 132.596 113.352 132.814 113.706C133.114 114.193 133.337 114.224 133.725 113.835C134.007 113.553 134.104 113.103 133.939 112.837C133.588 112.267 132.947 112.204 132.636 112.708ZM25.5818 113.191C25.5818 113.436 25.782 113.76 26.0267 113.912C26.2714 114.063 26.4716 113.986 26.4716 113.741C26.4716 113.496 26.2714 113.172 26.0267 113.021C25.782 112.869 25.5818 112.946 25.5818 113.191ZM208.208 114.589C207.82 115.218 208.399 118.514 208.959 118.86C209.889 119.436 210.287 118.279 209.792 116.437C209.272 114.505 208.684 113.818 208.208 114.589ZM204.432 116.391C204.432 118.012 205.193 119.613 205.789 119.244C206.725 118.665 205.924 115.025 204.862 115.025C204.625 115.025 204.432 115.64 204.432 116.391ZM132.664 117.095C132.084 117.676 132.361 118.144 133.285 118.144C133.803 118.144 134.134 117.91 134.036 117.615C133.819 116.964 133.076 116.682 132.664 117.095ZM33.203 117.676C32.997 117.811 32.67 118.723 32.4756 119.703C32.2816 120.683 32.0578 121.786 31.9782 122.154C31.8986 122.521 31.7055 123.473 31.5489 124.27L31.2646 125.718H43.995H56.7249L56.6974 124.27C56.6822 123.473 56.4322 121.576 56.1412 120.053L55.6127 117.284L44.5951 117.357C38.5351 117.398 33.4085 117.541 33.203 117.676ZM130.647 119.676C130.732 120.084 131.001 120.408 131.246 120.395C131.906 120.36 131.785 119.363 131.092 119.132C130.718 119.007 130.551 119.211 130.647 119.676ZM217.47 120.352C215.183 121.748 214.792 122.798 214.477 128.391C214.074 135.535 212.962 141.453 211.527 144.089C210.895 145.249 210.993 145.365 212.329 145.038C220.78 142.971 226.581 134.421 224.937 126.454C223.645 120.188 221.119 118.124 217.47 120.352ZM132.655 121.56C132.091 122.124 132.362 122.599 133.248 122.599C133.742 122.599 134.138 122.302 134.138 121.931C134.138 121.253 133.197 121.017 132.655 121.56ZM205.628 122.887C205.167 123.348 205.261 126.518 205.745 126.818C206.359 127.198 207.18 125.421 207.018 124.059C206.879 122.887 206.2 122.314 205.628 122.887ZM209.326 125.272C209.326 126.955 209.489 127.5 209.994 127.5C210.498 127.5 210.661 126.955 210.661 125.272C210.661 123.589 210.498 123.045 209.994 123.045C209.489 123.045 209.326 123.589 209.326 125.272ZM89.2028 125.773C88.591 126.017 86.9413 126.255 85.5363 126.302C84.1318 126.348 82.9804 126.536 82.9781 126.72C82.9759 126.904 82.1235 127.057 81.0833 127.061C80.0431 127.065 78.9473 127.224 78.6479 127.414C78.005 127.823 77.0085 133.597 77.1188 136.276C77.2069 138.426 77.6487 139.571 79.2267 141.745C79.9791 142.781 80.2669 143.629 80.097 144.307L79.8429 145.32H88.034H96.2255L95.0083 141.867C93.145 136.582 92.8759 135.605 92.0915 131.287C91.0162 125.365 90.993 125.27 90.6402 125.3C90.4614 125.316 89.8145 125.529 89.2028 125.773ZM132.55 126.213C132.215 126.757 133.214 127.574 133.783 127.221C133.978 127.1 134.138 126.713 134.138 126.36C134.138 125.604 132.991 125.498 132.55 126.213ZM30.268 127.899C30.1425 128.295 29.6616 130.401 29.1993 132.579C28.2726 136.947 28.4555 138.535 30.1296 140.667C30.7342 141.437 31.1124 142.557 31.124 143.613L31.1431 145.317L36.6474 145.319C40.9834 145.32 42.061 145.202 41.7233 144.763C40.8954 143.687 39.0512 137.914 37.8055 132.497L36.5473 127.026L33.5215 127.102C31.1716 127.162 30.4451 127.339 30.268 127.899ZM130.412 128.301C130.291 128.496 130.371 128.945 130.589 129.299C130.89 129.786 131.112 129.817 131.5 129.428C131.783 129.145 131.879 128.696 131.715 128.429C131.363 127.86 130.723 127.797 130.412 128.301ZM57.4221 131.064C57.2215 131.921 56.9425 133.024 56.8019 133.514C56.6618 134.004 56.5381 135.336 56.527 136.474C56.5109 138.117 56.8046 138.959 57.9506 140.557C58.8329 141.787 59.3944 143.105 59.3944 143.945C59.3944 145.227 59.5025 145.32 60.9991 145.32C62.3529 145.32 62.5536 145.198 62.2827 144.54C60.7642 140.852 59.8966 138.091 58.6082 132.846C57.8029 129.568 57.7803 129.534 57.4221 131.064ZM132.803 131.101C132.803 132.186 133.843 132.033 134.059 130.915C134.144 130.476 133.918 130.173 133.503 130.173C133.091 130.173 132.803 130.554 132.803 131.101ZM205.134 131.307C204.765 132.777 205.197 133.504 206.029 132.813C206.844 132.136 206.85 130.173 206.037 130.173C205.697 130.173 205.29 130.683 205.134 131.307ZM208.97 132.044C208.407 132.607 208.229 135.609 208.729 136.109C209.388 136.769 210.216 135.293 210.216 133.46C210.216 131.459 209.906 131.107 208.97 132.044ZM130.325 132.896C129.942 133.517 131.1 134.284 131.626 133.757C132.054 133.329 131.642 132.4 131.023 132.4C130.808 132.4 130.494 132.623 130.325 132.896ZM134.803 132.849C134.651 133.096 134.848 133.421 135.241 133.572C136.093 133.899 136.567 133.539 136.158 132.876C135.789 132.277 135.164 132.265 134.803 132.849ZM132.803 135.296C132.803 135.664 133.103 135.964 133.47 135.964C133.838 135.964 134.138 135.664 134.138 135.296C134.138 134.929 133.838 134.628 133.47 134.628C133.103 134.628 132.803 134.929 132.803 135.296ZM137.006 135.112C136.547 135.855 137.578 136.707 138.192 136.092C138.706 135.578 138.384 134.628 137.697 134.628C137.481 134.628 137.17 134.846 137.006 135.112ZM130.412 137.211C130.06 137.781 130.876 138.781 131.419 138.445C132.133 138.003 132.027 136.855 131.272 136.855C130.919 136.855 130.532 137.015 130.412 137.211ZM134.781 137.34C134.617 137.606 134.688 138.03 134.939 138.281C135.5 138.843 136.362 138.368 136.362 137.497C136.362 136.747 135.217 136.633 134.781 137.34ZM132.664 139.371C132.084 139.952 132.361 140.419 133.285 140.419C133.803 140.419 134.134 140.186 134.036 139.891C133.819 139.239 133.076 138.958 132.664 139.371ZM137.006 139.567C136.841 139.834 136.912 140.257 137.163 140.509C137.725 141.071 138.587 140.596 138.587 139.725C138.587 138.975 137.442 138.861 137.006 139.567ZM207.084 141.134C206.793 141.9 206.78 142.503 207.046 142.77C207.681 143.406 208.436 142.734 208.436 141.533C208.436 139.975 207.616 139.733 207.084 141.134ZM130.657 142.002C130.858 142.97 131.648 143.029 131.829 142.09C131.922 141.602 131.704 141.311 131.246 141.311C130.818 141.311 130.573 141.599 130.657 142.002ZM134.583 141.979C134.583 142.35 134.978 142.647 135.473 142.647C135.967 142.647 136.362 142.35 136.362 141.979C136.362 141.608 135.967 141.311 135.473 141.311C134.978 141.311 134.583 141.608 134.583 141.979ZM139.31 141.666C138.958 142.236 139.774 143.236 140.317 142.901C141.031 142.459 140.925 141.311 140.17 141.311C139.817 141.311 139.43 141.47 139.31 141.666ZM24.692 142.228C24.692 142.487 24.8922 142.576 25.1369 142.424C25.3816 142.273 25.5818 142.061 25.5818 141.952C25.5818 141.844 25.3816 141.756 25.1369 141.756C24.8922 141.756 24.692 141.969 24.692 142.228ZM137.252 144.206C137.252 144.574 137.552 144.875 137.919 144.875C138.287 144.875 138.587 144.574 138.587 144.206C138.587 143.839 138.287 143.538 137.919 143.538C137.552 143.538 137.252 143.839 137.252 144.206ZM141.701 144.206C141.701 144.574 142.001 144.875 142.368 144.875C142.736 144.875 143.036 144.574 143.036 144.206C143.036 143.839 142.736 143.538 142.368 143.538C142.001 143.538 141.701 143.839 141.701 144.206Z" fill="#F9635C"/>
<path fill-rule="evenodd" clip-rule="evenodd" d="M125.82 0.955069C125.038 1.43266 124.09 2.29383 123.714 2.86943C122.916 4.0879 122.68 7.58159 123.317 8.72255C124.096 10.1157 133.363 19.2406 133.999 19.2406C134.698 19.2406 143.981 10.1099 144.754 8.66196C145.953 6.42104 144.728 2.81062 142.191 1.10209C140.058 -0.335129 137.826 -0.235338 135.575 1.39746C133.987 2.54866 133.695 2.62752 133.205 2.03632C131.546 0.0346446 128.143 -0.463437 125.82 0.955069ZM125.664 2.64534C124.693 3.51408 124.223 4.40911 124.047 5.72248C123.804 7.54105 123.865 7.64441 127.42 11.4241C129.412 13.5416 131.738 15.8864 132.59 16.6353L134.138 17.9963L139.087 13.0271L144.036 8.05785L143.802 5.97865C143.324 1.7258 139.105 -0.00411655 135.9 2.73845C135.053 3.46374 134.186 4.06518 133.974 4.07498C133.762 4.08523 132.904 3.49181 132.068 2.75671C130.019 0.955514 127.6 0.91319 125.664 2.64534ZM15.7611 19.1292C15.7428 19.5583 15.3798 20.6983 14.9545 21.6633C14.3076 23.1304 13.8324 23.5318 12.0524 24.1136C9.00703 25.1093 9.2891 26.0266 12.8145 26.592C13.7448 26.7412 14.567 27.103 14.6408 27.3957C15.1912 29.5684 16.0903 31.7162 16.4614 31.7457C16.7061 31.7648 17.2115 30.7285 17.5843 29.4428C18.2467 27.1569 18.3139 27.0901 20.5874 26.457C21.8678 26.1001 22.9124 25.5486 22.9124 25.2296C22.9124 24.9106 21.8335 24.3359 20.5153 23.9523C18.2757 23.3001 18.0977 23.1451 17.8063 21.5898C17.437 19.6166 16.8177 18.3496 16.2233 18.3496C15.9871 18.3496 15.7793 18.7002 15.7611 19.1292ZM142.25 19.8781C139.077 20.5036 138.177 21.3474 138.156 23.7162C138.144 25.0265 138.523 25.68 140.378 27.5463L142.613 29.797L140.044 31.175C136.955 32.8323 136.204 33.8957 136.564 36.1032C136.817 37.6491 136.703 37.8385 134.26 39.9439C130.345 43.3182 126.575 47.1906 126.572 47.8402C126.57 48.1601 126.233 49.023 125.821 49.7581C124.437 52.2329 124.828 56.5548 127.009 62.9007C128.062 65.9636 129.066 68.67 129.242 68.9151C129.417 69.1601 129.675 69.7615 129.816 70.2516C129.956 70.7417 130.783 73.1474 131.653 75.5977C133.198 79.9477 134.704 82.0496 136.281 82.0554C137.101 82.0585 136.536 83.6829 135.041 85.6217C133.506 87.6109 132.614 89.2446 131.391 92.3044C130.547 94.4125 130.402 95.6871 130.345 101.437C130.273 108.567 129.929 113.122 129.215 116.362C128.972 117.465 128.627 122.577 128.448 127.722L128.124 137.078L126.435 139.29C124.74 141.51 124.693 141.777 125.513 144.541C125.671 145.074 125.489 145.334 124.936 145.366C124.491 145.391 109.477 145.441 91.5719 145.477L59.0162 145.543L59.26 144.323C59.4936 143.153 58.7363 141.487 57.3282 140.071C56.4042 139.142 56.1199 136.451 56.6635 133.781C58.0129 127.154 58.182 124.669 57.6334 119.527C57.0199 113.772 56.8815 113.243 55.99 113.243C55.5001 113.243 55.4183 113.607 55.6407 114.795C56.0683 117.078 57.0355 126.799 56.858 127.027C56.7739 127.134 53.9568 127.202 50.5978 127.177C46.9696 127.15 44.2646 127.319 43.934 127.593C43.5456 127.915 43.3779 127.903 43.3779 127.554C43.3779 127.232 42.2696 127.054 40.2636 127.054C37.4402 127.054 37.1493 127.138 37.1493 127.95C37.1493 130.568 40.5755 142.901 41.6908 144.298C42.3973 145.183 41.6766 145.722 40.1234 145.47C39.1064 145.305 38.4866 145.448 38.0751 145.945C37.5426 146.588 37.8682 146.659 41.4328 146.678C78.7689 146.882 234.284 146.762 234.516 146.529C235.289 145.755 233.656 145.577 225.213 145.51C220.268 145.471 216.122 145.41 216 145.375C215.877 145.34 216.813 144.717 218.079 143.99C219.344 143.263 220.857 142.213 221.44 141.655C224.152 139.063 226.676 133.111 226.679 129.3C226.679 128.432 226.345 126.342 225.937 124.656C225.349 122.23 224.824 121.205 223.428 119.755C222.27 118.552 221.591 118.122 221.454 118.505C221.292 118.962 221.07 118.93 220.443 118.361C219.699 117.688 219.53 117.69 218.153 118.385C217.336 118.798 216.117 119.652 215.444 120.283C214.77 120.913 214.216 121.241 214.211 121.012C214.091 115.296 210.365 104.122 206.347 97.4278C203.628 92.8978 195.821 84.2175 193.085 82.6822C192.246 82.2118 192.26 82.1525 193.451 81.1229C194.668 80.0711 195.194 78.8571 198.457 69.5833C200.179 64.6885 200.18 64.6827 199.368 64.6827C199.029 64.6827 198.643 65.1336 198.509 65.6851C198.375 66.2367 197.762 68.0909 197.147 69.8061C193.3 80.526 193.186 80.7211 190.816 80.7211C189.633 80.7211 189.047 80.3549 187.784 78.8277C183.548 73.707 182.402 69.3361 182.239 57.6659C182.198 54.7496 182.052 53.9905 181.532 53.9905C180.974 53.9905 180.914 54.9314 181.129 60.339C181.395 67.0568 182.657 74.0255 183.775 74.9544C184.125 75.2458 184.412 75.7421 184.412 76.0579C184.412 77.0122 187.944 81.1751 189.222 81.7279C190.356 82.2185 191.617 83.1353 195.026 85.9483C197.672 88.1326 203.116 94.6304 205.001 97.8559C209.746 105.975 211.792 111.966 212.84 120.817C213.517 126.526 212.885 135.398 211.526 139.268C211.05 140.624 210.661 142.109 210.661 142.567C210.661 143.025 210.256 143.767 209.76 144.216C209.265 144.665 209.047 145.147 209.275 145.287C209.502 145.428 204.051 145.489 197.161 145.423C185.07 145.308 184.607 145.271 183.856 144.372C182.711 143.002 182.892 141.905 184.658 139.496L186.239 137.338L186.4 131.159C186.542 125.673 186.264 123.269 185.568 123.965C185.444 124.09 185.312 126.989 185.276 130.408L185.209 136.623L183.392 139.218C181.677 141.666 181.599 141.91 182.032 143.533L182.491 145.252L179.558 145.398C177.945 145.477 176.189 145.481 175.656 145.405C174.69 145.267 174.689 145.26 175.515 143.846C176.617 141.957 177.738 136.947 177.738 133.908C177.738 131.248 176.566 125.425 175.955 125.047C175.206 124.584 175.15 125.562 175.773 128.18C176.741 132.24 176.627 137.978 175.527 140.642C175.324 141.132 174.925 142.158 174.639 142.922C173.712 145.403 172.962 145.543 160.633 145.542C150.677 145.542 149.313 145.455 148.243 144.752C146.43 143.563 146.596 141.581 148.689 139.434L150.338 137.743L150.358 131.173C150.383 122.364 149.566 121.953 149.255 130.618C149.127 134.171 148.867 137.399 148.677 137.79C148.487 138.182 147.714 138.959 146.96 139.517L145.59 140.532L142.535 137.305C139.301 133.888 136.658 129.2 136.129 125.94C135.676 123.152 135.457 122.599 134.803 122.599C134.35 122.599 134.259 123.027 134.45 124.27C134.591 125.189 134.869 126.259 135.067 126.648C135.265 127.037 135.314 127.789 135.175 128.319C135.037 128.848 135.123 129.282 135.367 129.282C135.61 129.282 136.06 129.887 136.366 130.626C136.672 131.366 137.687 133.065 138.622 134.401C139.557 135.737 140.132 136.949 139.899 137.092C139.141 137.562 139.455 138.259 140.304 137.989C141.335 137.661 142.263 138.707 141.864 139.746C141.63 140.358 141.746 140.467 142.413 140.262C143.671 139.874 145.344 141.397 145.961 143.49L146.501 145.32L138.428 145.387C127.168 145.481 126.574 145.387 126.574 143.521C126.574 143.081 126.825 142.611 127.131 142.475C127.547 142.291 127.51 142.098 126.985 141.709C126.362 141.248 126.406 141.06 127.378 140.025C129.302 137.977 129.592 136.602 129.688 129.059C129.82 118.795 130.165 115.916 131.266 115.916C132.114 115.916 132.1 115.192 131.246 114.864C130.372 114.528 130.398 113.255 131.305 111.958C131.788 111.268 131.873 110.821 131.559 110.626C131.233 110.425 131.222 109.699 131.522 108.291C131.899 106.523 132.089 106.271 132.936 106.425C133.626 106.551 134.464 106.066 135.771 104.783C137.485 103.101 137.648 103.032 137.915 103.873C138.424 105.478 140.394 107.452 141.486 107.452C142.53 107.452 143.926 106.414 143.926 105.638C143.926 105.41 143.625 105.224 143.258 105.224C142.891 105.224 142.591 105.425 142.591 105.67C142.591 105.915 142.115 106.115 141.533 106.115C140.703 106.115 140.201 105.589 139.198 103.666C138.495 102.319 137.805 101.216 137.665 101.215C137.526 101.215 136.628 102.117 135.67 103.219C132.45 106.929 131.231 105.6 131.579 98.7603C131.726 95.8765 132.069 93.7398 132.529 92.8506C132.924 92.0843 133.248 91.1474 133.248 90.7683C133.248 89.8661 136.047 86.0017 137.218 85.2871C137.721 84.9797 138.121 84.2794 138.108 83.7278C138.095 83.1768 138.147 82.3379 138.224 81.8638C138.332 81.2005 138.02 80.9287 136.869 80.685C134.373 80.1557 134.777 81.0156 128.104 62.0096C125.886 55.6892 125.71 53.6732 127.058 49.9724C127.827 47.8602 128.602 46.8569 131.567 44.1349C133.536 42.327 135.711 40.2857 136.401 39.5982C137.09 38.9113 137.92 38.4101 138.245 38.4845C139.042 38.668 139.046 37.9423 138.253 36.73C137.06 34.907 137.831 33.7442 141.474 31.8713C143.309 30.9277 144.812 30.0082 144.814 29.8277C144.815 29.6473 144.065 29 143.147 28.3892C142.23 27.7784 140.909 26.5595 140.213 25.6809C139.07 24.2383 139 23.9577 139.484 22.7869C139.883 21.821 140.434 21.4018 141.639 21.1447C144.269 20.5843 152.417 20.754 154.826 21.4196C158.321 22.385 163.936 25.3722 166.63 27.6991C168.702 29.4896 169.387 29.8291 170.965 29.8509C171.996 29.8651 173.038 30.0001 173.281 30.1507C173.524 30.3013 174.853 30.7192 176.234 31.0792C180.7 32.2437 187.331 35.8399 190.618 38.8796C191.037 39.2668 192.765 40.7539 194.458 42.1835C196.151 43.6132 197.989 45.2642 198.543 45.8519C201.64 49.1393 202.538 54.3892 200.883 59.5281C200.325 61.2603 199.693 63.0285 199.477 63.4576C199.233 63.9436 199.255 64.2372 199.535 64.2372C199.781 64.2372 200.107 64.2457 200.258 64.2555C200.409 64.2657 201.037 62.9123 201.652 61.2483C203.199 57.0672 203.275 51.5642 201.825 48.5802C200.869 46.6132 197.508 43.0977 192.636 38.9683C191.416 37.9347 190.112 36.8263 189.738 36.5059C186.392 33.6351 178.649 30.202 172.434 28.8329C169.9 28.2747 168.658 27.7147 167.095 26.4263C162.741 22.8372 157.367 20.5486 151.346 19.7195C147.145 19.1417 145.87 19.1635 142.25 19.8781ZM84.5313 23.0943C80.7817 23.6801 75.1412 26.2895 73.237 28.3197C71.8418 29.8068 72.8433 30.3013 74.4716 28.9291C75.1688 28.3419 77.517 27.0829 79.6903 26.1313C83.6068 24.4166 83.6904 24.4019 89.2027 24.4299C94.2368 24.4558 95.0078 24.5703 97.3351 25.6364C100.074 26.8914 101.215 27.1012 101.215 26.3501C101.215 26.0948 99.8635 25.2661 98.212 24.5088C95.5573 23.2912 94.6675 23.1174 90.5375 23.0087C87.9681 22.941 85.2654 22.9793 84.5313 23.0943ZM143.039 23.6841C142.044 24.3145 143.038 25.0238 144.259 24.5547C144.81 24.343 145.26 23.963 145.26 23.71C145.26 23.1375 143.927 23.1219 143.039 23.6841ZM149.914 23.7256C149.506 24.3863 149.653 24.462 152.045 24.8184C154.489 25.1828 154.939 24.5008 152.757 23.7394C150.998 23.1255 150.286 23.1219 149.914 23.7256ZM10.4552 25.4778C10.4552 25.7228 10.6674 25.9233 10.9263 25.9233C11.1853 25.9233 11.2738 25.7228 11.1225 25.4778C10.9713 25.2327 10.7595 25.0323 10.6514 25.0323C10.5433 25.0323 10.4552 25.2327 10.4552 25.4778ZM158.162 26.2614C158.162 26.817 159.943 27.7574 160.427 27.4581C161.076 27.0562 160.021 25.9233 158.998 25.9233C158.538 25.9233 158.162 26.0756 158.162 26.2614ZM220.632 36.8352C219.372 38.7602 221.004 41.6364 222.935 40.8942C223.285 40.7597 223.64 40.6942 223.722 40.7485C224.268 41.1112 225.343 39.379 225.343 38.1361C225.343 35.6332 222.019 34.7154 220.632 36.8352ZM221.558 37.5106C221.406 37.7578 221.411 38.3708 221.57 38.8729C222.014 40.2736 223.748 39.8419 223.926 38.2862C224.047 37.2379 223.906 37.061 222.951 37.061C222.338 37.061 221.711 37.2633 221.558 37.5106ZM80.3172 41.591C77.5005 42.654 78.0904 45.9713 81.0962 45.9713C82.4118 45.9713 83.5734 44.4213 83.2442 43.1062C82.8798 41.6538 81.7293 41.0582 80.3172 41.591ZM101.018 42.061C99.6157 44.0654 100.538 45.9713 102.911 45.9713C103.954 45.9713 104.602 45.2562 105.001 43.6622C105.256 42.6469 105.1 42.3684 103.947 41.771C102.17 40.851 101.842 40.8835 101.018 42.061ZM135.969 42.7613C134 45.0286 131.484 50.4696 130.994 53.5173C130.189 58.5195 131.006 63.3649 133.478 68.2468C134.703 70.6664 137.2 73.8584 137.747 73.7043C137.964 73.6428 138.118 73.7431 138.089 73.9271C137.944 74.8461 138.207 75.375 138.809 75.375C139.874 75.375 139.633 74.8542 136.864 71.1814C135.428 69.275 133.996 66.9397 133.684 65.9912C133.371 65.0427 132.995 64.341 132.848 64.4323C132.46 64.6725 132.289 62.4413 132.272 56.8863C132.258 52.228 132.333 51.8199 133.792 48.6381C134.636 46.7968 135.623 44.9925 135.985 44.6285C137.192 43.4162 138.195 41.6017 137.796 41.3549C137.579 41.2203 136.757 41.8534 135.969 42.7613ZM92.3936 46.2987C90.6634 47.764 90.7167 49.2382 92.5738 51.2969L94.2404 53.144L93.5138 54.6699C92.0439 57.7559 86.891 58.4727 84.2679 55.956C83.5485 55.2659 82.7575 53.9481 82.5101 53.0281C82.2627 52.1077 81.8792 51.243 81.6581 51.1062C80.9134 50.6456 80.7065 51.7299 81.1932 53.5405C82.2049 57.3024 85.8259 59.7367 89.2027 58.9249C91.6066 58.3471 92.9604 57.7207 93.67 56.8587C94.2617 56.1396 94.3387 56.2603 94.5416 58.2255C94.8388 61.107 95.8763 61.4799 95.8763 58.7053C95.8763 56.4702 96.218 56.21 97.4147 57.534C97.8472 58.0125 99.2731 58.6443 100.583 58.9378C102.8 59.4346 103.113 59.3958 105.093 58.3805C108.394 56.6876 110.946 51.39 108.669 50.9556C108.1 50.8469 107.909 51.0826 107.952 51.8422C108.046 53.487 107.172 55.1497 105.58 56.3561C103.039 58.2816 100.071 58.1569 97.8863 56.0322C95.9719 54.1709 95.9208 53.2041 97.6559 51.6796C99.3381 50.2014 99.5022 47.8197 98.0167 46.4341C96.9841 45.4705 94.5416 45.1836 94.5416 46.0256C94.5416 46.3923 94.3787 46.3905 93.9316 46.0189C93.4653 45.6313 93.1041 45.6968 92.3936 46.2987ZM166.713 48.0023C165.015 49.1932 165.731 52.2084 167.712 52.2084C170.434 52.2084 171.171 48.3926 168.604 47.5916C168.082 47.429 167.283 47.6027 166.713 48.0023ZM144.274 48.9018C143.364 50.9013 145.231 52.7706 147.228 51.8596C148.484 51.2866 148.829 49.2774 147.841 48.2879C146.853 47.2984 144.846 47.6437 144.274 48.9018ZM36.0624 50.0802C35.6816 50.6246 35.3697 51.4956 35.3697 52.0159C35.3697 53.0883 36.6563 54.436 37.6805 54.436C38.8234 54.436 40.7085 52.6561 40.7085 51.5767C40.7085 49.2805 37.3731 48.2059 36.0624 50.0802ZM37.244 50.5101C36.4833 51.2715 36.5736 52.6316 37.4064 52.9515C38.46 53.3565 39.7017 51.9371 39.1122 51.0015C38.4871 50.0094 37.8985 49.8543 37.244 50.5101ZM153.834 52.0761C152.675 52.3002 151.044 54.2088 151.044 55.3408C151.044 55.7725 151.759 56.7544 152.633 57.5229C153.998 58.7231 154.182 59.1076 153.931 60.2477C153.63 61.6203 151.613 63.4473 149.782 64.0051C146.865 64.8939 143.337 62.7091 142.534 59.5161C141.994 57.3723 141.256 56.8903 141.256 58.6826C141.256 61.4207 143.53 64.3668 146.111 64.9718C146.745 65.1207 147.997 66.0682 148.894 67.0787L150.526 68.9151L150.308 67.133C150.107 65.4833 150.2 65.2899 151.568 64.5281C152.381 64.0755 153.065 63.7748 153.089 63.8599C153.112 63.9449 153.482 63.7231 153.911 63.3671C154.624 62.7741 154.682 62.8298 154.599 64.0354C154.442 66.3284 154.585 66.9103 155.304 66.9103C155.792 66.9103 155.981 66.5374 155.924 65.6851C155.736 62.8191 155.788 62.7666 157.598 63.9984C158.512 64.6199 159.535 65.1282 159.872 65.1282C160.334 65.1282 160.413 65.5189 160.19 66.7062C159.911 68.1978 159.943 68.2535 160.781 67.7296C161.269 67.4244 161.909 66.724 162.204 66.1729C162.502 65.6138 163.35 65.0422 164.121 64.8801C166.584 64.361 169.285 61.124 169.285 58.6906C169.285 56.9865 168.492 57.3233 167.974 59.2466C166.963 63.0085 162.742 64.9865 159.265 63.3279C157.81 62.6334 155.938 60.576 155.938 59.6703C155.938 59.562 156.639 58.7507 157.495 57.8677C159.509 55.7912 159.601 53.9967 157.76 52.6842C156.498 51.7843 155.856 51.6849 153.834 52.0761ZM155.41 52.5127C155.731 52.6414 156.115 52.6254 156.262 52.4775C156.41 52.3296 156.148 52.2244 155.679 52.2436C155.16 52.265 155.055 52.3706 155.41 52.5127ZM18.6894 80.4012C16.5615 81.981 11.7899 87.8025 11.7899 88.8187C11.7899 89.8594 13.2505 88.9403 14.51 87.1071C16.2358 84.5953 18.7677 81.9445 20.1318 81.221C21.1964 80.6561 21.5092 79.3752 20.5767 79.3988C20.271 79.4064 19.4217 79.8577 18.6894 80.4012ZM222.043 84.8421C221.956 85.1486 221.656 86.245 221.375 87.2786C220.917 88.9697 220.678 89.2094 218.989 89.6683C217.957 89.949 216.845 90.2559 216.519 90.3508C215.349 90.6898 216.321 91.6031 218.423 92.14C221.083 92.8194 221.279 93.0181 221.694 95.451C222.191 98.3682 223.264 98.3027 223.981 95.3116C224.508 93.1134 224.679 92.896 226.274 92.3975C227.222 92.1012 228.316 91.8589 228.705 91.8589C230.058 91.8589 229.125 90.4368 227.378 89.8371C226.418 89.5075 225.439 89.2758 225.202 89.323C224.964 89.3702 224.526 88.481 224.227 87.3472C223.928 86.2133 223.544 85.0604 223.374 84.7855C222.963 84.119 222.239 84.1497 222.043 84.8421ZM191.753 87.8493C192.595 88.7813 193.755 89.0486 193.755 88.3104C193.755 87.8221 192.308 86.9582 191.49 86.9582C191.15 86.9582 191.248 87.291 191.753 87.8493ZM196.424 92.3044C196.424 92.5494 196.799 93.1259 197.258 93.5852C197.717 94.0445 198.179 94.6816 198.285 95.0006C198.392 95.32 198.716 95.4336 199.007 95.2537C199.988 94.6469 198.019 91.8589 196.61 91.8589C196.508 91.8589 196.424 92.0593 196.424 92.3044ZM195.534 96.8905C195.534 97.6884 196.774 98.7848 197.198 98.3611C197.569 97.9891 196.79 96.6588 196.059 96.4147C195.77 96.3184 195.534 96.5327 195.534 96.8905ZM201.582 98.9198C201.454 99.1274 201.75 99.7288 202.241 100.256C202.731 100.783 203 101.215 202.838 101.215C202.676 101.215 202.8 101.524 203.113 101.902C204.216 103.232 204.496 101.82 203.454 100.185C202.404 98.538 201.99 98.2582 201.582 98.9198ZM198.649 101.857C198.649 101.966 199.076 102.781 199.599 103.668C200.199 104.685 200.705 105.125 200.971 104.858C201.538 104.291 200.166 101.66 199.304 101.66C198.943 101.66 198.649 101.749 198.649 101.857ZM81.9353 102.885C81.8245 103.069 81.3952 105.221 80.981 107.668C80.5668 110.115 80.165 112.22 80.0881 112.346C79.7357 112.925 77.6091 126.731 77.8373 126.959C78.5331 127.656 79.1462 125.642 80.3354 118.756C81.5843 111.523 82.6867 105.662 83.1944 103.554C83.3612 102.861 83.2348 102.551 82.7864 102.551C82.4291 102.551 82.0461 102.701 81.9353 102.885ZM205.994 107.674C206.15 108.655 206.562 109.75 206.912 110.109C207.984 111.211 207.713 108.187 206.629 106.944L205.71 105.892L205.994 107.674ZM132.803 108.788C132.803 109.033 133.103 109.234 133.47 109.234C133.837 109.234 134.138 109.033 134.138 108.788C134.138 108.543 133.837 108.343 133.47 108.343C133.103 108.343 132.803 108.543 132.803 108.788ZM202.208 108.645C202.208 109.35 203.304 111.907 203.606 111.907C204.286 111.907 204.334 111.185 203.747 109.786C203.219 108.529 202.208 107.78 202.208 108.645ZM132.803 113.243C132.803 113.488 133.003 113.689 133.248 113.689C133.493 113.689 133.693 113.488 133.693 113.243C133.693 112.998 133.493 112.798 133.248 112.798C133.003 112.798 132.803 112.998 132.803 113.243ZM31.8879 115.582C30.0122 122.932 29.4409 126.467 30.0669 126.854C30.7147 127.255 31.3482 126.264 31.3638 124.827C31.3705 124.214 31.7953 122.109 32.3074 120.149C33.6813 114.894 33.8156 113.689 33.029 113.689C32.6273 113.689 32.1828 114.426 31.8879 115.582ZM207.994 114.914C208.001 115.919 208.984 118.59 209.347 118.59C209.841 118.59 209.879 117.906 209.493 115.972C209.34 115.206 208.94 114.58 208.603 114.58C208.267 114.58 207.993 114.73 207.994 114.914ZM204.607 116.176C204.756 116.563 204.877 117.365 204.877 117.958C204.877 118.653 205.132 119.035 205.597 119.035C206.125 119.035 206.245 118.77 206.047 118.033C205.9 117.481 205.776 116.679 205.773 116.251C205.77 115.822 205.445 115.471 205.052 115.471C204.583 115.471 204.43 115.713 204.607 116.176ZM133.062 117.193C132.871 117.504 132.834 117.878 132.981 118.025C133.379 118.424 133.813 117.837 133.598 117.191C133.448 116.739 133.343 116.739 133.062 117.193ZM218.002 119.857C215.053 121.716 214.52 122.729 214.389 126.72C214.323 128.742 214.146 131.741 213.997 133.387C213.69 136.754 211.902 143.691 211.087 144.674C210.261 145.671 212.049 145.511 214.805 144.341C219.15 142.497 221.781 140.115 223.728 136.263C227.673 128.453 223.47 116.409 218.002 119.857ZM130.579 119.926C130.579 120.171 130.879 120.372 131.246 120.372C131.613 120.372 131.913 120.171 131.913 119.926C131.913 119.681 131.613 119.481 131.246 119.481C130.879 119.481 130.579 119.681 130.579 119.926ZM132.803 121.931C132.803 122.339 133.018 122.601 133.281 122.514C133.544 122.426 133.76 122.163 133.76 121.931C133.76 121.698 133.544 121.436 133.281 121.348C133.018 121.26 132.803 121.522 132.803 121.931ZM205.7 123.936C205.664 124.671 205.613 125.506 205.589 125.792C205.565 126.078 205.795 126.395 206.101 126.497C206.492 126.628 206.657 126.077 206.657 124.641C206.657 122.404 205.808 121.778 205.7 123.936ZM209.63 123.334C209.463 123.502 209.326 124.524 209.326 125.606C209.326 128.081 210.372 128.003 210.58 125.513C210.719 123.851 210.231 122.732 209.63 123.334ZM130.579 124.381C130.579 124.626 130.879 124.827 131.246 124.827C131.613 124.827 131.913 124.626 131.913 124.381C131.913 124.136 131.613 123.936 131.246 123.936C130.879 123.936 130.579 124.136 130.579 124.381ZM132.803 126.349C132.803 126.737 133.12 127.054 133.507 127.054C134.293 127.054 134.156 126.095 133.332 125.82C133.041 125.723 132.803 125.961 132.803 126.349ZM56.5025 127.945C56.3512 128.19 56.4398 128.391 56.6987 128.391C56.9576 128.391 57.1698 128.19 57.1698 127.945C57.1698 127.7 57.0818 127.5 56.9736 127.5C56.8655 127.5 56.6538 127.7 56.5025 127.945ZM130.579 128.836C130.579 129.081 130.767 129.282 130.997 129.282C131.228 129.282 131.54 129.081 131.691 128.836C131.842 128.591 131.653 128.391 131.272 128.391C130.891 128.391 130.579 128.591 130.579 128.836ZM132.803 130.841C132.803 131.209 133.003 131.509 133.248 131.509C133.493 131.509 133.693 131.209 133.693 130.841C133.693 130.474 133.493 130.173 133.248 130.173C133.003 130.173 132.803 130.474 132.803 130.841ZM205.626 130.462C205.17 130.919 205.26 132.846 205.737 132.846C206.342 132.846 206.816 131.045 206.338 130.566C206.114 130.342 205.793 130.295 205.626 130.462ZM208.851 132.734C208.834 133.163 208.747 134.066 208.658 134.739C208.548 135.581 208.697 135.964 209.134 135.964C209.541 135.964 209.771 135.495 209.771 134.664C209.771 133.949 209.893 133.047 210.041 132.66C210.218 132.197 210.066 131.955 209.596 131.955C209.203 131.955 208.867 132.306 208.851 132.734ZM130.838 132.786C130.646 133.097 130.61 133.471 130.757 133.618C131.155 134.017 131.589 133.43 131.374 132.784C131.223 132.332 131.118 132.332 130.838 132.786ZM135.028 133.291C135.028 133.536 135.216 133.737 135.446 133.737C135.677 133.737 135.989 133.536 136.14 133.291C136.291 133.046 136.102 132.846 135.721 132.846C135.34 132.846 135.028 133.046 135.028 133.291ZM132.803 135.296C132.803 135.664 133.003 135.964 133.248 135.964C133.493 135.964 133.693 135.664 133.693 135.296C133.693 134.929 133.493 134.628 133.248 134.628C133.003 134.628 132.803 134.929 132.803 135.296ZM137.252 135.296C137.252 135.664 137.452 135.964 137.697 135.964C137.942 135.964 138.142 135.664 138.142 135.296C138.142 134.929 137.942 134.628 137.697 134.628C137.452 134.628 137.252 134.929 137.252 135.296ZM130.579 137.524C130.579 137.891 130.779 138.192 131.023 138.192C131.268 138.192 131.468 137.891 131.468 137.524C131.468 137.156 131.268 136.855 131.023 136.855C130.779 136.855 130.579 137.156 130.579 137.524ZM135.312 137.165C134.811 137.666 135.007 138.192 135.695 138.192C136.062 138.192 136.362 138.004 136.362 137.773C136.362 137.211 135.667 136.809 135.312 137.165ZM128.218 139.368C127.862 139.724 128.264 140.42 128.825 140.42C129.056 140.42 129.244 140.119 129.244 139.751C129.244 139.063 128.719 138.866 128.218 139.368ZM132.803 139.751C132.803 140.119 133.003 140.42 133.248 140.42C133.493 140.42 133.693 140.119 133.693 139.751C133.693 139.384 133.493 139.083 133.248 139.083C133.003 139.083 132.803 139.384 132.803 139.751ZM137.252 139.714C137.252 140.102 137.569 140.42 137.956 140.42C138.742 140.42 138.605 139.46 137.781 139.185C137.49 139.088 137.252 139.326 137.252 139.714ZM207.398 140.717C206.957 141.158 207.039 143.093 207.499 143.093C207.943 143.093 208.436 142.018 208.436 141.051C208.436 140.387 207.9 140.214 207.398 140.717ZM130.579 141.942C130.579 142.33 130.895 142.647 131.283 142.647C131.67 142.647 131.908 142.409 131.811 142.118C131.536 141.292 130.579 141.155 130.579 141.942ZM134.891 141.595C134.536 141.951 134.938 142.647 135.499 142.647C135.729 142.647 135.917 142.346 135.917 141.979C135.917 141.29 135.392 141.094 134.891 141.595ZM139.477 141.942C139.477 142.33 139.793 142.647 140.181 142.647C140.568 142.647 140.806 142.409 140.709 142.118C140.434 141.292 139.477 141.155 139.477 141.942ZM143.926 142.202C143.926 142.447 144.114 142.647 144.344 142.647C144.575 142.647 144.887 142.447 145.038 142.202C145.189 141.957 145.001 141.756 144.619 141.756C144.238 141.756 143.926 141.957 143.926 142.202ZM132.803 144.206C132.803 144.574 133.003 144.875 133.248 144.875C133.493 144.875 133.693 144.574 133.693 144.206C133.693 143.839 133.493 143.538 133.248 143.538C133.003 143.538 132.803 143.839 132.803 144.206ZM137.252 144.206C137.252 144.615 137.467 144.877 137.73 144.789C137.993 144.701 138.209 144.439 138.209 144.206C138.209 143.974 137.993 143.711 137.73 143.624C137.467 143.536 137.252 143.798 137.252 144.206ZM141.985 143.847C141.484 144.349 141.681 144.875 142.368 144.875C142.736 144.875 143.036 144.686 143.036 144.455C143.036 143.894 142.341 143.491 141.985 143.847ZM128.354 144.429C128.354 144.674 128.654 144.875 129.021 144.875C129.388 144.875 129.689 144.674 129.689 144.429C129.689 144.184 129.388 143.984 129.021 143.984C128.654 143.984 128.354 144.184 128.354 144.429ZM47.3251 145.654C46.772 146.361 46.7876 146.376 47.4932 145.823C48.2344 145.24 48.4698 144.875 48.1036 144.875C48.0115 144.875 47.661 145.226 47.3251 145.654ZM0.357703 145.907C0.234465 146.107 0.208661 146.346 0.300311 146.438C0.512974 146.65 6.74115 146.716 23.7453 146.683C35.5556 146.66 37.1902 146.575 36.7177 146.004C36.2572 145.449 33.5425 145.366 18.3798 145.448C8.59105 145.5 0.481385 145.706 0.357703 145.907Z" fill="#141414"/>
</svg>
